<svg width="175" height="157" viewBox="0 0 175 157" fill="none" xmlns="http://www.w3.org/2000/svg">
<g clip-path="url(#clip0_1013_232)">
<path fill-rule="evenodd" clip-rule="evenodd" d="M25.0857 11.4228C25.0857 12.5665 24.5891 16.3766 26.3216 16.3766H41.314V18.2353H20.1404C17.8729 18.2353 16.0015 19.0207 14.4718 19.8333C11.1249 21.612 9.51688 25.1311 8.67217 28.7317C7.8115 32.406 7.77637 33.7064 7.77637 37.4334C7.77637 40.9477 9.09213 46.6885 10.3536 48.9407C13.9049 55.2815 18.2482 54.4641 24.6226 54.4641C28.3049 54.4641 24.6721 46.2263 27.3548 41.4084C28.8733 38.6779 31.5623 36.9503 34.823 36.9679C39.6262 36.9935 51.3723 37.3918 54.1651 36.3713C56.2505 35.6099 57.4481 34.6406 58.7335 33.0522C59.8289 31.7005 60.7886 29.4467 60.7886 27.0602V11.5779C60.7886 7.78533 58.419 4.44382 55.2781 2.85385C52.728 1.56459 49.5887 1.05752 46.5691 0.894368C45.9687 0.862376 45.3124 0.927959 44.7136 0.895967C42.839 0.795194 43.936 0.592049 41.4466 0.871974C40.8589 0.937556 40.2042 0.881571 39.6086 0.88797C37.2374 0.916762 32.7009 1.72935 30.6043 2.54993C26.9284 3.98954 25.0873 6.3857 25.0873 11.4212L25.0857 11.4228Z" fill="#275C87" stroke="#FEFEFE" stroke-width="0.944376" stroke-miterlimit="22.9256"/>
<path fill-rule="evenodd" clip-rule="evenodd" d="M27.8678 48.8895V62.3595C27.8678 69.6936 32.7157 72.2785 38.5935 73.7549C39.6011 74.0092 40.7141 74.2651 41.6674 74.3915C42.7851 74.5403 44.0115 74.6026 45.0462 74.7226C46.2965 74.8666 50.3668 74.3387 51.6043 74.0604C53.7648 73.5757 55.4366 73.1006 57.2793 72.3137C58.635 71.7346 60.7635 70.2326 61.5635 69.1737C63.9204 66.0593 63.5691 64.4853 63.5691 60.5008C63.5691 59.5347 63.1268 58.7973 62.1783 58.7973H47.3408V56.9386H69.9052C74.4721 56.9386 76.6533 54.568 78.2006 51.468C80.3675 47.1268 81.0334 43.5549 81.0334 38.3595C81.0334 34.6421 79.807 29.4515 78.6733 26.7914C75.5994 19.5837 70.536 20.7098 63.8789 20.7098C62.5216 20.7098 62.4769 21.8359 62.4865 23.186C62.5264 29.2308 63.2418 34.8772 56.8162 37.6333C54.9176 38.4475 51.9923 38.2044 49.3496 38.2044C46.6702 38.2044 43.9923 38.2044 41.3129 38.2044C36.2414 38.2044 32.9872 37.9804 29.6307 42.6032C28.5145 44.1404 27.8662 46.2934 27.8662 48.8879L27.8678 48.8895Z" fill="#BF9816" stroke="#FEFEFE" stroke-width="0.944376" stroke-miterlimit="22.9256"/>
<path fill-rule="evenodd" clip-rule="evenodd" d="M28.2461 13.3054C32.3962 13.3054 36.5446 13.3054 40.6947 13.3054C43.1522 13.3054 44.5063 12.8671 44.5015 15.596C44.4983 17.2499 44.9694 20.4795 43.7446 21.1321C42.3921 21.8519 22.7834 20.9017 19.0517 21.4664C15.6201 21.9847 13.3367 24.328 12.2924 27.2537C10.2182 33.0601 10.3443 43.1582 13.5651 48.1985C15.6696 51.492 18.2229 51.3128 23.1267 51.3128C23.1267 45.572 22.5359 42.7983 25.4533 38.5786C27.7223 35.2963 31.4492 33.7591 35.5945 33.7639C40.5862 33.7703 45.5953 33.8023 50.5869 33.7671C53.0572 33.7495 54.8967 32.7994 55.9538 31.5069C57.4484 29.6802 57.64 28.5365 57.6368 25.6685C57.6336 23.138 57.7725 12.2784 57.5745 10.7429C57.2839 8.50186 55.9586 7.10223 54.6189 6.14409C50.4895 3.19287 39.5051 3.73833 34.8456 4.63889C28.9774 5.77298 28.2477 7.03345 28.2477 13.3086L28.2461 13.3054Z" fill="#3479B3"/>
<path fill-rule="evenodd" clip-rule="evenodd" d="M60.4544 61.9082C56.6061 61.6475 51.9004 61.8794 47.9595 61.8794C45.4812 61.8794 44.2166 62.2873 44.2293 59.4177C44.2373 57.7973 43.7822 54.475 45.1044 53.9231C46.0497 53.5281 67.0237 53.8256 70.0656 53.7696C74.0368 53.6976 75.2855 50.8952 76.4129 47.6624C77.7047 43.9578 78.2205 41.0546 77.8197 36.7789C77.5386 33.7781 76.5662 29.045 75.2217 26.844C73.0037 23.2129 70.6868 23.7968 65.5882 23.8128C65.4444 29.2977 66.2413 32.4441 63.2377 36.475C61.1171 39.3206 58.1071 41.3633 52.908 41.3617C47.8732 41.3601 42.7842 41.2881 37.7575 41.3617C35.1803 41.3985 33.8102 42.483 32.6637 43.7851C31.1739 45.4758 31.0637 47.1602 31.0653 49.817C31.0669 52.17 30.8912 63.5062 31.225 64.8818C32.0681 68.3609 36.3587 70.0916 40.3172 70.9426C45.6856 72.0943 54.5606 71.4833 58.6772 67.6731C60.2453 66.2223 60.4592 64.6835 60.4592 61.9082H60.4544Z" fill="#FDC91D"/>
<path fill-rule="evenodd" clip-rule="evenodd" d="M52.6326 63.5636C48.9408 64.7937 50.6925 70.397 54.4641 69.1797C57.9771 68.044 56.3962 62.3111 52.6326 63.5636Z" fill="#FEFEFD"/>
<path fill-rule="evenodd" clip-rule="evenodd" d="M33.276 6.09284C29.5618 6.81425 30.4544 12.819 34.4927 11.8897C38.0504 11.0707 37.07 5.35544 33.276 6.09284Z" fill="#FEFEFD"/>
<path fill-rule="evenodd" clip-rule="evenodd" d="M151.469 59.5504C151.469 58.6659 153.274 56.3241 155.072 58.3683C156.475 59.9663 155.445 62.2729 153.545 61.9082C152.488 61.7051 151.469 60.6813 151.469 59.5504ZM119.544 59.5504C119.544 58.3156 120.684 57.5926 121.88 57.4566C124.628 57.1447 124.379 61.7978 121.663 61.9338C120.529 61.9914 119.544 60.4478 119.544 59.5504ZM132.371 39.9908C134.082 39.9908 135.792 39.9908 137.502 39.9908C139.444 39.9908 140.711 39.8837 141.866 40.7602C145.028 43.1596 143.188 50.2089 147.857 52.7474C148.606 53.1553 148.961 53.1329 150.043 53.1265C153.462 53.1073 156.885 53.1265 160.306 53.1265C160.148 53.72 159.384 54.3646 159.024 54.8397C158.794 55.142 158.591 55.4075 158.273 55.6715C157.885 55.993 157.837 55.9434 157.213 55.8138C155.744 55.5099 153.012 54.8413 151.611 54.8413C150.961 54.8413 150.489 55.3132 150.305 55.817C150.211 56.0778 150.185 56.3945 150.093 56.7464C150.002 57.1015 149.914 57.383 149.808 57.7461L148.761 61.5515C147.953 61.6187 144.418 63.6933 137.93 63.6933C134.281 63.6933 130.76 62.9591 128.234 61.841C127.589 61.5563 126.751 61.4235 126.516 60.7053L125.984 58.2388C125.032 54.1711 125.203 53.9935 121.481 54.9261C120.581 55.1516 119.822 55.3563 118.973 55.5547C118.514 55.2476 117.163 53.6192 116.834 53.1281L138.083 53.1409C138.615 53.1457 139.068 53.2513 139.068 52.6995V44.9895C139.068 44.2841 137.329 44.5608 135.932 44.5608C134.744 44.5608 133.556 44.5608 132.37 44.5608C132.681 44.0074 132.512 41.2289 132.512 40.4211C132.512 39.8757 132.555 40.3683 132.37 39.9924L132.371 39.9908ZM139.356 32.5672H132.087C131.758 32.5672 131.659 32.4681 131.659 32.1385V27.5702H140.924C144.523 27.5702 146.029 32.5672 139.356 32.5672ZM163.728 31.1388C162.227 31.1388 161.59 30.6909 161.59 28.8546C161.59 28.2148 161.741 27.8357 162.126 27.5366C163.45 26.508 165.722 26.9991 165.722 29.1409C165.722 30.3902 164.973 31.1388 163.728 31.1388ZM111.849 26.9991C114.604 26.9991 114.305 31.1388 112.133 31.1388C108.563 31.1388 109.658 28.1076 110.236 27.5254C110.543 27.2167 111.324 26.9991 111.849 26.9991ZM116.125 27.5702H119.546V44.5592H112.277C111.022 39.1591 111.137 39.9461 111.137 34.5651C111.137 33.239 117.266 33.0631 117.266 30.5678C117.266 29.848 116.766 28.9986 116.454 28.3811C116.276 28.0276 116.258 27.8709 116.124 27.5686L116.125 27.5702ZM133.085 10.2948L135.046 12.4702C136.603 14.1529 136.181 14.4345 138.216 14.4345C139.185 14.4345 140.173 13.1164 140.747 12.5438C141.353 11.9359 142.501 10.9202 142.92 10.2948C144.338 10.6259 145.523 10.869 146.829 11.3761C150.664 12.8621 154.763 15.295 157.492 18.3982C158.808 19.8938 159.669 21.1511 160.801 22.797C161.401 23.6704 161.072 23.672 160.695 24.531C160.293 25.4491 158.455 29.5632 158.455 29.9983C158.455 30.7325 158.85 31.4203 159.309 31.7131C159.838 32.0506 160.445 32.2185 161.071 32.5192C165.246 34.5299 164.442 33.0167 164.442 38.708C160.587 38.708 161.151 38.3609 161.168 40.4259C161.205 44.7496 156.478 44.2745 155.06 42.8221C154.038 41.776 155.127 39.1255 151.515 36.0943C150.666 35.3809 150.616 35.5296 150.474 34.9954C150.837 34.8978 151.065 34.6771 151.349 34.4451C153.151 32.9735 155.747 30.6221 155.747 27.9988C155.747 25.7083 155.646 24.7229 154.16 22.7363C153.36 21.6645 152.311 20.7032 151.092 20.0986C147.779 18.4526 145.952 18.5774 141.208 18.5774C133.607 18.5774 126.005 18.5774 118.404 18.5774C118.891 17.8496 120.544 16.3875 121.314 15.7813L124.702 13.4651C126.533 12.3566 128.649 11.4705 130.692 10.8978L133.084 10.2964L133.085 10.2948ZM137.646 11.4369C137.023 11.4369 135.793 10.5875 135.793 10.0084C135.793 9.14148 135.828 8.62802 136.363 7.86662C137.197 6.67814 139.784 6.96446 139.784 9.15268C139.784 10.6835 138.361 11.4369 137.646 11.4369ZM134.653 4.29797C133.54 4.29797 132.073 1.5851 131.233 1.5851C129.508 1.5851 129.524 2.83596 128.975 4.60669C128.397 6.47659 127.423 5.39688 126.447 4.66427C125.69 4.09643 124.925 3.4406 123.964 3.4406C123.172 3.4406 123.112 4.77944 122.977 5.45126C122.829 6.20146 122.538 7.22199 122.538 8.00898C120.89 8.39448 122.165 8.49845 119.302 7.25398C118.034 6.70213 118.109 6.53737 116.98 7.29557L116.986 11.0146C116.93 11.9119 116.879 11.3153 116.694 12.0079C114.273 11.9535 111.848 10.2468 111.848 12.0079C111.848 13.3692 112.531 14.836 112.56 16.1476C111.873 16.3316 112.379 16.4355 111.286 16.4419C109.371 16.4547 107.143 15.8789 107.143 17.5744C107.143 19.0396 108.569 20.1593 108.569 22.0004C107.736 22.0004 106.628 22.322 105.778 22.4883C102.478 23.1361 104.004 24.4654 105.603 26.5432C105.89 26.9175 106.003 27.0551 106.003 27.7125C105.681 27.7397 102.013 28.941 102.013 30.7101C102.013 31.3963 104.863 32.8056 104.863 34.1364C104.863 35.1457 101.301 35.6016 101.301 37.5627C101.301 38.5464 104.863 39.5782 104.863 40.8466C104.863 41.728 102.155 42.9389 102.155 44.4153C102.155 45.4694 103.126 45.575 103.883 45.8245C104.724 46.1028 106.168 46.194 106.2 47.3009C106.213 47.7664 105.553 48.347 105.291 48.6973C104.375 49.9226 103.249 50.7528 104.751 51.8069L105.773 52.2116C106.64 52.3747 107.73 52.6947 108.569 52.6947C108.882 53.8671 109.253 52.7426 107.859 55.8378C107.814 55.937 107.356 56.9943 107.348 57.0391C107.258 57.5078 107.643 57.9429 107.857 58.2628L111.57 58.2564C112.466 58.3124 111.87 58.3635 112.561 58.5491C112.547 59.2369 111.156 63.4038 112.561 63.4038C113.92 63.4038 115.385 62.7192 116.694 62.6904C117.056 63.6933 117.425 62.5928 117.408 64.8306C117.4 65.7824 117.406 66.7357 117.406 67.6875C118.556 68.4585 119.298 68.0058 120.542 67.4011C121.005 67.1756 121.928 66.7005 122.537 66.6877C122.537 67.5003 122.84 68.5576 123 69.3654C123.49 71.8527 123.939 71.6688 126.141 70.0132C126.755 69.551 127.27 68.8983 128.095 68.8296C128.636 69.8549 129.055 73.2556 130.661 73.2556C131.327 73.2556 132.01 72.2702 132.534 71.8495C133.12 71.3809 133.938 70.4003 134.652 70.4003C135.072 70.4003 134.894 70.4723 135.084 70.6803L136.018 72.1711C137.218 74.0042 137.839 74.5448 139.185 72.371C139.464 71.9183 140.236 70.837 140.352 70.3987C141.189 70.3987 141.069 70.3124 141.539 70.781C142.886 72.1311 144.866 74.8487 145.931 71.56C146.115 70.9922 146.572 69.8789 146.624 69.2566C147.193 69.2438 147.153 69.1911 147.48 68.9703C150.273 70.8434 150.642 72.2814 152.01 70.3667C152.632 69.4982 152.333 66.3998 153.609 66.3998C154.482 66.3998 156.18 67.7306 157.088 67.9098C157.633 68.017 157.844 67.6667 158.311 67.5419C158.311 66.0159 157.906 63.0151 159.167 62.6872C159.691 62.5512 163.871 64.21 163.871 62.6872C163.871 60.427 161.663 57.7925 165.152 57.8309C166.15 57.8421 167.15 57.8325 168.148 57.8325C169.302 56.1049 167.597 54.9021 167.15 52.9778C167.779 52.0372 168.395 52.2276 169.465 52.0132C172.667 51.3718 172.831 51.4006 170.407 48.1439C170.284 47.9791 170.24 47.9119 170.104 47.7344C169.962 47.552 169.842 47.4129 169.716 47.2657C170.307 46.1492 170.417 46.4243 172.263 45.8213C173.031 45.5702 173.727 45.351 173.981 44.5224L174.018 43.9226C173.963 43.5867 172.729 42.6189 172.445 42.3918C172.055 42.0799 171.974 42.0127 171.605 41.6624C171.103 41.1857 170.351 40.8434 171.135 40.122L172.624 39.1863C173.502 38.6072 174.276 38.5208 174.276 37.2716C174.276 36.1663 173.685 35.9327 172.804 35.4625C171.766 34.909 170.856 34.7107 170.856 33.8437C170.856 33.1559 173.564 31.3915 173.564 30.7037C173.564 28.9602 172.234 28.9682 170.656 28.4755C169.989 28.2676 169.54 28.146 169.519 27.3878C169.511 27.0967 169.548 27.1463 169.74 26.8855C171.009 25.1676 172.745 24.0847 170.886 22.8194C170.69 22.6867 171.003 22.829 170.628 22.6499C169.914 22.3092 167.835 21.9925 167.151 21.9925C166.859 20.8983 166.519 21.7925 167.581 19.4251C169.507 15.1303 167.178 16.7698 163.999 16.4403C163.134 16.3508 163.619 16.5683 163.445 16.1396C163.087 15.9957 163.217 16.17 163.191 15.7493C163.151 15.1383 163.49 14.2617 163.624 13.6059C163.672 13.3692 163.871 12.571 163.857 12.2894C163.75 10.2564 160.497 11.9663 159.027 11.9999C158.875 11.5808 158.572 11.6688 158.383 11.2161C158.23 10.8482 158.31 10.2804 158.313 9.85969C158.321 8.90794 158.315 7.9546 158.315 7.00285C156.432 5.73919 155.089 7.95939 153.184 8.00258C153.184 7.19 152.881 6.13428 152.721 5.3265C152.231 2.83916 151.782 3.02311 149.58 4.67867C148.965 5.14095 148.451 5.79197 147.626 5.86075C147.121 4.90741 146.861 2.96553 146.233 2.11615C146.045 1.86182 145.435 1.43474 145.061 1.43474C144.395 1.43474 143.712 2.42007 143.187 2.84076C140.737 4.80504 141.206 5.04337 139.42 2.08736C138.728 0.942067 138.701 0.719727 136.937 0.719727C136.807 1.2044 135.691 2.87275 135.378 3.4406C135.179 3.8021 135.108 4.28837 134.656 4.28837L134.653 4.29797Z" fill="black" stroke="#FEFEFE" stroke-width="0.944376" stroke-miterlimit="22.9256"/>
<path fill-rule="evenodd" clip-rule="evenodd" d="M138.863 99.4326C133.4 96.2782 128.57 103.969 134.218 106.589L134.653 106.864C134.393 107.238 133.996 110.335 133.984 111.037C133.956 112.648 133.908 114.209 133.989 115.831C134.138 118.816 134.697 122.148 134.652 125.115C133.413 125.115 132.788 125.237 131.894 125.704C131.375 125.976 130.288 126.832 130.468 127.676C130.534 127.985 130.644 127.98 130.768 128.15C131.097 128.598 130.872 129.421 132.167 129.338C132.991 129.285 133.804 128.591 134.554 128.31L134.15 134.695C133.828 138.437 133.956 143.272 135.461 146.628C136.087 148.021 137.106 149.555 138.264 150.581C137.413 151.324 134.417 152.937 135.742 154.872C135.976 155.213 135.977 155.061 136.241 155.24C136.506 155.421 136.929 156.4 138.197 155.773C139.045 155.354 139.688 154.677 140.383 154.13C142.443 152.508 142.554 153.537 145.877 154.3C150.088 155.266 155.172 155.25 159.382 154.192C160.966 153.794 162.133 153.348 163.508 152.666C165.036 151.908 166.253 157.423 169.069 154.706C170.748 153.087 167.931 150.883 167.1 150.136C168.233 148.85 168.969 147.96 169.748 146.186C171.358 142.522 171.663 138.769 171.663 134.697C171.663 133.582 171.568 132.489 171.567 131.442C171.565 130.391 171.388 129.274 171.377 128.279C171.623 128.372 173.954 130.096 174.492 128.43C174.62 128.035 174.479 128.21 174.722 127.895C174.901 127.663 174.989 127.683 175.009 127.318C175.054 126.558 174.189 125.8 173.657 125.515C172.83 125.072 172.285 124.959 171.185 124.869L171.025 115.027C170.952 114.32 170.946 113.397 170.907 112.666C170.826 111.138 170.634 109.719 170.368 108.214C170.235 107.462 170.024 106.789 169.906 106.052C174.118 104.657 173.403 99.1702 169.437 98.0313C167.715 97.5371 166.673 98.3129 165.638 98.7687C165.239 98.5016 164.897 98.1865 164.429 97.8842C163.929 97.5611 163.56 97.3867 163.008 97.0988C162.085 96.6173 160.908 96.2366 159.83 95.9743C154.345 94.6387 146.567 95.0929 141.507 97.689C140.37 98.2713 139.782 98.7943 138.864 99.4326H138.863Z" stroke="#FEFEFE" stroke-width="1.32275" stroke-miterlimit="22.9256"/>
<path fill-rule="evenodd" clip-rule="evenodd" d="M138.863 99.4326C133.4 96.2782 128.57 103.969 134.218 106.589L134.653 106.864C134.393 107.238 133.996 110.335 133.984 111.037C133.956 112.648 133.908 114.209 133.989 115.831C134.138 118.816 134.697 122.148 134.652 125.115C133.413 125.115 132.788 125.237 131.894 125.704C131.375 125.976 130.288 126.832 130.468 127.676C130.534 127.985 130.644 127.98 130.768 128.15C131.097 128.598 130.872 129.421 132.167 129.338C132.991 129.285 133.804 128.591 134.554 128.31L134.15 134.695C133.828 138.437 133.956 143.272 135.461 146.628C136.087 148.021 137.106 149.555 138.264 150.581C137.413 151.324 134.417 152.937 135.742 154.872C135.976 155.213 135.977 155.061 136.241 155.24C136.506 155.421 136.929 156.4 138.197 155.773C139.045 155.354 139.688 154.677 140.383 154.13C142.443 152.508 142.554 153.537 145.877 154.3C150.088 155.266 155.172 155.25 159.382 154.192C160.966 153.794 162.133 153.348 163.508 152.666C165.036 151.908 166.253 157.423 169.069 154.706C170.748 153.087 167.931 150.883 167.1 150.136C168.233 148.85 168.969 147.96 169.748 146.186C171.358 142.522 171.663 138.769 171.663 134.697C171.663 133.582 171.568 132.489 171.567 131.442C171.565 130.391 171.388 129.274 171.377 128.279C171.623 128.372 173.954 130.096 174.492 128.43C174.62 128.035 174.479 128.21 174.722 127.895C174.901 127.663 174.989 127.683 175.009 127.318C175.054 126.558 174.189 125.8 173.657 125.515C172.83 125.072 172.285 124.959 171.185 124.869L171.025 115.027C170.952 114.32 170.946 113.397 170.907 112.666C170.826 111.138 170.634 109.719 170.368 108.214C170.235 107.462 170.024 106.789 169.906 106.052C174.118 104.657 173.403 99.1702 169.437 98.0313C167.715 97.5371 166.673 98.3129 165.638 98.7687C165.239 98.5016 164.897 98.1865 164.429 97.8842C163.929 97.5611 163.56 97.3867 163.008 97.0988C162.085 96.6173 160.908 96.2366 159.83 95.9743C154.345 94.6387 146.567 95.0929 141.507 97.689C140.37 98.2713 139.782 98.7943 138.864 99.4326H138.863Z" fill="black"/>
<path fill-rule="evenodd" clip-rule="evenodd" d="M151.08 95.664C150.238 95.8144 149.245 95.856 148.413 95.9855C142.852 96.8493 138.007 98.8728 135.736 104.457C133.729 109.392 134.189 115.153 134.727 120.627C135.543 128.926 134.369 130.821 134.369 137.858C134.369 141.791 134.904 145.328 136.498 147.892C140.07 153.642 147.313 154.699 153.977 154.623C157.413 154.584 161.359 153.445 163.632 152.227C169.81 148.917 171.141 142.783 171.332 135.85C171.439 131.962 170.933 128.094 170.807 124.26C170.681 120.425 170.963 116.167 170.556 112.442C170.17 108.909 169.692 105.156 168.268 102.565C166.882 100.045 164.772 98.0762 161.822 96.9501C160.45 96.427 158.671 95.9887 156.931 95.8144C155.454 95.6656 152.493 95.4129 151.081 95.664H151.08Z" fill="#69D6E3"/>
<path fill-rule="evenodd" clip-rule="evenodd" d="M90.8964 130.64C91.0449 130.826 91.2334 131.347 91.3164 131.648C91.4537 132.15 91.5783 132.272 91.7587 132.737L94.0869 136.341C94.3407 136.64 94.5084 136.898 94.8038 137.165L96.0892 138.272C96.1068 138.285 96.1308 138.301 96.1483 138.312L100.268 140.697C100.725 140.905 100.982 140.908 101.434 141.063C104.024 141.952 106.512 142.037 109.207 141.684C110.499 141.514 111.621 141.218 112.902 140.884C113.783 140.654 116.813 139.28 117.552 138.745L119.328 137.462C119.696 137.203 120.551 136.615 120.942 136.101C121.553 135.301 122.377 134.729 122.943 133.887L123.211 133.574C123.829 132.79 124.346 131.931 124.824 131.066L126.337 127.321C126.896 125.682 127.109 122.284 126.901 120.537C126.558 117.645 126.502 118.44 126.147 116.786C126.02 116.191 125.482 115.145 125.239 114.633C124.616 113.322 123.42 111.719 122.277 110.793C122.072 110.628 122.262 110.825 122.068 110.625C121.918 110.47 122.042 110.57 121.9 110.41C121.753 110.244 121.724 110.25 121.531 110.107C121.378 109.993 121.26 109.894 121.097 109.775C121.079 109.763 121.057 109.747 121.039 109.735L118.58 108.171C118.558 108.163 118.532 108.153 118.51 108.144L117.242 107.586C116.816 107.429 116.605 107.238 116.169 107.143C115.296 106.951 114.528 106.634 113.616 106.634C112.044 106.634 111.184 106.304 109.327 106.565C108.303 106.709 107.393 106.771 106.353 107.01C106.017 107.087 105.7 107.095 105.368 107.176C104.725 107.336 104.274 107.544 103.599 107.71C103.257 107.795 102.296 108.206 101.969 108.366L100.062 109.337C99.7475 109.521 99.9631 109.422 99.7268 109.575C99.5798 109.67 99.7252 109.583 99.5479 109.675L98.9571 110.055C98.8038 110.169 98.7591 110.179 98.6202 110.278L97.5056 111.178C96.2872 112.141 96.1723 112.517 95.3387 113.325L92.7376 117.034C91.9184 118.877 91.9998 118.14 91.1455 120.694C86.9428 120.726 82.7288 120.696 78.526 120.696C77.5935 120.696 76.308 120.513 75.6071 120.955C75.0833 121.284 75.3356 121.358 75.0035 121.887C74.5116 122.676 74.0438 123.625 73.7276 124.531C73.4705 125.269 72.1947 127.171 73.0043 127.779C73.5312 128.175 74.3615 127.99 74.9891 127.99H82.5116C82.344 128.498 81.6222 129.357 81.2502 129.762L81.033 130.023C80.8398 130.231 80.9611 130.09 80.8334 130.208L77.9783 132.227C77.4418 132.397 77.1272 132.621 76.6051 132.67C75.2142 132.803 74.6809 132.812 73.2566 132.697C72.6035 132.645 71.0242 132.033 70.4685 131.557L69.7452 130.939C69.5727 130.759 69.4913 130.667 69.3252 130.507C68.8462 130.047 68.3751 129.333 68.134 128.729L67.9568 128.345C67.4841 127.356 67.2462 125.602 67.3819 124.41C67.5001 123.367 67.6534 122.401 68.0446 121.497L68.5811 120.32C68.6658 120.174 68.6338 120.214 68.7105 120.073L71.8945 116.746C71.9679 116.695 71.9057 116.729 72.051 116.614C73.1751 115.723 74.4574 115.3 75.8562 115.073C76.843 114.913 78.7384 115.123 79.5911 115.537C80.7775 116.113 80.7855 116.115 81.7787 116.881C82.1843 117.193 82.7208 118.141 83.2142 118.25C83.7523 118.368 85.8968 117.484 86.6585 117.362C87.1727 117.281 87.302 117.236 87.7843 117.063C88.2601 116.892 88.514 116.921 88.9595 116.796C89.2805 116.706 89.6797 116.526 90.0485 116.447C90.5755 116.334 90.7048 116.354 91.2158 116.182C91.5415 116.071 91.9407 115.977 92.1962 115.755C92.1819 115.152 91.6549 114.437 91.3898 113.866L90.8725 112.936C90.8629 112.917 90.8517 112.891 90.8405 112.874L89.116 110.681C88.6673 110.155 88.1052 109.692 87.5655 109.259C87.4729 109.184 87.4617 109.185 87.3499 109.096L85.9272 108.125C85.908 108.113 85.8825 108.102 85.8633 108.091C85.8378 108.077 85.7627 108.035 85.7388 108.021L84.3655 107.286C82.8278 106.477 79.6949 105.962 77.9528 106.021C77.3045 106.021 75.6709 106.125 75.0817 106.239C74.6649 106.32 74.2354 106.436 73.841 106.53C73.3077 106.659 73.0442 106.611 72.5077 106.815L71.318 107.171C70.5308 107.426 68.8206 108.289 68.051 108.678C67.7396 108.836 67.4234 109.065 67.0945 109.252L62.8231 112.928C62.6666 113.146 62.665 113.197 62.4925 113.374L59.6805 117.561C59.3931 118.093 59.0801 118.626 58.9205 119.179C58.839 119.458 58.8263 119.49 58.7145 119.746C58.2195 120.878 57.9624 122.377 57.766 123.589C57.469 125.422 57.635 128.919 58.2051 130.619C58.3967 131.192 58.4877 131.72 58.7624 132.272L60.0079 134.751C60.059 134.822 60.0973 134.847 60.1771 134.962C60.8829 135.992 61.667 136.8 62.5468 137.691L66.047 140.11C66.526 140.415 66.5707 140.346 67.1057 140.59C70.0182 141.911 73.5695 142.173 76.7009 141.492C77.1528 141.394 77.5967 141.399 78.0118 141.282C78.4733 141.153 78.7384 141.004 79.1919 140.916C80.1691 140.729 82.0533 139.822 82.9923 139.27L86.5851 136.544C86.7879 136.276 86.7623 136.319 86.997 136.09C87.1711 135.922 87.2302 135.853 87.3931 135.714L87.714 135.372C87.7268 135.356 87.7443 135.333 87.7571 135.317C88.2505 134.722 89.1096 133.793 89.496 133.132L90.4254 131.664C90.6106 131.307 90.8166 131.013 90.9028 130.637L90.8964 130.64Z" fill="#69D6E3" stroke="#FEFEFE" stroke-width="0.755708" stroke-miterlimit="22.9256"/>
<path fill-rule="evenodd" clip-rule="evenodd" d="M109.08 115.155C107.734 115.436 106.969 115.457 105.658 116.198C105.609 116.226 105.39 116.338 105.342 116.359L105.138 116.436C105.02 116.484 105.069 116.449 104.938 116.524C104.745 116.634 104.846 116.607 104.601 116.772C104.494 116.844 104.375 116.9 104.24 116.989L103.592 117.481C103.464 117.594 103.421 117.669 103.31 117.767C102.784 118.228 103.016 117.922 102.522 118.602L102.249 118.898C101.978 119.178 102.176 118.951 102.018 119.245C101.84 119.576 101.448 119.886 101.106 120.736C101.098 120.756 101.088 120.784 101.08 120.804C101.072 120.825 101.063 120.852 101.055 120.872C100.619 121.942 100.274 122.609 100.098 124.018C99.8972 125.634 100.042 127.532 100.927 128.911C101.037 129.084 100.938 128.911 101.036 129.092L101.877 130.272C101.981 130.365 101.939 130.327 102.019 130.413L102.736 131.134C102.751 131.147 102.775 131.163 102.791 131.176C103.706 131.931 103.841 131.889 104.839 132.368C107.182 133.492 110.824 132.864 112.678 131.445C113.285 130.981 114.032 130.648 114.61 129.941C116.014 128.23 115.365 129.431 116.507 127.449L117.192 125.936C117.839 124.279 117.796 121.956 117.262 120.213C117.175 119.925 117.044 119.763 116.932 119.493C116.461 118.351 115.664 117.426 114.731 116.634L114.458 116.431C113.65 115.971 114.074 116.097 113.282 115.777C113.071 115.692 113.12 115.702 112.906 115.585C112.116 115.152 110.077 114.944 109.082 115.152L109.08 115.155Z" fill="#1E1E1E" stroke="#FEFEFE" stroke-width="0.755708" stroke-miterlimit="22.9256"/>
<path fill-rule="evenodd" clip-rule="evenodd" d="M158.32 98.5239C150.061 100.141 152.393 110.225 159.653 109.254C162.615 108.857 165.245 106.795 164.779 103.278C164.318 99.7812 161.264 97.9497 158.322 98.5255L158.32 98.5239Z" fill="black"/>
<path fill-rule="evenodd" clip-rule="evenodd" d="M144.174 99.1495C141.103 99.5734 138.588 101.734 139.018 105.135C139.399 108.149 141.961 110.348 145.512 109.839C153.284 108.728 151.744 98.1034 144.174 99.1495Z" fill="black"/>
<path fill-rule="evenodd" clip-rule="evenodd" d="M144.761 99.3946C141.708 99.7785 139.287 101.149 139.326 104.62C139.345 106.305 140.07 107.522 140.945 108.283C144.261 111.175 150.518 109.005 150.337 104.331C150.206 100.956 147.259 99.0795 144.761 99.3946Z" fill="white"/>
<path fill-rule="evenodd" clip-rule="evenodd" d="M158.599 98.8649C157.572 99.0537 157.408 98.9977 156.526 99.4184C154.775 100.253 153.31 102.048 153.395 104.332C153.449 105.777 154.419 107.144 155.219 107.776C158.594 110.438 165.012 108.53 164.475 103.385C164.153 100.287 161.39 98.3499 158.599 98.8649Z" fill="white"/>
<path fill-rule="evenodd" clip-rule="evenodd" d="M149.51 113.608C149.382 114.721 149.539 115.809 150.056 116.492C150.84 117.529 151.647 116.641 152.249 116.19C152.584 116.484 153.256 117.577 154.516 116.662C155.209 116.158 154.909 114.413 154.831 113.608C155.667 113.707 156.011 113.815 156.605 113.293C158.256 111.844 156.365 110.06 154.915 109.521C155.014 106.892 150.622 107.176 150.026 109.003C149.644 110.171 150.05 109.222 148.978 109.968C148.555 110.26 148.252 110.686 148.078 111.161C147.637 112.356 148.351 113.56 149.512 113.607L149.51 113.608Z" fill="black"/>
<path fill-rule="evenodd" clip-rule="evenodd" d="M32.5652 121.154C33.2055 121.348 51.4234 121.148 54.1444 121.156C54.8134 121.158 54.8166 121.153 55.045 120.566C55.128 120.353 55.4937 119.467 55.0003 119.467H34.154C33.3891 119.467 33.5249 119.728 32.8318 120.641C32.5716 120.983 32.5412 120.758 32.5636 121.154H32.5652Z" fill="#69D6E3" stroke="#FEFEFE" stroke-width="0.378373" stroke-miterlimit="22.9256"/>
<path fill-rule="evenodd" clip-rule="evenodd" d="M39.4648 116.88L56.6369 116.899C56.8684 116.609 57.6157 115.638 57.5295 115.197C56.9498 115.019 45.0824 115.139 42.7606 115.139C42.1171 115.139 40.8828 115.022 40.4916 115.371C40.4309 115.426 40.0365 115.957 39.9487 116.08L39.8369 116.248C39.8177 116.273 39.5367 116.508 39.4648 116.881V116.88Z" fill="#69D6E3" stroke="#FEFEFE" stroke-width="0.378373" stroke-miterlimit="22.9256"/>
<path fill-rule="evenodd" clip-rule="evenodd" d="M165.922 98.967C166.25 99.4964 166.952 99.9251 167.352 100.605C168.321 100.485 168.73 100.416 169.178 101.165C169.633 101.925 169.426 102.369 168.907 102.99C168.996 103.396 169.201 103.884 169.362 104.337L169.843 105.701C171.797 105.197 173.293 102.787 171.813 100.25C171.316 99.3972 170.413 98.6486 169.386 98.3703C167.661 97.9048 166.823 98.6614 165.921 98.967H165.922Z" fill="#69D6E3"/>
<path fill-rule="evenodd" clip-rule="evenodd" d="M149.954 109.879C148.766 110.052 147.676 111.664 148.605 112.865C149.461 113.971 151.077 112.586 152.728 112.586C154.149 112.586 155.573 114.283 156.666 112.774C157.62 111.455 155.714 110.073 154.7 109.778C154.135 110.658 152.214 110.903 150.992 110.573C150.401 110.413 150.345 110.223 149.954 109.879Z" fill="#F5D1A1"/>
<path fill-rule="evenodd" clip-rule="evenodd" d="M134.631 106.432L135.415 104.332C134.743 103.953 133.844 103.323 134.424 102.184C135.043 100.97 135.913 101.538 136.848 101.739C137.319 100.816 138.165 100.288 138.575 99.6373C137.395 99.191 136.683 98.7112 135.126 99.1526C132.491 99.8996 130.738 103.539 133.267 105.625C133.782 106.048 134.213 106.111 134.631 106.431V106.432Z" fill="#69D6E3"/>
<path fill-rule="evenodd" clip-rule="evenodd" d="M43.6387 125.435C43.6626 125.448 43.6994 125.437 43.7121 125.467L46.2031 125.558C47.0957 125.566 47.9884 125.573 48.881 125.582C49.2243 125.586 53.6235 125.685 53.9173 125.578C54.4331 125.389 54.2638 124.856 54.2414 123.772L45.0486 123.751C44.5473 123.762 44.4227 123.793 44.1385 124.389C43.9405 124.805 43.6802 125.16 43.6387 125.435Z" fill="#69D6E3" stroke="#FEFEFE" stroke-width="0.378373" stroke-miterlimit="22.9256"/>
<path fill-rule="evenodd" clip-rule="evenodd" d="M136.201 154.893C136.463 154.519 137.008 153.167 137.364 153.14C137.404 153.182 137.552 153.175 137.396 153.517C137.233 153.876 135.858 155.346 137.285 155.623C138.069 155.774 139.455 154.466 139.981 154.018C140.382 153.677 140.81 153.351 141.311 153.15L141.843 152.897C141.091 152.63 139.631 151.704 138.978 151.15C138.454 150.705 138.426 150.904 137.977 151.24C137.016 151.958 134.901 153.249 136.203 154.893H136.201Z" fill="#F5D1A1"/>
<path fill-rule="evenodd" clip-rule="evenodd" d="M164.251 152.227L166.074 154.189C166.949 155.253 167.491 155.349 168.404 154.807L167.548 152.895C168.327 152.935 168.279 154.004 168.696 154.527C169.63 153.941 169.127 152.834 168.621 152.108C167.976 151.182 167.316 150.861 166.917 150.406C166.303 150.649 165.472 151.716 164.249 152.227H164.251Z" fill="#F5D1A1"/>
<path fill-rule="evenodd" clip-rule="evenodd" d="M131.856 127.538C131.887 127.911 131.802 127.933 131.455 128.135L131.273 128.242C131.261 128.25 131.232 128.266 131.213 128.281C131.599 129.61 132.685 128.928 133.6 128.373C133.887 128.199 134.242 128.095 134.47 127.901C134.668 127.663 134.384 128.255 134.552 127.695C134.556 127.682 134.62 127.399 134.622 127.39C134.659 127.154 134.657 126.99 134.659 126.751C134.66 126.313 134.675 125.867 134.633 125.43C131.103 125.36 130.188 128.015 131.176 127.868C131.657 127.797 131.355 127.569 131.858 127.54L131.856 127.538Z" fill="#F5D1A1"/>
<path fill-rule="evenodd" clip-rule="evenodd" d="M141.837 102.969C140.866 103.181 140.183 103.841 140.368 105.1C140.496 105.962 141.341 106.784 142.336 106.57C144.566 106.089 143.806 102.541 141.837 102.969Z" fill="black"/>
<path fill-rule="evenodd" clip-rule="evenodd" d="M157.796 104.428C157.796 101.747 154.457 102.023 154.48 104.329C154.502 106.773 157.796 106.631 157.796 104.428Z" fill="black"/>
<path fill-rule="evenodd" clip-rule="evenodd" d="M171.37 127.897C172.121 128.206 172.534 128.759 173.478 128.759C174.069 128.759 174.088 128.575 174.243 128.087C173.885 127.7 173.61 127.911 173.572 127.321C174.121 127.369 174.051 127.763 174.57 127.619C175.102 126.232 172.601 125.214 171.182 125.213L171.368 127.895L171.37 127.897Z" fill="#F5D1A1"/>
<path fill-rule="evenodd" clip-rule="evenodd" d="M154.518 113.459C153.763 113.199 153.569 112.972 152.611 112.927C152.434 114.307 152.126 116.171 153.291 116.614C153.6 116.731 153.878 116.625 154.152 116.484C154.543 116.284 154.543 116.159 154.593 115.686C154.655 115.089 154.55 114.112 154.519 113.459H154.518Z" fill="white"/>
<path fill-rule="evenodd" clip-rule="evenodd" d="M151.007 116.593C151.256 116.593 151.647 116.28 151.794 116.136C152.152 115.784 152.038 115.475 152.054 114.869L152.152 112.941C151.607 113.029 151.251 113.204 150.751 113.362C149.996 113.6 149.844 113.341 149.801 114.211C149.75 115.251 150.058 116.593 151.007 116.593Z" fill="white"/>
</g>
<defs>
<clipPath id="clip0_1013_232">
<rect width="175" height="157" fill="white"/>
</clipPath>
</defs>
</svg>
