<?xml version="1.0" encoding="UTF-8"?>
<!DOCTYPE svg PUBLIC "-//W3C//DTD SVG 1.1//EN" "http://www.w3.org/Graphics/SVG/1.1/DTD/svg11.dtd">
<!-- Creator: CorelDRAW 2021 (64-Bit) -->
<svg xmlns="http://www.w3.org/2000/svg" xml:space="preserve" width="12.5834mm" height="12.6919mm" version="1.1" style="shape-rendering:geometricPrecision; text-rendering:geometricPrecision; image-rendering:optimizeQuality; fill-rule:evenodd; clip-rule:evenodd"
viewBox="0 0 198.49 200.2"
 xmlns:xlink="http://www.w3.org/1999/xlink"
 xmlns:xodm="http://www.corel.com/coreldraw/odm/2003">
 <defs>
  <style type="text/css">
   <![CDATA[
    .fil0 {fill:#275C87}
    .fil2 {fill:#3479B3}
    .fil1 {fill:#BF9816}
    .fil3 {fill:#FDC91D}
    .fil4 {fill:#FEFEFD}
   ]]>
  </style>
 </defs>
 <g id="Capa_x0020_1">
  <metadata id="CorelCorpID_0Corel-Layer"/>
  <path class="fil0" d="M46.9 28.92c0,3.09 -1.35,13.4 3.35,13.4l40.62 0 0 5.03 -57.37 0c-6.14,0 -11.21,2.12 -15.36,4.32 -9.07,4.81 -13.43,14.33 -15.71,24.07 -2.33,9.94 -2.43,13.46 -2.43,23.53 0,9.5 3.56,25.03 6.98,31.12 9.62,17.15 21.39,14.94 38.66,14.94 9.98,0 0.14,-22.28 7.4,-35.31 4.12,-7.38 11.4,-12.06 20.23,-12.01 13.01,0.07 44.84,1.15 52.41,-1.61 5.65,-2.06 8.89,-4.68 12.38,-8.98 2.97,-3.66 5.57,-9.75 5.57,-16.21l0 -41.88c0,-10.26 -6.42,-19.3 -14.93,-23.6 -6.91,-3.49 -15.41,-4.86 -23.59,-5.3 -1.62,-0.09 -3.4,0.09 -5.03,0 -5.08,-0.27 -2.11,-0.82 -8.85,-0.06 -1.59,0.18 -3.36,0.03 -4.98,0.04 -6.42,0.08 -18.72,2.28 -24.4,4.5 -9.96,3.89 -14.95,10.37 -14.95,24z"/>
  <path class="fil1" d="M54.44 130.26l0 36.43c0,19.84 13.13,26.83 29.06,30.82 2.73,0.69 5.75,1.38 8.33,1.72 3.03,0.4 6.35,0.57 9.16,0.9 3.39,0.39 14.42,-1.04 17.77,-1.79 5.85,-1.31 10.39,-2.59 15.37,-4.72 3.67,-1.57 9.44,-5.63 11.61,-8.49 6.39,-8.42 5.44,-12.68 5.44,-23.46 0,-2.61 -1.2,-4.61 -3.77,-4.61l-40.2 0 0 -5.03 61.14 0c12.37,0 18.28,-6.41 22.47,-14.79 5.87,-11.74 7.68,-21.4 7.68,-35.46 0,-10.05 -3.32,-24.09 -6.4,-31.29 -8.33,-19.49 -22.05,-16.45 -40.08,-16.45 -3.68,0 -3.8,3.05 -3.77,6.7 0.11,16.35 2.05,31.62 -15.36,39.08 -5.14,2.2 -13.07,1.55 -20.23,1.55 -7.26,0 -14.52,0 -21.77,0 -13.74,0 -22.56,-0.61 -31.65,11.9 -3.03,4.16 -4.78,9.98 -4.78,17z"/>
  <path class="fil2" d="M55.47 34.01c11.24,0 22.49,0 33.73,0 6.66,-0 10.33,-1.18 10.31,6.19 -0.01,4.47 1.27,13.21 -2.05,14.97 -3.66,1.94 -56.79,-0.62 -66.9,0.9 -9.3,1.4 -15.48,7.74 -18.31,15.65 -5.62,15.7 -5.28,43.02 3.45,56.65 5.7,8.91 12.62,8.42 25.91,8.42 0,-15.53 -1.6,-23.03 6.3,-34.44 6.15,-8.88 16.25,-13.04 27.48,-13.02 13.53,0.02 27.1,0.1 40.62,0.01 6.69,-0.05 11.68,-2.62 14.54,-6.11 4.05,-4.94 4.57,-8.03 4.56,-15.79 -0.01,-6.84 0.37,-36.22 -0.17,-40.37 -0.79,-6.06 -4.38,-9.85 -8.01,-12.44 -11.19,-7.98 -40.95,-6.51 -53.58,-4.07 -15.9,3.07 -17.88,6.48 -17.88,23.45z"/>
  <path class="fil3" d="M142.73 165.47c-10.43,-0.71 -23.17,-0.08 -33.86,-0.08 -6.71,0 -10.14,1.1 -10.11,-6.66 0.02,-4.38 -1.21,-13.37 2.37,-14.86 2.56,-1.07 59.39,-0.26 67.63,-0.41 10.76,-0.2 14.14,-7.77 17.2,-16.52 3.5,-10.02 4.9,-17.87 3.81,-29.44 -0.76,-8.12 -3.39,-20.92 -7.04,-26.87 -6.01,-9.82 -12.29,-8.24 -26.1,-8.2 -0.39,14.83 1.77,23.35 -6.37,34.25 -5.74,7.7 -13.9,13.22 -27.99,13.22 -13.64,-0 -27.43,-0.2 -41.05,-0 -6.98,0.1 -10.69,3.03 -13.8,6.55 -4.03,4.57 -4.33,9.13 -4.33,16.32 0,6.36 -0.47,37.02 0.43,40.75 2.28,9.41 13.91,14.09 24.64,16.39 14.55,3.12 38.59,1.46 49.75,-8.84 4.25,-3.92 4.83,-8.09 4.83,-15.59z"/>
  <path class="fil4" d="M121.54 169.95c-10,3.33 -5.26,18.48 4.96,15.19 9.52,-3.07 5.24,-18.58 -4.96,-15.19z"/>
  <path class="fil4" d="M69.09 14.51c-10.07,1.95 -7.65,18.19 3.3,15.68 9.64,-2.21 6.98,-17.67 -3.3,-15.68z"/>
 </g>
</svg>
