<?xml version="1.0" encoding="UTF-8"?>
<!DOCTYPE svg PUBLIC "-//W3C//DTD SVG 1.1//EN" "http://www.w3.org/Graphics/SVG/1.1/DTD/svg11.dtd">
<!-- Creator: CorelDRAW 2021 (64-Bit) -->
<svg xmlns="http://www.w3.org/2000/svg" xml:space="preserve" width="12.7183mm" height="12.6621mm" version="1.1" style="shape-rendering:geometricPrecision; text-rendering:geometricPrecision; image-rendering:optimizeQuality; fill-rule:evenodd; clip-rule:evenodd"
viewBox="0 0 198.7 197.82"
 xmlns:xlink="http://www.w3.org/1999/xlink"
 xmlns:xodm="http://www.corel.com/coreldraw/odm/2003">
 <defs>
  <style type="text/css">
   <![CDATA[
    .fil5 {fill:#0DA4EA}
    .fil8 {fill:#2890DE}
    .fil0 {fill:#417ED4}
    .fil1 {fill:#5E69C8}
    .fil6 {fill:#7459BE}
    .fil3 {fill:#9242B1}
    .fil2 {fill:#AB30A7}
    .fil7 {fill:#C61C9B}
    .fil4 {fill:#E10891}
   ]]>
  </style>
 </defs>
 <g id="Capa_x0020_1">
  <metadata id="CorelCorpID_0Corel-Layer"/>
  <g id="_1422417824016">
   <g>
    <path class="fil0" d="M37.61 65.14l-0.01 8.1c1.78,1.53 5.94,3.39 8.23,4.71 1.33,0.77 2.64,1.42 4.1,2.29 1.67,1 3.07,1.39 4.02,2.81 -1.53,0.35 -8.73,4.7 -11.38,6.11 -1.13,0.6 -1.28,0.82 -2.42,1.42l-4.55 2.35c0.86,1.07 0.2,-0.83 0.73,1.61 0.06,0.29 0.07,1.78 0.07,2.15 -0.02,1.43 -0.03,2.84 -0.03,4.27 1.06,-1.08 8.6,-5.08 10.32,-5.97l5.46 -3.07c1.13,-0.69 4.51,-2.64 5.63,-2.9l0 21.75c-5.37,-3.59 -10.91,-9.75 -13.83,-5.27 -2.15,3.3 1.43,5.06 3.28,6.43l5.47 3.89c0.64,0.73 0.35,0.16 0.44,0.92 -0.68,1.09 -0.65,4.61 -0.45,5.99 0.13,0.9 -0.12,-0.11 0.19,0.84 0.36,1.12 0.02,0.45 0.63,1.2 2.18,-1.48 4.25,-2.64 6.4,-3.77 1.19,0.8 1.98,1.44 3.24,2.3 1.35,0.93 2.22,1.66 3.58,2.39l0 -8.53c-2.29,-1.53 -1.74,-1.91 -1.71,-5.54l-0.03 -28.98c-0.32,-2.46 -1.58,-2.86 -3.35,-3.9 -1.49,-0.87 -3.07,-1.66 -4.64,-2.61 -1.07,-0.65 -3.7,-2.19 -4.77,-2.48 0.31,-1.16 0.52,-1.05 1.32,-1.67l13.18 -9.84 0.01 -8.53 -10.6 7.74c-1.87,1.41 -3.43,2.57 -5.36,4.02 -1.86,1.39 -3.59,2.83 -5.36,4.02 -1.16,-0.27 -7.02,-3.56 -7.81,-4.27z"/>
    <path class="fil1" d="M66.75 125.71c0.43,0.38 0.85,0.75 1.39,1.17l8.5 6c1.05,0.72 2.67,1.75 3.33,2.64l-8.25 4.55c-3.91,2.08 -5.03,1.89 -4.98,7.81 0.07,8.52 0.01,17.07 0.01,25.6 -0,8.48 -1.06,6.17 12.08,13.52l12.32 6.87c1.06,0.64 3.21,1.59 3.86,2.22l-0.01 -7.68c-0.58,-1.15 -5.52,-3.52 -6.92,-4.27l-0.01 -9.4c0.22,-1.98 0.1,-0.88 1.15,-2.26 2.33,-3.05 0.15,-7.41 -2.59,-8.23 -4.12,-1.23 -7.34,1.87 -7.46,4.99 -0.1,2.49 1.36,3.17 1.87,4.46 0.61,1.57 0.22,4.75 0.22,6.6 -2.64,-1.4 -5.04,-2.87 -7.68,-4.27l0 -25.17c2.44,1.29 10.12,5.66 11.66,5.97l-0.01 -7.68c-1.96,-1.08 -5.63,-3.43 -7.39,-3.84l0 -0.85c0.45,-0.12 10.33,-5.31 11.45,-6.4l0 -7.68c-3.09,0.77 -1.22,2 -6.09,-1.52l-16.45 -11.7 0 8.53z"/>
    <path class="fil2" d="M134.95 64.71l8.58 6.4c0.42,0.31 0.99,0.65 1.49,1.07 1.05,0.9 0.7,0.1 1.07,1.49l-9.11 4.97c-4.58,2.45 -3.69,3.93 -3.69,10.39 0,9.38 -0.04,18.77 0,28.15l0.08 7.59c0.19,0.95 -0,0.4 0.34,0.93l5.54 -4.26c1.61,0.85 3.57,1.91 5.2,2.9l16.34 9.04 -0.01 -7.68c-0.67,-0.95 -6.56,-4 -7.59,-4.55 -1.87,-1 -7.03,-3.56 -7.96,-4.83 1.21,-0.32 8.54,-6.05 9.13,-7.11 0.78,-1.41 0.67,-2.72 -0.25,-3.88 -2.54,-3.21 -5.31,-0.32 -7.23,1.12 -2.23,1.67 -4.03,3.21 -6.34,4.75l0 -22.18 12.86 6.82 0 -7.68c-0.8,-0.96 -8.01,-4.88 -9.03,-5.12l0 -0.85c1.92,-0.45 2.95,-1.37 4.56,-2.27 1.57,-0.87 3.02,-1.72 4.46,-2.42l-0.01 -8.1c-1.73,-0.44 -11.76,-8.46 -13.64,-9.87 -1.59,-1.2 -3.04,-2.48 -4.81,-3.35l0.01 8.53z"/>
    <path class="fil3" d="M116.85 129.97l0 12.8c1.4,0.56 2.48,1.4 3.64,1.71l-5.4 3.57c-3.19,1.78 -2.37,1.38 -5.26,-0.58l0.01 11.52c5.03,-2.72 9.84,-5.42 14.91,-8.1l0 8.53c-1.28,0.68 -8.24,4.75 -9.08,4.88 -0.01,0 -8.48,-1.07 -7.55,6.16 0.66,5.09 7.53,6.51 10.19,1.73 1.43,-2.57 -0.2,-1.15 6.43,-4.66l0 8.53c-1.61,0.85 -3.57,1.92 -5.2,2.9 -1.93,1.17 -3.27,1.74 -5.18,3.07l0 7.68c1.44,-0.29 11.17,-5.92 13.13,-7.07 5.31,-3.12 4.08,-1.66 4.08,-16.39 0,-6.69 0.03,-13.38 0.02,-20.07 -0,-4.44 -1.56,-4.18 -4.37,-5.86 -1.65,-0.99 -5.07,-3.1 -6.74,-3.49 0.42,-1.59 0.53,-1.14 2.93,-3.04l9.84 -7.65c0.06,-0.05 0.18,-0.16 0.23,-0.2 0.05,-0.04 0.15,-0.13 0.23,-0.2 -0.34,-0.53 -0.15,0.01 -0.34,-0.93l-0.08 -7.59c-2.88,1.92 -5.37,4.15 -8.23,6.28 -1.53,1.13 -2.59,2.05 -4.08,3.17 -1.33,0.99 -2.88,2.13 -4.13,3.35z"/>
    <path class="fil4" d="M175.2 75.8c1.29,0.81 10.35,6.05 11.83,6.4 -0.49,1.84 -0.77,1.07 -3.39,2.58 -1.37,0.78 -2.47,1.69 -4.29,2.11 -1.15,-0.77 -2.25,-1.32 -3.35,-2.13l0 12.37c2.51,-1.45 5.16,-2.81 7.64,-4.24 2.5,-1.44 5.14,-2.96 7.66,-4.29l0 8.96c-11.04,7.39 -10.86,2.74 -14.41,5.64 -5.64,4.61 0.69,12.56 6.32,8.88 4.39,-2.86 -3.32,-0.39 8.08,-6.42l0 8.53c-1.52,0.35 -2.45,1.21 -3.98,1.99l-11.3 6.54c-0.01,2.19 -0.53,6.1 0.36,7.61 3.12,-1.36 5.6,-3.12 8.53,-4.63 1.58,-0.82 12,-6.29 12.88,-7.59 1.41,-2.06 0.77,-16.66 0.77,-19.71 0,-20.57 2.06,-16.42 -10.37,-23.32l-8.74 -4.91c-1.6,-0.97 -2.84,-1.38 -4.26,-2.48l0.02 8.1z"/>
    <path class="fil3" d="M108.55 12.29c0.79,0.99 4.34,2.71 5.83,3.51 1.59,0.85 4.59,2.86 6.11,3.27l0 0.85c-2.64,0.62 -4.34,2.74 -7.25,3.41 -1.07,-0.72 -1.92,-1.36 -3.4,-1.71l0 11.94c5.03,-2.72 9.84,-5.42 14.91,-8.1l0 22.18c-4.18,-0.97 -10.22,-10.13 -13.82,-5.71 -2.58,3.16 0.99,5.49 2.61,6.69 1.71,1.27 5.09,3.5 6.09,4.99l-9.79 5.54 -0.01 7.68c1.66,-0.39 6.22,-3.29 8.09,-4.26 1.35,-0.7 2.42,-1.4 3.84,-2.13 6.09,-3.15 2.51,-3.45 13.17,4.26l-0.01 -8.53c-0.64,-0.99 -2.21,-1.95 -3.36,-2.56 0,-5.23 0.64,-32.46 -0.16,-35.24 -0.82,-2.83 -15.79,-9.76 -19.28,-11.86 -1.24,-0.75 -1.61,-1.15 -3.12,-1.52l-0.02 5.96c-0.02,0.13 -0.05,0.26 -0.07,0.37l-0.23 0.66c-0.02,-0.06 -0.08,0.21 -0.14,0.31z"/>
    <path class="fil5" d="M23.21 130.82l0.01 -7.68 -1.68 -0.85c0,-2.13 0.01,-4.27 -0,-6.4 -0.02,-3.32 -0.42,-3.19 1.02,-5.38 5.42,-8.22 -9.89,-11.81 -9.98,-3.15 -0.02,2.47 1.38,2.94 1.92,4.48 0.6,1.72 0.21,4.28 0.21,6.19 -2.14,-0.57 -5.46,-3.32 -7.68,-3.84l0 -25.59 16.19 8.96 -0.01 -7.68 -6.09 -3.7c-1.36,-0.69 -1.71,-1.04 -2.99,-1.7 -1.62,-0.84 -2.41,-0.64 -2.84,-2.28 5.54,-1.29 5.25,-5.48 9.85,-2.56l0.02 -10.66c-3.02,1.48 -5.69,3.2 -8.59,4.69 -1.53,0.79 -2.52,1.4 -4.12,2.28 -10.54,5.76 -8.25,1.97 -8.25,25.02 0,4.41 0.01,8.83 -0.02,13.24 -0.04,5.6 2.28,4.93 10.07,9.55 1.58,0.94 2.85,1.54 4.37,2.46 1.42,0.86 2.61,1.41 4.1,2.3 1.23,0.73 3.28,2.02 4.48,2.31z"/>
    <path class="fil6" d="M80.76 21.2l0 7.68c0.36,0.79 -0.42,-0.22 0.41,0.59l2.93 1.69c2.44,1.3 9.63,5.78 11.66,6.26l0 25.59 -11.75 -6.4 0.01 7.68 12.28 7.13c4.18,2.37 5.03,0.12 10.4,-2.58 1.56,-0.79 1.95,-0.97 3.14,-1.99l0.01 -7.68c-1.54,0.4 -5.62,2.97 -7.27,3.84l0 -25.59 7.27 -3.84 -0 -11.94c-1.51,-1.29 -2.25,-1.41 -3.96,-2.45 -2.65,-1.63 -2.47,-5.79 -7.52,-5.21 -5.92,0.68 -6.59,9.03 -0.98,10.75 3.04,0.94 2.28,-0.92 4.96,0.53 3.42,1.85 3.2,1.1 3.65,2.78 -5.22,1.22 -4.56,5.06 -9.63,1.96l-15.61 -8.78z"/>
    <path class="fil1" d="M66.75 53.62l-0.01 8.53c6.58,-4.33 3.4,-5.34 11.24,-0.99 1.72,0.95 4.18,2.77 6.04,3.12l-0.01 -7.68c-2.07,-1.34 -3.25,-1.89 -5.32,-2.99 2.65,-3.95 12.14,-6.49 8.89,-11.44 -3.01,-4.58 -8.43,2.74 -13.58,5.47 0,-7.49 -0.43,-14.3 -0.43,-22.18 2.1,1.11 5.47,3.13 7.18,3.41l0 -7.68c-1.27,-0.69 -1.6,-0.97 -2.92,-1.28l7.81 -4.98c2.69,-1.49 4.81,-2.81 7.54,-4.19 -0.89,-1.17 -0.68,-2.38 -0.65,-4.05 0.02,-1.28 0.01,-2.56 0.02,-3.84l-24.44 13.74c-1.85,1.63 -1.37,4.71 -1.37,8.01l0 29z"/>
    <path class="fil6" d="M85.23 149.17l0.01 7.68c0.3,0.6 -0.17,0.16 0.73,0.83l9.78 5.14 0 19.19c0,2.75 0.49,5.29 -0.76,6.4l0.01 7.68c1.56,0.87 3.38,2.24 5.67,1.55l13.08 -7.4c0.57,-0.44 0.33,-0.21 0.62,-0.54l0 -7.68 -11.8 6.4 0 -25.59 7.27 -3.84 -0.01 -11.52c-1.32,-0.87 -2.55,-1.52 -3.96,-2.45 -2.85,-1.89 -1.9,-5.89 -7.13,-5.67 -1.72,0.07 -3.34,1.21 -4.19,2.23 -2.5,3.01 -0.31,7.41 2.51,8.43 1.32,0.48 5.67,-0.43 8.5,3.42 -7.19,3.8 -4.51,5.03 -17.67,-2.81 -1.03,-0.61 -1.8,-0.89 -2.66,-1.46z"/>
    <path class="fil7" d="M153.41 88.17l0 7.68 4.22 2.54c1.5,0.86 3.19,1.8 4.67,2.58l0 25.17c-0.66,-0.37 -0.5,-0.24 -1.51,-0.43l0.01 7.68c5,3.18 5.87,3.16 14.57,-2.28l1 -0.77c-0.89,-1.51 -0.37,-5.42 -0.36,-7.61 -2.44,0.53 -4.5,2.85 -6.89,3.41l0 -25.17c2.27,-1.2 4.73,-2.52 6.89,-3.84l-0 -12.37c-6.79,-3.32 -4.54,-3.88 -6.53,-5.9 -6.19,-6.29 -13.23,5.84 -5.49,8.92 2.71,1.08 2.33,-0.57 4.69,0.8l3.86 2.58c-5.42,1.45 -4.09,5.23 -9.68,2l-9.45 -4.99z"/>
    <path class="fil8" d="M23.23 97.55l5.99 3.41 0 25.17c-2.12,-0.5 -3.92,-2.45 -5.99,-2.99l-0.01 7.68 7.28 4.29c3.3,1.53 4.1,-0.08 8.11,-2.15l14.93 -8.18c-0.61,-0.75 -0.27,-0.08 -0.63,-1.2 -0.31,-0.95 -0.05,0.05 -0.19,-0.84 -0.21,-1.38 -0.23,-4.9 0.45,-5.99l-8.31 4.55c-1.57,0.8 -2.82,1.54 -4.37,2.46 -1.64,0.97 -2.86,1.54 -4.45,2.38 0,-4.65 -0.63,-22.06 0.35,-25.17 -0,-1.43 0,-2.84 0.03,-4.27 0.01,-0.37 -0,-1.86 -0.07,-2.15 -0.53,-2.44 0.13,-0.53 -0.73,-1.61 -3.4,2.12 -2.7,2.21 -6.15,0.1 -1.16,-0.71 -1.88,-0.94 -3.05,-1.64 -1.29,-0.78 -1.6,-1.16 -3.19,-1.52l0.01 7.68z"/>
    <path class="fil8" d="M21.17 68.97l-0.02 10.66c6.36,4.5 4.38,1.39 6.86,5.9 1.55,2.83 5.93,3.86 8.81,0.86 2.77,-2.9 1.51,-7.31 -1.78,-8.75 -2.91,-1.26 -2.97,0.35 -4.89,-0.61 -1.66,-0.83 -2.15,-2 -4.34,-2.51l5.69 -3.32c2.18,-0.96 3.8,1.16 6.11,2.04l0.01 -8.1c-4.04,-1.52 -3.66,-3.71 -8.64,-0.67 -1.38,0.84 -2.38,1.37 -3.77,2.2 -1.62,0.96 -2.61,1.27 -4.03,2.31z"/>
    <path class="fil6" d="M89.29 130.4l0 7.68c3.42,-1.66 8.91,-5.37 10.53,-4.96l13.71 7.67c1.34,0.68 2.3,1.19 3.32,1.99l-0 -12.8 -3.6 2.56c-3.88,-2.05 -7.55,-4.39 -11.5,-6.42 -3.11,-1.59 -3.81,-0.69 -6.56,0.72 -1.95,1 -4.3,2.31 -5.89,3.56z"/>
    <path class="fil7" d="M153.39 69.4l0.01 8.1 10.6 -6.01c3.08,-1.65 6.32,2.06 11.2,4.31l-0.02 -8.1c-11.58,-5.46 -6.37,-6.41 -16.3,-1.28 -1.45,0.75 -4.03,2.57 -5.49,2.99z"/>
    <path class="fil6" d="M92.56 2.86c-0,1.28 0,2.56 -0.02,3.84 -0.03,1.67 -0.23,2.88 0.65,4.05 1.26,-1.05 2.24,-1.24 3.65,-2.12 1.85,-1.15 2.02,-1.62 4.12,-0.35l7.58 4c0.06,-0.1 0.13,-0.37 0.14,-0.31l0.23 -0.66c0.02,-0.11 0.05,-0.24 0.07,-0.37l0.02 -5.96c-1.43,-1.16 -2.04,-1.33 -3.7,-2.32 -1.41,-0.84 -2.34,-1.37 -3.86,-2.12 -3.48,-1.72 -6.24,0.95 -8.91,2.3z"/>
   </g>
   <g>
    <path class="fil0" d="M37.61 65.14l-0.01 8.1c1.78,1.53 5.94,3.39 8.23,4.71 1.33,0.77 2.64,1.42 4.1,2.29 1.67,1 3.07,1.39 4.02,2.81 -1.53,0.35 -8.73,4.7 -11.38,6.11 -1.13,0.6 -1.28,0.82 -2.42,1.42l-4.55 2.35c0.86,1.07 0.2,-0.83 0.73,1.61 0.06,0.29 0.07,1.78 0.07,2.15 -0.02,1.43 -0.03,2.84 -0.03,4.27 1.06,-1.08 8.6,-5.08 10.32,-5.97l5.46 -3.07c1.13,-0.69 4.51,-2.64 5.63,-2.9l0 21.75c-5.37,-3.59 -10.91,-9.75 -13.83,-5.27 -2.15,3.3 1.43,5.06 3.28,6.43l5.47 3.89c0.64,0.73 0.35,0.16 0.44,0.92 -0.68,1.09 -0.65,4.61 -0.45,5.99 0.13,0.9 -0.12,-0.11 0.19,0.84 0.36,1.12 0.02,0.45 0.63,1.2 2.18,-1.48 4.25,-2.64 6.4,-3.77 1.19,0.8 1.98,1.44 3.24,2.3 1.35,0.93 2.22,1.66 3.58,2.39l0 -8.53c-2.29,-1.53 -1.74,-1.91 -1.71,-5.54l-0.03 -28.98c-0.32,-2.46 -1.58,-2.86 -3.35,-3.9 -1.49,-0.87 -3.07,-1.66 -4.64,-2.62 -1.07,-0.65 -3.7,-2.19 -4.77,-2.48 0.31,-1.16 0.52,-1.05 1.32,-1.67l13.18 -9.84 0.01 -8.53 -10.6 7.74c-1.87,1.41 -3.43,2.57 -5.36,4.02 -1.86,1.39 -3.59,2.83 -5.36,4.02 -1.16,-0.27 -7.02,-3.56 -7.81,-4.27z"/>
    <path class="fil1" d="M66.75 125.71c0.43,0.38 0.85,0.75 1.39,1.17l8.5 6c1.05,0.72 2.67,1.75 3.33,2.64l-8.25 4.55c-3.91,2.08 -5.03,1.89 -4.98,7.81 0.07,8.52 0.01,17.07 0.01,25.6 -0,8.48 -1.06,6.17 12.08,13.52l12.32 6.87c1.06,0.64 3.21,1.59 3.86,2.22l-0.01 -7.68c-0.58,-1.15 -5.52,-3.52 -6.92,-4.27l-0.01 -9.4c0.22,-1.97 0.1,-0.88 1.15,-2.26 2.33,-3.05 0.15,-7.41 -2.59,-8.23 -4.12,-1.23 -7.34,1.87 -7.46,4.99 -0.1,2.49 1.36,3.17 1.87,4.46 0.61,1.57 0.22,4.75 0.22,6.6 -2.64,-1.4 -5.04,-2.87 -7.68,-4.27l0 -25.17c2.44,1.29 10.12,5.66 11.66,5.97l-0.01 -7.68c-1.96,-1.08 -5.63,-3.43 -7.39,-3.84l0 -0.85c0.45,-0.12 10.33,-5.31 11.45,-6.4l0 -7.68c-3.09,0.77 -1.22,2 -6.09,-1.52l-16.45 -11.7 0 8.53z"/>
    <path class="fil2" d="M134.95 64.71l8.58 6.4c0.42,0.31 0.99,0.65 1.49,1.07 1.05,0.9 0.7,0.1 1.07,1.49l-9.11 4.97c-4.58,2.45 -3.69,3.93 -3.69,10.39 0,9.38 -0.04,18.77 0,28.15l0.08 7.59c0.19,0.95 -0,0.4 0.34,0.93l5.54 -4.26c1.61,0.85 3.57,1.91 5.2,2.9l16.34 9.04 -0.01 -7.68c-0.67,-0.95 -6.56,-4 -7.59,-4.55 -1.87,-1 -7.03,-3.56 -7.96,-4.83 1.21,-0.32 8.54,-6.05 9.13,-7.11 0.78,-1.41 0.67,-2.72 -0.25,-3.88 -2.54,-3.21 -5.31,-0.32 -7.23,1.12 -2.23,1.67 -4.03,3.21 -6.34,4.75l0 -22.18 12.86 6.82 0 -7.68c-0.8,-0.96 -8.01,-4.88 -9.03,-5.12l0 -0.85c1.92,-0.45 2.95,-1.37 4.56,-2.27 1.57,-0.87 3.02,-1.72 4.46,-2.42l-0.01 -8.1c-1.73,-0.44 -11.76,-8.46 -13.64,-9.87 -1.59,-1.2 -3.04,-2.48 -4.81,-3.35l0.01 8.53z"/>
    <path class="fil3" d="M116.85 129.97l0 12.8c1.4,0.56 2.48,1.4 3.64,1.71l-5.4 3.57c-3.19,1.78 -2.37,1.38 -5.26,-0.58l0.01 11.52c5.03,-2.72 9.84,-5.42 14.91,-8.1l0 8.53c-1.28,0.68 -8.24,4.75 -9.08,4.88 -0.01,0 -8.48,-1.07 -7.55,6.16 0.66,5.09 7.53,6.51 10.19,1.73 1.43,-2.57 -0.2,-1.15 6.43,-4.66l0 8.53c-1.61,0.85 -3.57,1.92 -5.2,2.9 -1.93,1.17 -3.27,1.74 -5.18,3.07l0 7.68c1.44,-0.29 11.17,-5.92 13.13,-7.07 5.31,-3.12 4.08,-1.66 4.08,-16.39 0,-6.69 0.03,-13.38 0.02,-20.07 -0,-4.44 -1.56,-4.18 -4.37,-5.86 -1.65,-0.99 -5.07,-3.1 -6.74,-3.49 0.42,-1.59 0.53,-1.14 2.93,-3.04l9.84 -7.65c0.06,-0.05 0.18,-0.16 0.23,-0.2 0.05,-0.04 0.15,-0.13 0.23,-0.2 -0.34,-0.53 -0.15,0.01 -0.34,-0.93l-0.08 -7.59c-2.88,1.92 -5.37,4.15 -8.23,6.28 -1.53,1.13 -2.59,2.05 -4.08,3.17 -1.33,0.99 -2.88,2.13 -4.13,3.35z"/>
    <path class="fil4" d="M175.2 75.8c1.29,0.81 10.35,6.05 11.83,6.4 -0.49,1.84 -0.77,1.07 -3.39,2.58 -1.37,0.78 -2.47,1.69 -4.29,2.11 -1.15,-0.77 -2.25,-1.32 -3.35,-2.13l0 12.37c2.51,-1.45 5.16,-2.81 7.64,-4.24 2.5,-1.44 5.14,-2.96 7.66,-4.29l0 8.96c-11.04,7.39 -10.86,2.74 -14.41,5.64 -5.64,4.61 0.69,12.56 6.32,8.88 4.39,-2.86 -3.32,-0.39 8.08,-6.42l0 8.53c-1.52,0.35 -2.45,1.21 -3.98,1.99l-11.3 6.54c-0.01,2.19 -0.53,6.1 0.36,7.61 3.12,-1.36 5.6,-3.12 8.53,-4.63 1.58,-0.82 12,-6.29 12.88,-7.59 1.41,-2.06 0.77,-16.66 0.77,-19.71 0,-20.57 2.06,-16.42 -10.37,-23.32l-8.74 -4.91c-1.6,-0.97 -2.84,-1.38 -4.26,-2.48l0.02 8.1z"/>
    <path class="fil3" d="M108.55 12.29c0.79,0.99 4.34,2.71 5.83,3.51 1.59,0.85 4.59,2.86 6.11,3.27l0 0.85c-2.64,0.62 -4.34,2.74 -7.25,3.41 -1.07,-0.72 -1.92,-1.36 -3.4,-1.71l0 11.94c5.03,-2.72 9.84,-5.42 14.91,-8.1l0 22.18c-4.18,-0.97 -10.22,-10.13 -13.82,-5.71 -2.58,3.16 0.99,5.49 2.61,6.69 1.71,1.27 5.09,3.5 6.09,4.99l-9.79 5.54 -0.01 7.68c1.66,-0.39 6.22,-3.29 8.09,-4.26 1.35,-0.7 2.42,-1.4 3.84,-2.13 6.09,-3.15 2.51,-3.45 13.17,4.26l-0.01 -8.53c-0.64,-0.99 -2.21,-1.95 -3.36,-2.56 0,-5.23 0.64,-32.46 -0.16,-35.24 -0.82,-2.83 -15.79,-9.76 -19.28,-11.86 -1.24,-0.75 -1.61,-1.15 -3.12,-1.52l-0.02 5.96c-0.02,0.13 -0.05,0.26 -0.07,0.37l-0.23 0.66c-0.02,-0.06 -0.08,0.21 -0.14,0.31z"/>
    <path class="fil5" d="M23.21 130.83l0.01 -7.68 -1.68 -0.85c0,-2.13 0.01,-4.27 -0,-6.4 -0.02,-3.32 -0.42,-3.19 1.02,-5.38 5.42,-8.22 -9.89,-11.81 -9.98,-3.15 -0.02,2.47 1.38,2.94 1.92,4.48 0.6,1.72 0.21,4.28 0.21,6.19 -2.14,-0.57 -5.46,-3.32 -7.68,-3.84l0 -25.59 16.19 8.96 -0.01 -7.68 -6.09 -3.7c-1.36,-0.69 -1.71,-1.04 -2.99,-1.7 -1.62,-0.84 -2.41,-0.64 -2.84,-2.28 5.54,-1.29 5.25,-5.48 9.85,-2.56l0.02 -10.66c-3.02,1.48 -5.69,3.2 -8.59,4.69 -1.53,0.79 -2.52,1.4 -4.12,2.28 -10.54,5.76 -8.25,1.97 -8.25,25.02 0,4.42 0.01,8.83 -0.02,13.24 -0.04,5.6 2.28,4.93 10.07,9.55 1.58,0.94 2.85,1.54 4.37,2.46 1.42,0.86 2.61,1.41 4.1,2.3 1.23,0.73 3.28,2.02 4.48,2.31z"/>
    <path class="fil6" d="M80.76 21.2l0 7.68c0.36,0.79 -0.42,-0.22 0.41,0.59l2.93 1.69c2.44,1.3 9.63,5.78 11.66,6.26l0 25.59 -11.75 -6.4 0.01 7.68 12.28 7.13c4.18,2.38 5.03,0.12 10.4,-2.58 1.56,-0.78 1.95,-0.97 3.14,-1.99l0.01 -7.68c-1.54,0.4 -5.62,2.97 -7.27,3.84l0 -25.59 7.27 -3.84 -0 -11.94c-1.51,-1.29 -2.25,-1.41 -3.96,-2.46 -2.65,-1.63 -2.47,-5.79 -7.52,-5.21 -5.92,0.68 -6.59,9.03 -0.98,10.75 3.04,0.94 2.28,-0.92 4.96,0.53 3.42,1.85 3.2,1.1 3.65,2.78 -5.22,1.22 -4.56,5.06 -9.63,1.95l-15.61 -8.78z"/>
    <path class="fil1" d="M66.75 53.62l-0.01 8.53c6.58,-4.33 3.4,-5.34 11.24,-0.99 1.72,0.95 4.18,2.77 6.04,3.12l-0.01 -7.68c-2.07,-1.34 -3.25,-1.89 -5.32,-2.99 2.65,-3.95 12.14,-6.49 8.89,-11.44 -3.01,-4.58 -8.43,2.74 -13.58,5.47 0,-7.49 -0.43,-14.3 -0.43,-22.18 2.1,1.11 5.47,3.13 7.18,3.41l0 -7.68c-1.27,-0.69 -1.6,-0.97 -2.92,-1.28l7.81 -4.98c2.69,-1.49 4.81,-2.81 7.54,-4.19 -0.89,-1.17 -0.68,-2.38 -0.65,-4.05 0.02,-1.28 0.01,-2.56 0.02,-3.84l-24.44 13.74c-1.85,1.63 -1.37,4.71 -1.37,8.01l0 29z"/>
    <path class="fil6" d="M85.23 149.17l0.01 7.68c0.3,0.6 -0.17,0.16 0.73,0.83l9.78 5.14 0 19.19c0,2.75 0.49,5.29 -0.76,6.4l0.01 7.68c1.56,0.87 3.38,2.24 5.67,1.55l13.08 -7.4c0.57,-0.44 0.33,-0.21 0.62,-0.54l0 -7.68 -11.8 6.4 0 -25.59 7.27 -3.84 -0.01 -11.52c-1.32,-0.87 -2.55,-1.52 -3.96,-2.45 -2.85,-1.89 -1.9,-5.89 -7.13,-5.67 -1.72,0.07 -3.34,1.21 -4.19,2.23 -2.5,3.01 -0.31,7.41 2.51,8.43 1.32,0.48 5.67,-0.43 8.5,3.42 -7.19,3.8 -4.51,5.03 -17.67,-2.81 -1.03,-0.61 -1.8,-0.89 -2.66,-1.46z"/>
    <path class="fil7" d="M153.41 88.17l0 7.68 4.22 2.54c1.5,0.86 3.19,1.8 4.67,2.58l0 25.17c-0.66,-0.37 -0.5,-0.24 -1.51,-0.43l0.01 7.68c5,3.18 5.87,3.16 14.57,-2.28l1 -0.77c-0.89,-1.51 -0.37,-5.42 -0.36,-7.61 -2.44,0.53 -4.5,2.85 -6.89,3.41l0 -25.17c2.27,-1.2 4.73,-2.52 6.89,-3.84l-0 -12.37c-6.79,-3.32 -4.54,-3.88 -6.53,-5.9 -6.19,-6.29 -13.23,5.84 -5.49,8.92 2.71,1.08 2.33,-0.57 4.69,0.8l3.86 2.58c-5.42,1.45 -4.09,5.23 -9.68,2l-9.45 -4.99z"/>
    <path class="fil8" d="M23.23 97.55l5.99 3.41 0 25.17c-2.12,-0.5 -3.92,-2.45 -5.99,-2.99l-0.01 7.68 7.28 4.29c3.3,1.53 4.1,-0.08 8.11,-2.15l14.93 -8.18c-0.61,-0.75 -0.27,-0.08 -0.63,-1.2 -0.31,-0.95 -0.05,0.05 -0.19,-0.84 -0.21,-1.39 -0.23,-4.9 0.45,-5.99l-8.31 4.55c-1.57,0.8 -2.82,1.54 -4.37,2.46 -1.64,0.97 -2.86,1.54 -4.45,2.38 0,-4.65 -0.63,-22.06 0.35,-25.17 -0,-1.43 0,-2.84 0.03,-4.27 0.01,-0.37 -0,-1.86 -0.07,-2.15 -0.53,-2.44 0.13,-0.53 -0.73,-1.61 -3.4,2.12 -2.7,2.21 -6.15,0.1 -1.16,-0.71 -1.88,-0.94 -3.05,-1.64 -1.29,-0.78 -1.6,-1.16 -3.19,-1.52l0.01 7.68z"/>
    <path class="fil8" d="M21.17 68.98l-0.02 10.66c6.36,4.5 4.38,1.39 6.86,5.9 1.55,2.83 5.93,3.86 8.81,0.86 2.77,-2.9 1.51,-7.31 -1.78,-8.75 -2.91,-1.26 -2.97,0.35 -4.89,-0.61 -1.66,-0.83 -2.15,-2 -4.34,-2.51l5.69 -3.32c2.18,-0.96 3.8,1.16 6.11,2.04l0.01 -8.1c-4.04,-1.52 -3.66,-3.71 -8.64,-0.67 -1.38,0.84 -2.38,1.37 -3.77,2.2 -1.62,0.96 -2.61,1.27 -4.03,2.31z"/>
    <path class="fil6" d="M89.29 130.4l0 7.68c3.42,-1.66 8.91,-5.37 10.53,-4.96l13.71 7.67c1.34,0.68 2.3,1.19 3.32,1.99l-0 -12.8 -3.6 2.56c-3.88,-2.05 -7.55,-4.39 -11.5,-6.42 -3.11,-1.59 -3.81,-0.69 -6.56,0.72 -1.95,1 -4.3,2.31 -5.89,3.56z"/>
    <path class="fil7" d="M153.39 69.4l0.01 8.1 10.6 -6.01c3.08,-1.65 6.32,2.06 11.2,4.31l-0.02 -8.1c-11.58,-5.46 -6.37,-6.41 -16.3,-1.28 -1.45,0.75 -4.03,2.57 -5.49,2.99z"/>
    <path class="fil6" d="M92.56 2.86c-0,1.28 0,2.56 -0.02,3.84 -0.03,1.67 -0.23,2.88 0.65,4.05 1.26,-1.05 2.24,-1.24 3.65,-2.12 1.85,-1.15 2.02,-1.62 4.12,-0.35l7.58 4c0.06,-0.1 0.13,-0.37 0.14,-0.31l0.23 -0.66c0.02,-0.11 0.05,-0.24 0.07,-0.37l0.02 -5.96c-1.43,-1.16 -2.04,-1.33 -3.7,-2.32 -1.41,-0.84 -2.34,-1.37 -3.86,-2.12 -3.48,-1.72 -6.24,0.95 -8.91,2.3z"/>
   </g>
  </g>
 </g>
</svg>
