<svg width="272" height="150" viewBox="0 0 272 150" fill="none" xmlns="http://www.w3.org/2000/svg">
<path fill-rule="evenodd" clip-rule="evenodd" d="M242.694 70.696C242.332 69.0225 244.752 68.7117 245.042 70.1407C245.372 71.7554 242.987 72.0529 242.694 70.696ZM215.909 70.696C215.539 69.0206 217.969 68.7117 218.257 70.1388C218.583 71.7497 216.206 72.0491 215.909 70.696ZM254.406 61.995C255.814 61.3203 256.696 63.5851 255.305 64.1877C253.978 64.7601 252.752 62.7872 254.406 61.995ZM204.486 55.9056C205.892 55.229 206.781 57.49 205.386 58.0965C204.058 58.6745 202.849 56.694 204.486 55.9056ZM266.577 51.0349C267.984 50.3602 268.872 52.6193 267.478 53.2277C266.155 53.8038 264.928 51.829 266.577 51.0349ZM222.517 22.9742C223.673 22.7563 241.519 22.9117 244.326 22.906C246.727 22.9022 248.285 23.7494 248.675 25.8777C248.893 27.066 248.738 44.8773 248.741 47.7164C248.745 50.1006 247.892 51.6774 245.781 52.0621C244.561 52.2838 226.791 52.1284 223.931 52.1322C221.505 52.136 219.979 51.2718 219.595 49.1814C219.36 47.9097 219.521 30.2234 219.517 27.3219C219.513 24.8884 220.36 23.3779 222.519 22.9742H222.517ZM200.834 38.8619C202.24 38.1872 203.129 40.4463 201.734 41.0527C200.411 41.6289 199.185 39.6541 200.834 38.8619ZM266.581 31.5577C267.989 30.883 268.871 33.1497 267.479 33.7504C266.153 34.3228 264.927 32.3499 266.581 31.5577ZM261.71 20.5995C263.119 19.9248 264 22.1915 262.609 22.7923C261.282 23.3646 260.056 21.3917 261.71 20.5995ZM205.703 20.5976C207.081 19.94 208.04 22.1725 206.605 22.7923C205.282 23.3627 204.054 21.3879 205.703 20.5976ZM233.708 7.20784C235.117 6.53314 235.998 8.79983 234.607 9.40061C233.28 9.97297 232.054 8.00004 233.708 7.20784ZM253.188 5.9911C254.596 5.3164 255.477 7.58309 254.086 8.18387C252.759 8.75623 251.533 6.7833 253.188 5.9911ZM216.659 3.55384C218.037 2.89431 218.998 5.12878 217.561 5.74662C216.238 6.31708 215.01 4.34226 216.659 3.55384ZM213.43 4.34415C213.43 6.80984 214.921 8.30138 217.387 8.30138C218.041 8.30138 218.211 8.12323 218.757 7.99625C219.329 8.851 223.171 12.088 223.171 12.7135V20.4744C219.828 20.4744 217.084 23.2187 217.084 26.5619H212.975C212.419 26.5619 210.151 23.8195 209.474 23.3665L209.779 21.3879C209.779 19.2236 207.823 18.039 205.822 18.039C203.658 18.039 202.473 19.9949 202.473 21.9963C202.473 24.1606 204.429 25.3451 206.43 25.3451C207.086 25.3451 207.255 25.167 207.801 25.04C208.151 25.565 211.466 28.9972 211.91 28.9972H217.084V31.4326H209.474C208.978 31.4326 204.575 35.3045 203.891 35.894C202.462 37.1221 202.996 36.3033 200.951 36.3033C198.787 36.3033 197.603 38.2592 197.603 40.2605C197.603 42.4249 199.558 43.6094 201.56 43.6094C203.59 43.6094 204.909 41.6441 204.909 39.8038C204.909 39.0381 204.772 39.1215 204.757 38.4336C205.847 37.7039 209.885 33.868 210.539 33.868H217.084V36.3033H213.431V38.7387H217.084V41.174H206.125V43.6094H217.084V46.0448H210.539C210.126 46.0448 209.976 46.4883 209.776 46.8029L207.952 49.5452C207.547 50.1536 207.141 50.762 206.736 51.3722C206.423 51.8404 205.657 52.8278 205.519 53.3509C203.995 53.3509 203.264 53.4778 202.433 54.2227C199.72 56.658 201.702 60.8086 204.757 60.8086C208.138 60.8086 209.65 56.8703 207.649 54.5695C208.371 53.493 211.356 49.4164 211.606 48.482H217.085C217.085 51.8252 219.83 54.5695 223.173 54.5695V62.3304C223.173 62.9559 219.331 66.1948 218.759 67.0476L216.78 66.7425C214.616 66.7425 213.431 68.6984 213.431 70.6997C213.431 72.8641 215.387 74.0486 217.389 74.0486C219.553 74.0486 220.738 72.0927 220.738 70.0914C220.738 69.4375 220.559 69.2669 220.432 68.7211C221.028 68.3231 225.606 63.8447 225.606 63.3936V54.5676H228.042V61.8718H230.477V54.5676H232.912V64.7639C232.912 65.1638 233.227 65.2604 233.58 65.467L238.268 68.3876C238.625 68.6169 238.845 68.7173 239.212 68.9656C239.601 69.2272 239.733 69.3712 240.217 69.483C240.217 71.1565 240.154 71.8805 241.011 72.7978C243.512 75.4738 247.674 73.9898 247.674 70.5481C247.674 67.0457 244.123 65.8063 241.587 67.5044L237.014 64.6199C236.51 64.3185 235.911 63.8314 235.346 63.6988V54.5676H237.781V58.2197H240.217V54.5676H242.652V64.3071H251.023C251.734 64.3071 251.834 66.7425 255.132 66.7425C259.516 66.7425 259.897 59.4383 254.524 59.4383C252.176 59.4383 251.626 61.8737 251.023 61.8737H245.087V54.5695C248.431 54.5695 251.175 51.8252 251.175 48.482H261.371C261.853 48.482 263.156 50.1271 263.653 50.4606L263.348 52.4393C263.348 54.6036 265.304 55.7881 267.305 55.7881C269.469 55.7881 270.654 53.8322 270.654 51.8309C270.654 49.6665 268.698 48.482 266.697 48.482C266.043 48.482 265.872 48.6602 265.326 48.7872C265.033 48.3475 262.914 46.0467 262.434 46.0467H251.173V43.6113H257.26V41.1759H251.173V38.7406H257.412C258.652 38.7406 262.783 35.7139 264.174 35.4543C264.697 35.3576 265.471 36.3052 267.305 36.3052C269.325 36.3052 270.654 34.4441 270.654 32.348C270.654 28.1406 263.35 27.356 263.35 33.1099C262.81 33.2368 262.143 33.6216 261.684 33.8793C256.415 36.8169 257.152 36.3071 251.175 36.3071V33.8717H254.827V31.4364H251.175V29.001C257.351 29.001 255.926 29.6511 258.441 27.138C259.061 26.5183 260.012 25.7109 260.458 25.0457L262.436 25.3508C264.601 25.3508 265.785 23.3949 265.785 21.3936C265.785 19.2292 263.829 18.0447 261.828 18.0447C259.664 18.0447 258.479 20.0006 258.479 22.002C258.479 22.6558 258.657 22.8264 258.784 23.3722C258.108 23.8252 255.839 26.5675 255.284 26.5675H251.175C251.175 23.2244 248.431 20.4801 245.087 20.4801C245.087 17.3606 244.498 17.9481 246.723 15.725C248.141 14.3073 250.978 11.8663 251.935 10.4373L253.913 10.7424C256.078 10.7424 257.262 8.78656 257.262 6.7852C257.262 4.62085 255.306 3.43634 253.305 3.43634C251.141 3.43634 249.956 5.39221 249.956 7.39357C249.956 8.04932 250.134 8.21799 250.261 8.76381C248.779 9.75691 246.022 12.9257 244.517 14.4324C242 16.9474 242.652 15.8027 242.652 20.482H240.217V16.8299H237.781V20.482H235.346V12.1127C235.346 11.402 237.781 11.3015 237.781 8.00383C237.781 7.15667 237.271 6.21284 236.839 5.75041C233.765 2.46598 228.282 6.73214 231.296 10.6856C233.255 13.2593 232.914 8.14976 232.914 20.482H230.479V16.8299H228.044V20.482H225.608V11.6559C225.608 11.1992 221.005 6.71129 220.434 6.32845L220.739 4.34984C220.739 2.18549 218.784 1.00098 216.782 1.00098C215.109 1.00098 213.433 2.67446 213.433 4.34984L213.43 4.34415Z" fill="#1E81CE" stroke="#FEFEFE" stroke-width="1.51195" stroke-miterlimit="22.9256"/>
<path fill-rule="evenodd" clip-rule="evenodd" d="M228.042 32.6507C228.042 30.168 228.199 29.0195 229.541 27.4578C230.443 26.4079 232.014 25.3541 234.128 25.3541C236.239 25.3541 237.819 26.4041 238.714 27.4578C240.062 29.046 240.213 30.1471 240.213 32.6507C240.325 33.1302 241.307 33.134 242.044 34.3223C242.605 35.2282 242.652 35.9541 242.648 37.2163C242.645 39.5494 242.647 41.8843 242.647 44.2173C242.647 46.9331 242.58 48.2408 240.687 49.2605C239.341 49.9863 235.847 49.6945 234.126 49.6945C232.382 49.6945 228.94 49.9844 227.551 49.27C225.724 48.3299 225.603 46.8137 225.605 44.2173C225.605 41.8843 225.607 39.5494 225.603 37.2163C225.595 33.1871 227.557 33.6438 228.038 32.6507H228.042ZM222.517 22.9756C220.359 23.3812 219.512 24.8898 219.515 27.3233C219.519 30.2249 219.36 47.9111 219.593 49.1828C219.978 51.2732 221.505 52.1374 223.929 52.1336C226.789 52.1299 244.559 52.2853 245.779 52.0635C247.891 51.6807 248.744 50.1039 248.74 47.7178C248.736 44.8787 248.891 27.0674 248.673 25.8791C248.283 23.7489 246.725 22.9036 244.324 22.9074C241.515 22.9112 223.672 22.7577 222.516 22.9756H222.517Z" fill="#9AC8FF" stroke="#FEFEFE" stroke-width="1.51195" stroke-miterlimit="22.9256"/>
<path fill-rule="evenodd" clip-rule="evenodd" d="M228.039 45.8911V36.4548C228.039 35.7024 228.657 35.0846 229.409 35.0846H238.844C239.596 35.0846 240.214 35.7024 240.214 36.4548V45.8911C240.214 46.6435 239.596 47.2614 238.844 47.2614H229.409C228.657 47.2614 228.039 46.6435 228.039 45.8911ZM230.472 32.653C230.472 31.1747 230.524 30.1399 231.242 29.1563C232.584 27.3217 235.722 27.3691 237.009 29.1544C237.733 30.157 237.778 31.1766 237.777 32.6511H230.47L230.472 32.653ZM228.039 32.6511C227.558 33.6423 225.596 33.1856 225.604 37.2167C225.607 39.5497 225.605 41.8846 225.605 44.2177C225.605 46.8141 225.727 48.3303 227.552 49.2703C228.939 49.9848 232.383 49.6949 234.126 49.6949C235.847 49.6949 239.342 49.9867 240.688 49.2608C242.581 48.2412 242.649 46.9335 242.647 44.2177C242.647 41.8846 242.645 39.5497 242.649 37.2167C242.651 35.9545 242.606 35.2286 242.045 34.3227C241.307 33.1344 240.326 33.1306 240.214 32.6511C240.214 30.1475 240.06 29.0464 238.715 27.4582C237.82 26.4044 236.24 25.3545 234.128 25.3545C232.015 25.3545 230.444 26.4082 229.542 27.4582C228.2 29.0218 228.043 30.1684 228.043 32.6511H228.039Z" fill="#1E81CE" stroke="#FEFEFE" stroke-width="1.51195" stroke-miterlimit="22.9256"/>
<path fill-rule="evenodd" clip-rule="evenodd" d="M233.703 38.8604C235.113 38.1895 236.002 40.4524 234.607 41.055C233.277 41.6293 232.058 39.6412 233.703 38.8604ZM230.476 39.3474C230.476 40.7234 230.527 42.0955 232.121 43.0299C233.116 43.6136 232.911 43.0299 232.911 46.0433H235.346C235.346 41.6767 235.409 44.2239 236.899 42.4215C238.627 40.3273 237.986 36.3037 233.824 36.3037C232.088 36.3037 230.476 38.0625 230.476 39.3474Z" fill="#1E81CE" stroke="#FEFEFE" stroke-width="1.51195" stroke-miterlimit="22.9256"/>
<path fill-rule="evenodd" clip-rule="evenodd" d="M230.476 32.6508H237.782C237.784 31.1764 237.736 30.1567 237.014 29.1541C235.727 27.3688 232.589 27.3196 231.247 29.156C230.529 30.1378 230.477 31.1745 230.477 32.6527L230.476 32.6508Z" fill="#9AC8FF" stroke="#FEFEFE" stroke-width="1.51195" stroke-miterlimit="22.9256"/>
<path fill-rule="evenodd" clip-rule="evenodd" d="M228.04 14.3866H230.475V11.9531H228.04V14.3866Z" fill="#1E81CE" stroke="#FEFEFE" stroke-width="1.51195" stroke-miterlimit="22.9256"/>
<path fill-rule="evenodd" clip-rule="evenodd" d="M237.779 14.3866H240.215V11.9531H237.779V14.3866Z" fill="#1E81CE" stroke="#FEFEFE" stroke-width="1.51195" stroke-miterlimit="22.9256"/>
<path fill-rule="evenodd" clip-rule="evenodd" d="M214.648 21.6932H217.084V19.2578H214.648V21.6932Z" fill="#1E81CE" stroke="#FEFEFE" stroke-width="1.51195" stroke-miterlimit="22.9256"/>
<path fill-rule="evenodd" clip-rule="evenodd" d="M251.172 21.6932H253.607V19.2578H251.172V21.6932Z" fill="#1E81CE" stroke="#FEFEFE" stroke-width="1.51195" stroke-miterlimit="22.9256"/>
<path fill-rule="evenodd" clip-rule="evenodd" d="M257.262 33.867H259.697V31.4316H257.262V33.867Z" fill="#1E81CE" stroke="#FEFEFE" stroke-width="1.51195" stroke-miterlimit="22.9256"/>
<path fill-rule="evenodd" clip-rule="evenodd" d="M208.562 38.7372H210.997V36.3037H208.562V38.7372Z" fill="#1E81CE" stroke="#FEFEFE" stroke-width="1.51195" stroke-miterlimit="22.9256"/>
<path fill-rule="evenodd" clip-rule="evenodd" d="M259.695 43.6082H262.129V41.1729H259.695V43.6082Z" fill="#1E81CE" stroke="#FEFEFE" stroke-width="1.51195" stroke-miterlimit="22.9256"/>
<path fill-rule="evenodd" clip-rule="evenodd" d="M214.648 55.782H217.084V53.3467H214.648V55.782Z" fill="#1E81CE" stroke="#FEFEFE" stroke-width="1.51195" stroke-miterlimit="22.9256"/>
<path fill-rule="evenodd" clip-rule="evenodd" d="M251.172 55.782H253.607V53.3467H251.172V55.782Z" fill="#1E81CE" stroke="#FEFEFE" stroke-width="1.51195" stroke-miterlimit="22.9256"/>
<path fill-rule="evenodd" clip-rule="evenodd" d="M237.779 63.0867H240.215V60.6514H237.779V63.0867Z" fill="#1E81CE" stroke="#FEFEFE" stroke-width="1.51195" stroke-miterlimit="22.9256"/>
<path fill-rule="evenodd" clip-rule="evenodd" d="M228.04 66.7382H230.475V64.3047H228.04V66.7382Z" fill="#1E81CE" stroke="#FEFEFE" stroke-width="1.51195" stroke-miterlimit="22.9256"/>
<path fill-rule="evenodd" clip-rule="evenodd" d="M216.662 3.55417C215.013 4.34258 216.241 6.31741 217.564 5.74694C219 5.1272 218.04 2.89463 216.662 3.55417Z" fill="#9AC8FF" stroke="#FEFEFE" stroke-width="1.51195" stroke-miterlimit="22.9256"/>
<path fill-rule="evenodd" clip-rule="evenodd" d="M205.703 20.5994C204.054 21.3878 205.282 23.3646 206.605 22.7941C208.041 22.1744 207.081 19.9418 205.703 20.5994Z" fill="#9AC8FF" stroke="#FEFEFE" stroke-width="1.51195" stroke-miterlimit="22.9256"/>
<path fill-rule="evenodd" clip-rule="evenodd" d="M233.704 38.8604C232.059 39.6412 233.278 41.6293 234.608 41.055C236.003 40.4524 235.114 38.1895 233.704 38.8604Z" fill="#9AC8FF" stroke="#FEFEFE" stroke-width="1.51195" stroke-miterlimit="22.9256"/>
<path fill-rule="evenodd" clip-rule="evenodd" d="M253.19 5.99039C251.538 6.78259 252.764 8.75552 254.089 8.18316C255.48 7.58237 254.598 5.31569 253.19 5.99039Z" fill="#9AC8FF" stroke="#FEFEFE" stroke-width="1.51195" stroke-miterlimit="22.9256"/>
<path fill-rule="evenodd" clip-rule="evenodd" d="M233.709 7.20718C232.056 7.99939 233.282 9.97232 234.607 9.39996C235.998 8.79917 235.117 6.53248 233.709 7.20718Z" fill="#9AC8FF" stroke="#FEFEFE" stroke-width="1.51195" stroke-miterlimit="22.9256"/>
<path fill-rule="evenodd" clip-rule="evenodd" d="M261.711 20.6027C260.058 21.3949 261.284 23.3678 262.609 22.7955C264 22.1947 263.119 19.928 261.711 20.6027Z" fill="#9AC8FF" stroke="#FEFEFE" stroke-width="1.51195" stroke-miterlimit="22.9256"/>
<path fill-rule="evenodd" clip-rule="evenodd" d="M266.582 31.5578C264.928 32.35 266.154 34.3229 267.48 33.7505C268.872 33.1498 267.99 30.8831 266.582 31.5578Z" fill="#9AC8FF" stroke="#FEFEFE" stroke-width="1.51195" stroke-miterlimit="22.9256"/>
<path fill-rule="evenodd" clip-rule="evenodd" d="M254.407 61.9943C252.754 62.7865 253.981 64.7594 255.305 64.1871C256.696 63.5863 255.815 61.3196 254.407 61.9943Z" fill="#9AC8FF" stroke="#FEFEFE" stroke-width="1.51195" stroke-miterlimit="22.9256"/>
<path fill-rule="evenodd" clip-rule="evenodd" d="M200.835 38.8624C199.186 39.6546 200.412 41.6314 201.735 41.0533C203.13 40.445 202.241 38.1858 200.835 38.8624Z" fill="#9AC8FF" stroke="#FEFEFE" stroke-width="1.51195" stroke-miterlimit="22.9256"/>
<path fill-rule="evenodd" clip-rule="evenodd" d="M266.578 51.0347C264.929 51.8269 266.156 53.8036 267.478 53.2274C268.873 52.6191 267.984 50.36 266.578 51.0347Z" fill="#9AC8FF" stroke="#FEFEFE" stroke-width="1.51195" stroke-miterlimit="22.9256"/>
<path fill-rule="evenodd" clip-rule="evenodd" d="M204.485 55.9064C202.846 56.6948 204.057 58.6772 205.386 58.0973C206.781 57.4889 205.892 55.2298 204.485 55.9064Z" fill="#9AC8FF" stroke="#FEFEFE" stroke-width="1.51195" stroke-miterlimit="22.9256"/>
<path fill-rule="evenodd" clip-rule="evenodd" d="M242.695 70.6964C242.989 72.0515 245.373 71.754 245.043 70.1411C244.751 68.7121 242.333 69.0248 242.695 70.6964Z" fill="#9AC8FF" stroke="#FEFEFE" stroke-width="1.51195" stroke-miterlimit="22.9256"/>
<path fill-rule="evenodd" clip-rule="evenodd" d="M215.908 70.6958C216.208 72.049 218.582 71.7496 218.256 70.1386C217.967 68.7096 215.539 69.0205 215.908 70.6958Z" fill="#9AC8FF" stroke="#FEFEFE" stroke-width="1.51195" stroke-miterlimit="22.9256"/>
<path fill-rule="evenodd" clip-rule="evenodd" d="M242.694 70.6988C242.332 69.0253 244.752 68.7145 245.042 70.1416C245.372 71.7563 242.987 72.0539 242.694 70.6988ZM215.909 70.6988C215.539 69.0234 217.969 68.7145 218.257 70.1416C218.583 71.7525 216.206 72.052 215.909 70.6988ZM254.406 61.9978C255.814 61.3231 256.696 63.5898 255.305 64.1906C253.978 64.7629 252.752 62.7919 254.406 61.9978ZM204.486 55.9084C205.892 55.2318 206.781 57.4928 205.386 58.0993C204.058 58.6774 202.849 56.6968 204.486 55.9084ZM266.577 51.0377C267.984 50.363 268.872 52.6221 267.478 53.2286C266.155 53.8047 264.928 51.8299 266.577 51.0377ZM222.517 22.977C223.673 22.7591 241.519 22.9145 244.326 22.9088C246.727 22.905 248.285 23.7522 248.675 25.8805C248.893 27.0688 248.738 44.8801 248.741 47.7192C248.745 50.1034 247.892 51.6802 245.781 52.0649C244.561 52.2867 226.791 52.1313 223.931 52.135C221.505 52.1388 219.979 51.2746 219.595 49.1842C219.36 47.9125 219.521 30.2263 219.517 27.3247C219.513 24.8912 220.36 23.3807 222.519 22.977H222.517ZM200.834 38.8647C202.24 38.1881 203.129 40.4491 201.734 41.0556C200.411 41.6317 199.185 39.6569 200.834 38.8647ZM266.581 31.5605C267.989 30.8858 268.871 33.1525 267.479 33.7533C266.153 34.3256 264.927 32.3527 266.581 31.5605ZM261.71 20.6023C263.119 19.9276 264 22.1943 262.609 22.7951C261.282 23.3674 260.056 21.3945 261.71 20.6023ZM205.703 20.6004C207.081 19.9428 208.04 22.1753 206.605 22.7951C205.282 23.3655 204.054 21.3907 205.703 20.6004ZM233.708 7.21065C235.117 6.53595 235.998 8.80264 234.607 9.40342C233.28 9.97578 232.054 8.00285 233.708 7.21065ZM253.188 5.99391C254.596 5.31921 255.477 7.5859 254.086 8.18669C252.759 8.75904 251.533 6.78611 253.188 5.99391ZM216.659 3.55666C218.037 2.89712 218.998 5.13159 217.561 5.74943C216.238 6.31989 215.01 4.34507 216.659 3.55666ZM213.43 4.34507C213.43 6.81076 214.921 8.3023 217.387 8.3023C218.041 8.3023 218.211 8.12414 218.757 7.99716C219.329 8.85191 223.171 12.089 223.171 12.7144V20.4753C219.828 20.4753 217.084 23.2196 217.084 26.5628H212.975C212.419 26.5628 210.151 23.8204 209.474 23.3674L209.779 21.3888C209.779 19.2245 207.823 18.04 205.822 18.04C203.658 18.04 202.473 19.9958 202.473 21.9972C202.473 24.1615 204.429 25.346 206.43 25.346C207.086 25.346 207.255 25.1679 207.801 25.0409C208.151 25.564 211.466 28.9981 211.91 28.9981H217.084V31.4335H209.474C208.978 31.4335 204.575 35.3055 203.891 35.8949C202.462 37.123 202.996 36.3042 200.951 36.3042C198.787 36.3042 197.603 38.2601 197.603 40.2615C197.603 42.4258 199.558 43.6103 201.56 43.6103C203.59 43.6103 204.909 41.645 204.909 39.8047C204.909 39.039 204.772 39.1224 204.757 38.4345C205.847 37.7048 209.885 33.8689 210.539 33.8689H217.084V36.3042H213.431V38.7396H217.084V41.175H206.125V43.6103H217.084V46.0457H210.539C210.126 46.0457 209.976 46.4892 209.776 46.8038L207.952 49.5462C207.547 50.1545 207.141 50.7629 206.736 51.3732C206.423 51.8413 205.657 52.8287 205.519 53.3518C203.995 53.3518 203.264 53.4788 202.433 54.2236C199.72 56.6589 201.702 60.8095 204.757 60.8095C208.138 60.8095 209.65 56.8712 207.649 54.5704C208.371 53.4939 211.356 49.4173 211.606 48.4829H217.085C217.085 51.8261 219.83 54.5704 223.173 54.5704V62.3313C223.173 62.9568 219.331 66.1957 218.759 67.0486L216.78 66.7434C214.616 66.7434 213.431 68.6993 213.431 70.7007C213.431 72.865 215.387 74.0495 217.389 74.0495C219.553 74.0495 220.738 72.0936 220.738 70.0923C220.738 69.4384 220.559 69.2679 220.432 68.722C221.028 68.3241 225.606 63.8456 225.606 63.3946V54.5685H228.042V61.8727H230.477V54.5685H232.912V64.7648C232.912 65.1647 233.227 65.2614 233.58 65.4679L238.268 68.3885C238.625 68.6178 238.845 68.7183 239.212 68.9665C239.601 69.2281 239.733 69.3721 240.217 69.4839C240.217 71.1574 240.154 71.8814 241.011 72.7987C243.512 75.4747 247.674 73.9908 247.674 70.549C247.674 67.0467 244.123 65.8072 241.587 67.5053L237.014 64.6208C236.51 64.3194 235.911 63.8324 235.346 63.6997V54.5685H237.781V58.2206H240.217V54.5685H242.652V64.3081H251.023C251.734 64.3081 251.834 66.7434 255.132 66.7434C259.516 66.7434 259.897 59.4392 254.524 59.4392C252.176 59.4392 251.626 61.8746 251.023 61.8746H245.087V54.5704C248.431 54.5704 251.175 51.8261 251.175 48.4829H261.371C261.853 48.4829 263.156 50.128 263.653 50.4616L263.348 52.4402C263.348 54.6045 265.304 55.789 267.305 55.789C269.469 55.789 270.654 53.8332 270.654 51.8318C270.654 49.6675 268.698 48.4829 266.697 48.4829C266.043 48.4829 265.872 48.6611 265.326 48.7881C265.033 48.3503 262.914 46.0495 262.434 46.0495H251.173V43.6141H257.26V41.1788H251.173V38.7434H257.412C258.652 38.7434 262.783 35.7167 264.174 35.4571C264.697 35.3604 265.471 36.308 267.305 36.308C269.325 36.308 270.654 34.4469 270.654 32.3508C270.654 28.1434 263.35 27.3588 263.35 33.1127C262.81 33.2378 262.143 33.6244 261.684 33.8802C256.415 36.8197 257.152 36.308 251.175 36.308V33.8727H254.827V31.4373H251.175V29.0019C257.351 29.0019 255.926 29.652 258.441 27.137C259.061 26.5173 260.012 25.7118 260.458 25.0447L262.436 25.3498C264.601 25.3498 265.785 23.394 265.785 21.3926C265.785 19.2283 263.829 18.0437 261.828 18.0437C259.664 18.0437 258.479 19.9996 258.479 22.001C258.479 22.6548 258.657 22.8254 258.784 23.3712C258.108 23.8242 255.839 26.5666 255.284 26.5666H251.175C251.175 23.2234 248.431 20.4791 245.087 20.4791C245.087 17.3596 244.498 17.9471 246.723 15.724C248.141 14.3064 250.978 11.8653 251.935 10.4363L253.913 10.7415C256.078 10.7415 257.262 8.78558 257.262 6.78422C257.262 4.61988 255.306 3.43536 253.305 3.43536C251.141 3.43536 249.956 5.39123 249.956 7.39259C249.956 8.04833 250.134 8.21701 250.261 8.76284C248.779 9.75593 246.022 12.9247 244.517 14.4315C242 16.9464 242.652 15.8017 242.652 20.481H240.217V16.8289H237.781V20.481H235.346V12.1117C235.346 11.401 237.781 11.3005 237.781 8.00285C237.781 7.15568 237.271 6.21187 236.839 5.74943C233.765 2.46501 228.282 6.73115 231.296 10.6846C233.255 13.2583 232.914 8.14878 232.914 20.481H230.479V16.8289H228.044V20.481H225.608V11.655C225.608 11.1982 221.005 6.71031 220.434 6.32747L220.739 4.34886C220.739 2.18451 218.784 1 216.782 1C215.109 1 213.433 2.67348 213.433 4.34886L213.43 4.34507Z" fill="#1E81CE"/>
<path fill-rule="evenodd" clip-rule="evenodd" d="M228.042 32.6527C228.042 30.1699 228.199 29.0214 229.541 27.4598C230.443 26.4098 232.014 25.3561 234.128 25.3561C236.239 25.3561 237.819 26.406 238.714 27.4598C240.062 29.048 240.213 30.1491 240.213 32.6527C240.325 33.1322 241.307 33.136 242.044 34.3243C242.605 35.2302 242.652 35.9561 242.648 37.2183C242.645 39.5513 242.647 41.8862 242.647 44.2192C242.647 46.9351 242.58 48.2428 240.687 49.2624C239.341 49.9883 235.847 49.6964 234.126 49.6964C232.382 49.6964 228.94 49.9864 227.551 49.2719C225.724 48.3319 225.603 46.8138 225.605 44.2192C225.605 41.8862 225.607 39.5513 225.603 37.2183C225.595 33.189 227.557 33.6458 228.038 32.6527H228.042ZM222.517 22.9776C220.359 23.3831 219.512 24.8917 219.515 27.3252C219.519 30.2268 219.36 47.913 219.593 49.1847C219.978 51.2752 221.505 52.1394 223.929 52.1356C226.789 52.1318 244.559 52.2872 245.779 52.0655C247.891 51.6826 248.744 50.1058 248.74 47.7197C248.736 44.8807 248.891 27.0694 248.673 25.8811C248.283 23.7508 246.725 22.9055 244.324 22.9093C241.515 22.9131 223.672 22.7596 222.516 22.9776H222.517Z" fill="#9AC8FF"/>
<path fill-rule="evenodd" clip-rule="evenodd" d="M228.039 45.8921V36.4558C228.039 35.7034 228.657 35.0855 229.409 35.0855H238.844C239.596 35.0855 240.214 35.7034 240.214 36.4558V45.8921C240.214 46.6445 239.596 47.2624 238.844 47.2624H229.409C228.657 47.2624 228.039 46.6445 228.039 45.8921ZM230.472 32.654C230.472 31.1757 230.524 30.1409 231.242 29.1573C232.584 27.3227 235.722 27.3701 237.009 29.1554C237.733 30.158 237.778 31.1776 237.777 32.6521H230.47L230.472 32.654ZM228.039 32.6521C227.558 33.6433 225.596 33.1865 225.604 37.2177C225.607 39.5507 225.605 41.8856 225.605 44.2186C225.605 46.8132 225.727 48.3313 227.552 49.2713C228.939 49.9858 232.383 49.6958 234.126 49.6958C235.847 49.6958 239.342 49.9877 240.688 49.2618C242.581 48.2422 242.649 46.9345 242.647 44.2186C242.647 41.8856 242.645 39.5507 242.649 37.2177C242.651 35.9555 242.606 35.2296 242.045 34.3237C241.307 33.1354 240.326 33.1316 240.214 32.6521C240.214 30.1485 240.06 29.0474 238.715 27.4592C237.82 26.4054 236.24 25.3555 234.128 25.3555C232.015 25.3555 230.444 26.4092 229.542 27.4592C228.2 29.0227 228.043 30.1693 228.043 32.6521H228.039Z" fill="#1E81CE"/>
<path fill-rule="evenodd" clip-rule="evenodd" d="M233.703 38.8643C235.113 38.1934 236.002 40.4563 234.607 41.0589C233.277 41.6332 232.058 39.6451 233.703 38.8643ZM230.476 39.3513C230.476 40.7273 230.527 42.0994 232.121 43.0338C233.116 43.6156 232.911 43.0338 232.911 46.0472H235.346C235.346 41.6806 235.409 44.2278 236.899 42.4254C238.627 40.3312 237.986 36.3076 233.824 36.3076C232.088 36.3076 230.476 38.0664 230.476 39.3513Z" fill="#1E81CE"/>
<path fill-rule="evenodd" clip-rule="evenodd" d="M230.476 32.6557H237.782C237.784 31.1812 237.736 30.1616 237.014 29.159C235.727 27.3737 232.589 27.3245 231.247 29.1609C230.529 30.1427 230.477 31.1793 230.477 32.6576L230.476 32.6557Z" fill="#9AC8FF"/>
<path fill-rule="evenodd" clip-rule="evenodd" d="M228.04 14.3885H230.475V11.9531H228.04V14.3885Z" fill="#1E81CE"/>
<path fill-rule="evenodd" clip-rule="evenodd" d="M237.779 14.3885H240.215V11.9531H237.779V14.3885Z" fill="#1E81CE"/>
<path fill-rule="evenodd" clip-rule="evenodd" d="M214.648 21.6942H217.084V19.2607H214.648V21.6942Z" fill="#1E81CE"/>
<path fill-rule="evenodd" clip-rule="evenodd" d="M251.172 21.6942H253.607V19.2607H251.172V21.6942Z" fill="#1E81CE"/>
<path fill-rule="evenodd" clip-rule="evenodd" d="M257.262 33.8709H259.697V31.4355H257.262V33.8709Z" fill="#1E81CE"/>
<path fill-rule="evenodd" clip-rule="evenodd" d="M208.562 38.7391H210.997V36.3037H208.562V38.7391Z" fill="#1E81CE"/>
<path fill-rule="evenodd" clip-rule="evenodd" d="M259.695 43.6102H262.129V41.1748H259.695V43.6102Z" fill="#1E81CE"/>
<path fill-rule="evenodd" clip-rule="evenodd" d="M214.648 55.786H217.084V53.3506H214.648V55.786Z" fill="#1E81CE"/>
<path fill-rule="evenodd" clip-rule="evenodd" d="M251.172 55.786H253.607V53.3506H251.172V55.786Z" fill="#1E81CE"/>
<path fill-rule="evenodd" clip-rule="evenodd" d="M237.779 63.0887H240.215V60.6533H237.779V63.0887Z" fill="#1E81CE"/>
<path fill-rule="evenodd" clip-rule="evenodd" d="M228.04 66.742H230.475V64.3066H228.04V66.742Z" fill="#1E81CE"/>
<path fill-rule="evenodd" clip-rule="evenodd" d="M216.662 3.55612C215.013 4.34453 216.241 6.31936 217.564 5.7489C219 5.12916 218.04 2.89658 216.662 3.55612Z" fill="#9AC8FF"/>
<path fill-rule="evenodd" clip-rule="evenodd" d="M205.702 20.6004C204.053 21.3888 205.281 23.3655 206.604 22.7951C208.04 22.1753 207.08 19.9428 205.702 20.6004Z" fill="#9AC8FF"/>
<path fill-rule="evenodd" clip-rule="evenodd" d="M233.704 38.8623C232.059 39.6432 233.278 41.6312 234.608 41.057C236.003 40.4543 235.114 38.1914 233.704 38.8623Z" fill="#9AC8FF"/>
<path fill-rule="evenodd" clip-rule="evenodd" d="M253.19 5.99429C251.538 6.7865 252.764 8.75943 254.089 8.18707C255.48 7.58628 254.598 5.31959 253.19 5.99429Z" fill="#9AC8FF"/>
<path fill-rule="evenodd" clip-rule="evenodd" d="M233.709 7.21109C232.056 8.00329 233.282 9.97622 234.607 9.40386C235.998 8.80308 235.117 6.53639 233.709 7.21109Z" fill="#9AC8FF"/>
<path fill-rule="evenodd" clip-rule="evenodd" d="M261.709 20.6027C260.056 21.3949 261.282 23.3678 262.607 22.7955C263.998 22.1947 263.117 19.928 261.709 20.6027Z" fill="#9AC8FF"/>
<path fill-rule="evenodd" clip-rule="evenodd" d="M266.582 31.5597C264.928 32.3519 266.154 34.3248 267.48 33.7525C268.872 33.1517 267.99 30.885 266.582 31.5597Z" fill="#9AC8FF"/>
<path fill-rule="evenodd" clip-rule="evenodd" d="M254.406 61.9972C252.753 62.7894 253.98 64.7624 255.304 64.19C256.695 63.5892 255.814 61.3225 254.406 61.9972Z" fill="#9AC8FF"/>
<path fill-rule="evenodd" clip-rule="evenodd" d="M200.835 38.8634C199.186 39.6556 200.412 41.6323 201.735 41.0543C203.13 40.4459 202.241 38.1868 200.835 38.8634Z" fill="#9AC8FF"/>
<path fill-rule="evenodd" clip-rule="evenodd" d="M266.578 51.0372C264.929 51.8294 266.156 53.8061 267.478 53.228C268.873 52.6216 267.984 50.3606 266.578 51.0372Z" fill="#9AC8FF"/>
<path fill-rule="evenodd" clip-rule="evenodd" d="M204.485 55.9083C202.845 56.6968 204.056 58.6792 205.385 58.0992C206.78 57.4909 205.891 55.2317 204.485 55.9083Z" fill="#9AC8FF"/>
<path fill-rule="evenodd" clip-rule="evenodd" d="M242.694 70.6974C242.988 72.0525 245.372 71.7549 245.042 70.1402C244.75 68.7131 242.332 69.0239 242.694 70.6974Z" fill="#9AC8FF"/>
<path fill-rule="evenodd" clip-rule="evenodd" d="M215.908 70.6988C216.208 72.052 218.582 71.7525 218.256 70.1416C217.967 68.7126 215.539 69.0234 215.908 70.6988Z" fill="#9AC8FF"/>
<path fill-rule="evenodd" clip-rule="evenodd" d="M178.502 104.817C178.064 103.468 177.901 104.073 177.122 102.903C175.347 103.868 174.615 102.45 173.167 101.518C164.724 96.0823 153.097 96.2226 145.569 102.172C143.046 104.165 141.574 105.519 139.695 108.142C135.06 114.614 134.118 124.6 137.616 131.881C138.227 133.153 139.053 134.745 139.822 135.782L143.982 140.413C144.369 140.728 144.458 140.722 144.886 141.045C149.081 144.2 153.601 146.069 159.184 146.173C162.891 146.243 166.229 145.627 169.373 144.223C173.218 142.506 175.24 140.813 178.057 138.012C179.103 136.972 180.911 134.061 181.661 132.469C183.068 129.484 183.926 126.825 184.089 123.103C184.629 110.812 177.85 107.783 178.502 104.816V104.817Z" fill="#FCEA43" stroke="#FEFEFE" stroke-width="1.88934" stroke-miterlimit="22.9256"/>
<path fill-rule="evenodd" clip-rule="evenodd" d="M178.502 104.817C177.85 107.787 184.629 110.814 184.089 123.104C183.926 126.827 183.068 129.486 181.661 132.471C180.911 134.063 179.103 136.974 178.057 138.014C175.24 140.817 173.218 142.508 169.373 144.225C166.228 145.629 162.891 146.245 159.184 146.175C153.601 146.071 149.08 144.202 144.886 141.047C144.458 140.724 144.367 140.73 143.982 140.415L139.822 135.783C139.053 134.747 138.228 133.155 137.616 131.883C134.118 124.602 135.06 114.616 139.695 108.144C141.573 105.521 143.046 104.167 145.569 102.174C153.096 96.2245 164.724 96.0842 173.167 101.52C174.615 102.45 175.346 103.87 177.122 102.905L177.31 101.292C175.324 100.064 173.874 98.8929 171.207 97.6326C168.412 96.3116 166.168 96.1979 163.755 95.2655L159.703 95.0323C158.464 90.3322 154.969 86.6668 151.065 84.0022C146.607 80.9584 140.92 79.9407 135.42 80.7594C133.507 81.0456 132.264 81.4682 130.505 82.2017C128.872 82.884 127.645 83.8884 126.235 84.4437C124.786 85.7874 121.198 87.6258 122.246 90.2621C124.867 90.5975 124.033 89.5002 125.777 88.4825L126.469 87.7528C127.547 85.9599 132.691 83.86 134.487 83.4582C148.192 80.4088 157.008 91.9204 156.898 95.1461L151.523 96.3097L149.171 97.1967C147.832 95.2408 143.037 89.8754 142.279 88.3233C140.997 87.6163 140.889 85.8708 139.089 85.2966C137.612 85.7287 137.997 86.2726 136.78 87.0762C136.346 88.7459 129.097 96.3003 128.248 98.2921L128.421 99.6378L138.858 105.119L138.01 106.227C137.025 106.229 131.284 103.205 129.842 102.498L128.385 102.518C127.196 105.829 134.722 111.223 133.83 115.342C133.437 117.15 133.28 119.069 132.855 120.811C131.936 120.163 130.466 119.975 127.659 118.074C122.221 114.392 119.229 107.438 119.733 100.561C119.858 98.8607 120.176 97.3938 120.722 95.8985C121.365 94.1416 122.472 93.3172 120.862 92.1194C119.286 92.1364 119.121 92.8415 118.228 95.5327C117.648 97.2782 117.366 98.9498 117.207 100.858C116.653 107.533 120.004 115.448 124.691 118.918C127.16 120.745 129.27 122.445 133.028 123.398L133.217 125.866C120.821 123.722 109.586 107.488 117.423 91.3746C118.619 88.9165 121.658 84.9346 123.633 83.5795C124.67 82.8688 125.276 82.1391 126.613 81.5971C136.322 75.4471 149.293 77.7517 157.107 85.8746C157.67 86.4603 158.007 87.171 158.653 87.9916C161.634 91.7688 160.717 93.5351 163.109 93.4593C164.168 92.6216 163.941 92.1554 163.225 90.7738C161.697 87.8324 160.243 85.5543 157.872 83.2895C154.73 80.2875 151.87 78.3032 147.471 76.9178C139.191 74.31 129.757 75.6404 122.873 80.9736C121.478 82.0539 118.753 84.6863 117.677 86.1684C110.731 95.7487 110.359 108.551 117.195 117.86L121.122 122.183C121.604 122.636 121.725 122.86 122.195 123.241C124.816 125.377 128.364 127.251 131.902 128.157C133.763 128.633 133.687 128.208 134.279 130.003C135.984 135.185 138.736 139.144 142.709 142.614C154.381 152.814 178.193 150.733 185.257 130.257C187.686 123.212 186.771 116.204 183.636 109.645C182.679 107.643 181.341 105.928 180.374 104.419C179.129 104.402 179.396 104.22 178.498 104.817H178.502Z" fill="#31322E" stroke="#FEFEFE" stroke-width="1.88934" stroke-miterlimit="22.9256"/>
<path fill-rule="evenodd" clip-rule="evenodd" d="M146.827 107.678C147.239 107.695 148.326 107.244 149.094 106.971C150.089 106.621 150.879 106.569 152.079 106.331C153.783 105.989 157.211 105.707 158.472 106.573C159.961 105.548 160.505 106.113 161.777 107.089C162.728 107.818 163.81 108.364 164.716 108.997L165.476 108.918C165.592 108.954 165.853 109.164 165.986 109.255C167.654 110.396 167.825 110.104 168.742 111.432C168.78 111.487 168.82 111.569 168.857 111.622L170.125 112.746C171.85 114.169 170.688 114.931 172.767 115.719C174.897 115.947 174.685 117.039 173.885 118.143C174.124 119.101 174.657 120.065 174.793 120.857L176.685 120.816L176.779 122.4C176.23 123.128 176.851 122.738 175.813 123.139C175.045 123.926 175.457 122.912 175.388 124.43C175.259 127.35 176.055 129.759 174.409 134.01L166.801 133.538C161.639 136.063 160.979 138.712 158.174 136.906C156.819 136.032 155.354 135.081 154.13 134.24C151.304 132.301 151.067 132.739 151.448 130.591C153.394 130.222 154.598 131.584 155.913 132.445C156.675 132.943 157.272 133.267 157.998 133.713C160.717 135.386 158.953 135.293 163.265 132.655C162.652 132.089 163.31 132.617 162.554 132.227C162.463 132.18 161.944 131.96 161.855 131.918C161.144 131.584 161.701 131.88 160.877 131.38L157.676 129.448C156.326 128.501 156.984 129.331 155.708 128.069L155.229 127.604C155.181 127.563 154.935 127.388 154.852 127.332C152.958 129.492 151.895 126.073 150.163 122.514C150.045 124.267 150.246 126.302 149.809 127.855L147.862 127.739C147.373 126.115 147.286 118.365 147.728 116.426C147.312 114.954 146.261 108.309 146.219 108.23C142.694 110.5 140.387 117.239 140.37 121.869C140.332 132.219 146.371 133.091 144.113 135.71L146.075 137.198C148.069 136.548 147.457 137.285 150.785 139.099C169.551 149.32 190.544 123.823 172.381 107.151C164.798 100.192 151.698 101.592 146.825 107.676L146.827 107.678Z" fill="#EDAD1B" stroke="#FEFEFE" stroke-width="1.88934" stroke-miterlimit="22.9256"/>
<path fill-rule="evenodd" clip-rule="evenodd" d="M146.826 107.68L146.22 108.236C146.263 108.315 147.313 114.958 147.728 116.432C149.572 114.162 150.763 117.956 152.368 121.248C152.478 119.487 152.315 117.509 152.711 115.904L154.733 115.989C155.139 117.884 155.178 125.205 154.852 127.339C154.936 127.396 155.182 127.571 155.23 127.612L155.709 128.077C156.985 129.339 156.325 128.509 157.676 129.456L160.877 131.388C161.7 131.888 161.143 131.592 161.855 131.926C161.944 131.968 162.464 132.187 162.555 132.235C163.311 132.625 162.651 132.096 163.265 132.663C164.205 132.019 164.647 131.789 165.477 131.185C166.705 130.292 166.582 130.273 168.14 130.611C168.638 133.434 167.622 132.019 166.802 133.546L174.409 134.018C176.056 129.769 175.258 127.358 175.389 124.438C175.457 122.92 175.044 123.932 175.814 123.147L174.635 122.889C174.424 121.978 174.358 121.767 174.794 120.865C174.658 120.073 174.125 119.108 173.886 118.151L172.023 118.282C172.084 120.714 172.273 125.814 171.754 127.866L169.774 127.745C169.232 125.865 169.504 120.949 169.484 118.528C167.973 117.66 166.72 118.693 167.314 115.864L172.77 115.725C170.693 114.937 171.853 114.175 170.128 112.752L168.86 111.628C168.822 111.575 168.782 111.493 168.744 111.438C167.829 110.11 167.657 110.402 165.989 109.261C165.856 109.17 165.593 108.959 165.479 108.923L164.719 109.003C168.091 111.529 168.691 110.794 168.098 113.142C165.318 113.764 161.086 108.87 159.801 108.869C158.349 108.865 154.373 113.825 151.504 113.135C151.079 111.482 151.242 111.52 152.32 110.735L158.474 106.581C157.214 105.715 153.785 105.997 152.082 106.338C150.884 106.577 150.092 106.628 149.097 106.979C148.327 107.252 147.239 107.703 146.83 107.686L146.826 107.68Z" fill="#FEC641" stroke="#FEFEFE" stroke-width="1.88934" stroke-miterlimit="22.9256"/>
<path fill-rule="evenodd" clip-rule="evenodd" d="M144.116 135.712C146.372 133.093 140.336 132.221 140.373 121.872C140.39 117.242 142.697 110.504 146.222 108.232L146.829 107.676C151.701 101.593 164.801 100.19 172.384 107.151C190.548 123.824 169.554 149.32 150.788 139.099C147.46 137.285 148.072 136.548 146.078 137.198L145.712 138.701C150.462 142.266 155.124 144.294 161.608 143.737C164.75 143.468 167.31 142.66 169.848 141.385C171.061 140.775 172.209 140.03 173.036 139.389C174.228 138.466 175.172 137.922 176.006 136.861C182.47 128.634 184.083 118.5 177.812 109.357C171.114 99.5894 157.61 97.1389 148.178 103.236C144.772 105.438 142.458 107.546 140.385 111.613C136.035 120.145 137.29 128.495 142.953 135.873L144.115 135.71L144.116 135.712Z" fill="#31322E" stroke="#FEFEFE" stroke-width="1.88934" stroke-miterlimit="22.9256"/>
<path fill-rule="evenodd" clip-rule="evenodd" d="M122.248 90.263C121.908 90.7273 122.015 90.733 121.753 91.1423C121.099 92.1658 121.639 91.6086 120.864 92.1222C122.473 93.32 121.366 94.1444 120.724 95.9013C120.178 97.3966 119.86 98.8635 119.735 100.563C119.23 107.441 122.221 114.395 127.66 118.077C130.469 119.978 131.938 120.166 132.857 120.814C133.282 119.072 133.439 117.152 133.831 115.344C134.724 111.226 127.198 105.834 128.386 102.521L129.844 102.5C128.712 101.56 129.29 102.135 128.763 101.075C127.939 99.4207 128.244 99.9059 128.422 99.6386L128.25 98.293C127.418 99.0776 128.221 98.3821 127.509 98.8275C126.501 94.6675 125.71 93.1664 125.778 88.4814C124.035 89.4973 124.869 90.5946 122.248 90.2611V90.263Z" fill="#0295C9" stroke="#FEFEFE" stroke-width="1.88934" stroke-miterlimit="22.9256"/>
<path fill-rule="evenodd" clip-rule="evenodd" d="M170.568 87.5749L170.803 85.3253C172.304 85.331 174.059 85.2457 175.329 85.6323C175.716 86.9021 175.632 88.6552 175.64 90.1998L173.383 90.3552C173.009 92.819 174.235 93.1639 175.581 94.519C179.542 98.5028 179.087 98.4554 182.999 94.5209C184.227 93.2852 185.582 92.7925 185.18 90.3988L182.942 90.1581C182.965 86.3146 183.281 84.2431 181.164 81.3472C178.613 77.8581 174.836 78.0192 170.761 78.0211L170.6 75.779C168.193 75.3829 167.786 76.6224 166.44 77.9623C162.455 81.9385 162.508 81.4514 166.438 85.3859C167.668 86.6178 168.171 87.9483 170.564 87.573L170.568 87.5749Z" fill="#31322E" stroke="#FEFEFE" stroke-width="1.88934" stroke-miterlimit="22.9256"/>
<path fill-rule="evenodd" clip-rule="evenodd" d="M124.489 144.996C123.968 143.114 122.91 144.126 120.981 143.322C115.149 140.889 118.333 134.223 116.613 131.619L118.373 129.84L119.226 130.617L120.047 131.524C119.569 133.374 119.544 133.128 119.546 135.885C119.546 137.479 119.571 139.232 120.416 140.239C121.754 141.835 127.747 141.979 129.345 140.783L130.459 141.996L131.111 142.541L129.449 144.255C128.376 144.031 127.518 143.083 126.892 144.994L127.038 148.479C129.515 148.877 129.875 147.632 131.225 146.288C132.061 145.456 134.16 143.969 134.162 142.583C134.162 141.298 132.038 139.67 131.234 138.868C129.883 137.519 129.5 136.31 127.095 136.679L126.869 138.935C125.38 138.914 123.587 139.03 122.347 138.616C121.948 137.35 122.031 135.594 122.033 134.049L124.286 133.899C124.669 131.413 123.447 131.126 122.086 129.739C118.087 125.659 118.504 125.879 114.676 129.739C113.322 131.102 112.111 131.449 112.471 133.871L114.725 134.096C114.708 138.52 114.806 144.016 120.392 145.769C120.962 145.949 122.063 146.201 122.668 146.22C124.245 146.267 124.165 146.125 124.489 144.998V144.996Z" fill="#31322E" stroke="#FEFEFE" stroke-width="1.88934" stroke-miterlimit="22.9256"/>
<path fill-rule="evenodd" clip-rule="evenodd" d="M126.471 87.7549C128.432 87.5275 129.621 86.9722 131.631 86.7258C132.626 86.6045 133.582 86.614 134.537 86.6178C135.475 86.6216 136.769 86.3392 136.783 87.0821C137.997 86.2766 137.613 85.7346 139.091 85.3025C140.891 85.8767 140.999 87.6222 142.281 88.3291C143.954 88.7234 146.818 90.3855 147.737 91.6363C148.525 92.7071 148.908 92.6427 149.909 93.7211C150.595 94.4602 151.438 95.3794 151.526 96.3137L156.9 95.1501C157.012 91.9244 148.194 80.4128 134.489 83.4622C132.693 83.8621 127.549 85.9639 126.471 87.7568V87.7549Z" fill="#0295C9" stroke="#FEFEFE" stroke-width="1.88934" stroke-miterlimit="22.9256"/>
<path fill-rule="evenodd" clip-rule="evenodd" d="M120.866 92.1218C121.641 91.6082 121.102 92.1673 121.754 91.1419C122.016 90.7326 121.91 90.7269 122.249 90.2626C121.201 87.6263 124.789 85.7879 126.239 84.4442L126.616 81.5957C125.28 82.1396 124.673 82.8693 123.636 83.5781C121.662 84.9332 118.622 88.9151 117.426 91.3732C109.589 107.486 120.824 123.721 133.221 125.864L133.031 123.397C129.273 122.445 127.162 120.743 124.694 118.916C120.007 115.446 116.656 107.532 117.21 100.857C117.367 98.9484 117.651 97.2768 118.231 95.5313C119.124 92.8401 119.289 92.135 120.866 92.118V92.1218Z" fill="#47C9E7" stroke="#FEFEFE" stroke-width="1.88934" stroke-miterlimit="22.9256"/>
<path fill-rule="evenodd" clip-rule="evenodd" d="M126.613 81.5959L126.236 84.4444C127.646 83.8891 128.871 82.8827 130.506 82.2023C132.267 81.467 133.508 81.0443 135.421 80.7601C140.921 79.9394 146.608 80.9591 151.066 84.0028C154.97 86.6675 158.465 90.3347 159.704 95.033L163.756 95.2661L163.112 93.46C160.72 93.5377 161.637 91.7694 158.656 87.9922C158.01 87.1716 157.672 86.4609 157.11 85.8753C149.294 77.7523 136.323 75.4478 126.615 81.5978L126.613 81.5959Z" fill="#ABEAF4" stroke="#FEFEFE" stroke-width="1.88934" stroke-miterlimit="22.9256"/>
<path fill-rule="evenodd" clip-rule="evenodd" d="M147.731 116.431C147.29 118.372 147.379 126.121 147.866 127.744L149.812 127.859C150.25 126.307 150.049 124.27 150.167 122.518C151.901 126.078 152.962 129.497 154.855 127.336C155.18 125.202 155.14 117.883 154.736 115.986L152.714 115.9C152.32 117.506 152.483 119.484 152.371 121.245C150.766 117.953 149.573 114.159 147.731 116.429V116.431Z" fill="#31322E" stroke="#FEFEFE" stroke-width="1.88934" stroke-miterlimit="22.9256"/>
<path fill-rule="evenodd" clip-rule="evenodd" d="M126.47 87.755L125.779 88.4847C125.71 93.1697 126.501 94.6707 127.509 98.8307C128.221 98.3853 127.418 99.0809 128.25 98.2963C129.099 96.3044 136.348 88.75 136.782 87.0803C136.769 86.3374 135.476 86.6198 134.536 86.616C133.581 86.6122 132.626 86.6027 131.631 86.724C129.62 86.9723 128.432 87.5257 126.47 87.7531V87.755Z" fill="#01B4D5" stroke="#FEFEFE" stroke-width="1.88934" stroke-miterlimit="22.9256"/>
<path fill-rule="evenodd" clip-rule="evenodd" d="M157.578 127.762L159.566 127.849C159.909 126.42 159.845 124.705 159.847 123.137L163.232 122.982L163.338 120.869L159.856 120.533L159.849 118.259L164.46 118.136L164.568 115.983C162.976 115.676 161.454 115.693 159.779 115.706C157.44 115.727 157.3 115.867 157.281 118.196C157.264 120.626 157.082 125.842 157.578 127.762Z" fill="#31322E" stroke="#FEFEFE" stroke-width="1.88934" stroke-miterlimit="22.9256"/>
<path fill-rule="evenodd" clip-rule="evenodd" d="M166.801 133.543C167.621 132.015 168.639 133.433 168.139 130.607C166.581 130.27 166.704 130.289 165.476 131.181C164.644 131.786 164.202 132.013 163.264 132.66C158.952 135.298 160.719 135.393 157.997 133.717C157.271 133.27 156.674 132.946 155.912 132.449C154.597 131.589 153.394 130.228 151.447 130.596C151.064 132.743 151.303 132.305 154.129 134.244C155.353 135.086 156.818 136.037 158.173 136.911C160.978 138.717 161.638 136.067 166.801 133.543Z" fill="#31322E" stroke="#FEFEFE" stroke-width="1.88934" stroke-miterlimit="22.9256"/>
<path fill-rule="evenodd" clip-rule="evenodd" d="M158.471 106.575L152.318 110.729C151.239 111.514 151.076 111.476 151.501 113.129C154.37 113.819 158.348 108.859 159.798 108.863C161.083 108.866 165.315 113.758 168.095 113.136C168.689 110.788 168.088 111.523 164.716 108.997C163.81 108.366 162.728 107.82 161.777 107.089C160.505 106.113 159.961 105.548 158.471 106.573V106.575Z" fill="#31322E" stroke="#FEFEFE" stroke-width="1.88934" stroke-miterlimit="22.9256"/>
<path fill-rule="evenodd" clip-rule="evenodd" d="M173.885 118.146C174.685 117.041 174.897 115.947 172.767 115.722L167.311 115.86C166.717 118.688 167.968 117.655 169.481 118.525C169.502 120.945 169.229 125.861 169.771 127.741L171.751 127.862C172.272 125.81 172.083 120.71 172.02 118.278L173.883 118.148L173.885 118.146Z" fill="#31322E" stroke="#FEFEFE" stroke-width="1.88934" stroke-miterlimit="22.9256"/>
<path fill-rule="evenodd" clip-rule="evenodd" d="M131.357 98.484L137.792 101.535L137.782 90.2568L132.932 96.2211C132.28 97.0626 131.841 97.4492 131.357 98.484Z" fill="#47C9E7" stroke="#FEFEFE" stroke-width="1.88934" stroke-miterlimit="22.9256"/>
<path fill-rule="evenodd" clip-rule="evenodd" d="M140.353 101.561C142.049 100.744 145.276 98.8448 146.865 98.5264L140.398 90.2158L140.353 101.561Z" fill="#ABEAF4" stroke="#FEFEFE" stroke-width="1.88934" stroke-miterlimit="22.9256"/>
<path fill-rule="evenodd" clip-rule="evenodd" d="M124.49 144.996L126.891 144.992C127.517 143.082 128.375 144.029 129.448 144.253L131.11 142.54L130.458 141.994C128.441 142.68 122.009 143.393 119.852 141.107C118.074 139.223 118.332 136.358 118.408 133.128C118.488 129.724 118.853 130.82 119.227 130.617L118.374 129.84L116.613 131.619C118.336 134.225 115.15 140.891 120.982 143.322C122.911 144.128 123.969 143.116 124.49 144.996Z" fill="#47C9E7" stroke="#FEFEFE" stroke-width="1.88934" stroke-miterlimit="22.9256"/>
<path fill-rule="evenodd" clip-rule="evenodd" d="M180.759 92.9394C180.101 92.5642 180.369 92.8712 179.859 92.0639C179.144 90.9343 179.311 89.3973 179.328 88.0687C179.457 78.242 174.689 83.0843 169.712 81.4828L168.008 80.249L166.605 81.6572L168.313 83.469C169.918 82.385 175.659 82.3546 177.096 83.8689C178.892 85.7641 178.07 90.8869 177.545 92.8599C178.456 93.4152 178.579 93.6919 179.292 94.4064L180.761 92.9376L180.759 92.9394Z" fill="#47C9E7" stroke="#FEFEFE" stroke-width="1.88934" stroke-miterlimit="22.9256"/>
<path fill-rule="evenodd" clip-rule="evenodd" d="M151.525 96.3117C151.438 95.3755 150.597 94.4582 149.909 93.7191C148.908 92.6407 148.525 92.7051 147.737 91.6343C146.817 90.3835 143.954 88.7214 142.28 88.3271C143.04 89.8774 147.833 95.2447 149.173 97.2006L151.525 96.3136V96.3117Z" fill="#01B4D5" stroke="#FEFEFE" stroke-width="1.88934" stroke-miterlimit="22.9256"/>
<path fill-rule="evenodd" clip-rule="evenodd" d="M130.459 141.995L129.344 140.782C127.747 141.978 121.752 141.834 120.416 140.238C119.573 139.231 119.548 137.478 119.546 135.884C119.544 133.127 119.569 133.373 120.046 131.524L119.226 130.616C118.852 130.819 118.489 129.725 118.407 133.127C118.331 136.356 118.075 139.224 119.851 141.106C122.008 143.391 128.44 142.679 130.457 141.993L130.459 141.995Z" fill="#ABEAF4" stroke="#FEFEFE" stroke-width="1.88934" stroke-miterlimit="22.9256"/>
<path fill-rule="evenodd" clip-rule="evenodd" d="M180.758 92.9384C181.228 92.2523 180.555 92.3774 180.449 90.5239C180.388 89.4701 180.47 88.2212 180.457 87.1409C180.398 82.9506 178.025 80.5266 173.821 80.4943C172.737 80.4868 171.5 80.5701 170.437 80.5114C168.445 80.4015 168.733 79.7021 168.007 80.248L169.711 81.4817C174.688 83.0851 179.454 78.2409 179.327 88.0677C179.31 89.3962 179.145 90.9313 179.858 92.0628C180.367 92.8683 180.098 92.5631 180.758 92.9384Z" fill="#ABEAF4" stroke="#FEFEFE" stroke-width="1.88934" stroke-miterlimit="22.9256"/>
<path fill-rule="evenodd" clip-rule="evenodd" d="M129.842 102.502C131.284 103.208 137.025 106.233 138.01 106.231L138.857 105.123L128.42 99.6416C128.242 99.9069 127.937 99.4218 128.762 101.078C129.288 102.136 128.708 101.563 129.842 102.503V102.502Z" fill="#01B4D5" stroke="#FEFEFE" stroke-width="1.88934" stroke-miterlimit="22.9256"/>
<path fill-rule="evenodd" clip-rule="evenodd" d="M135.356 110.816L136.535 108.455L132.951 106.846C133.45 107.949 134.555 110.007 135.354 110.814L135.356 110.816Z" fill="#47C9E7" stroke="#FEFEFE" stroke-width="1.88934" stroke-miterlimit="22.9256"/>
<path fill-rule="evenodd" clip-rule="evenodd" d="M142.955 120.857C142.488 122.786 143.707 123.919 144.844 122.758C145.977 121.601 144.384 119.941 142.955 120.857Z" fill="#31322E" stroke="#FEFEFE" stroke-width="1.88934" stroke-miterlimit="22.9256"/>
<path fill-rule="evenodd" clip-rule="evenodd" d="M174.793 120.859C174.355 121.761 174.423 121.973 174.633 122.883L175.812 123.141C176.851 122.739 176.229 123.13 176.779 122.402L176.684 120.817L174.793 120.859Z" fill="#31322E" stroke="#FEFEFE" stroke-width="1.88934" stroke-miterlimit="22.9256"/>
<path fill-rule="evenodd" clip-rule="evenodd" d="M122.638 103.604C124.41 103.628 124.935 102.819 123.998 101.346C121.696 100.759 121.808 102.355 122.638 103.604Z" fill="#31322E" stroke="#FEFEFE" stroke-width="1.88934" stroke-miterlimit="22.9256"/>
<path fill-rule="evenodd" clip-rule="evenodd" d="M178.502 104.817C178.064 103.468 177.901 104.073 177.122 102.903C175.347 103.868 174.615 102.45 173.167 101.518C164.724 96.0823 153.097 96.2226 145.569 102.172C143.046 104.165 141.574 105.519 139.695 108.142C135.06 114.614 134.118 124.6 137.616 131.881C138.227 133.153 139.053 134.745 139.822 135.782L143.982 140.413C144.369 140.728 144.458 140.722 144.886 141.045C149.081 144.2 153.601 146.069 159.184 146.173C162.891 146.243 166.229 145.627 169.373 144.223C173.218 142.506 175.24 140.813 178.057 138.012C179.103 136.972 180.911 134.061 181.661 132.469C183.068 129.484 183.926 126.825 184.089 123.103C184.629 110.812 177.85 107.783 178.502 104.816V104.817Z" fill="#FCEA43"/>
<path fill-rule="evenodd" clip-rule="evenodd" d="M178.502 104.817C177.85 107.787 184.629 110.814 184.089 123.104C183.926 126.827 183.068 129.486 181.661 132.471C180.911 134.063 179.103 136.974 178.057 138.014C175.24 140.817 173.218 142.508 169.373 144.225C166.228 145.629 162.891 146.245 159.184 146.175C153.601 146.071 149.08 144.202 144.886 141.047C144.458 140.724 144.367 140.73 143.982 140.415L139.822 135.783C139.053 134.747 138.228 133.155 137.616 131.883C134.118 124.602 135.06 114.616 139.695 108.144C141.573 105.521 143.046 104.167 145.569 102.174C153.096 96.2245 164.724 96.0842 173.167 101.52C174.615 102.45 175.346 103.87 177.122 102.905L177.31 101.292C175.324 100.064 173.874 98.8929 171.207 97.6326C168.412 96.3116 166.168 96.1979 163.755 95.2655L159.703 95.0323C158.464 90.3322 154.969 86.6668 151.065 84.0022C146.607 80.9584 140.92 79.9407 135.42 80.7594C133.507 81.0456 132.264 81.4682 130.505 82.2017C128.872 82.884 127.645 83.8884 126.235 84.4437C124.786 85.7874 121.198 87.6258 122.246 90.2621C124.867 90.5975 124.033 89.5002 125.777 88.4825L126.469 87.7528C127.547 85.9599 132.691 83.86 134.487 83.4582C148.192 80.4088 157.008 91.9204 156.898 95.1461L151.523 96.3097L149.171 97.1967C147.832 95.2408 143.037 89.8754 142.279 88.3233C140.997 87.6163 140.889 85.8708 139.089 85.2966C137.612 85.7287 137.997 86.2726 136.78 87.0762C136.346 88.7459 129.097 96.3003 128.248 98.2921L128.421 99.6378L138.858 105.119L138.01 106.227C137.025 106.229 131.284 103.205 129.842 102.498L128.385 102.518C127.196 105.829 134.722 111.223 133.83 115.342C133.437 117.15 133.28 119.069 132.855 120.811C131.936 120.163 130.466 119.975 127.659 118.074C122.221 114.392 119.229 107.438 119.733 100.561C119.858 98.8607 120.176 97.3938 120.722 95.8985C121.365 94.1416 122.472 93.3172 120.862 92.1194C119.286 92.1364 119.121 92.8415 118.228 95.5327C117.648 97.2782 117.366 98.9498 117.207 100.858C116.653 107.533 120.004 115.448 124.691 118.918C127.16 120.745 129.27 122.445 133.028 123.398L133.217 125.866C120.821 123.722 109.586 107.488 117.423 91.3746C118.619 88.9165 121.658 84.9346 123.633 83.5795C124.67 82.8688 125.276 82.1391 126.613 81.5971C136.322 75.4471 149.293 77.7517 157.107 85.8746C157.67 86.4603 158.007 87.171 158.653 87.9916C161.634 91.7688 160.717 93.5351 163.109 93.4593C164.168 92.6216 163.941 92.1554 163.225 90.7738C161.697 87.8324 160.243 85.5543 157.872 83.2895C154.73 80.2875 151.87 78.3032 147.471 76.9178C139.191 74.31 129.757 75.6404 122.873 80.9736C121.478 82.0539 118.753 84.6863 117.677 86.1684C110.731 95.7487 110.359 108.551 117.195 117.86L121.122 122.183C121.604 122.636 121.725 122.86 122.195 123.241C124.816 125.377 128.364 127.251 131.902 128.157C133.763 128.633 133.687 128.208 134.279 130.003C135.984 135.185 138.736 139.144 142.709 142.614C154.381 152.814 178.193 150.733 185.257 130.257C187.686 123.212 186.771 116.204 183.636 109.645C182.679 107.643 181.341 105.928 180.374 104.419C179.129 104.402 179.396 104.22 178.498 104.817H178.502Z" fill="#31322E"/>
<path fill-rule="evenodd" clip-rule="evenodd" d="M146.827 107.678C147.239 107.695 148.326 107.244 149.094 106.971C150.089 106.621 150.879 106.569 152.079 106.331C153.783 105.989 157.211 105.707 158.472 106.573C159.961 105.548 160.505 106.113 161.777 107.089C162.728 107.818 163.81 108.364 164.716 108.997L165.476 108.918C165.592 108.954 165.853 109.164 165.986 109.255C167.654 110.396 167.825 110.104 168.742 111.432C168.78 111.487 168.82 111.569 168.857 111.622L170.125 112.746C171.85 114.169 170.688 114.931 172.767 115.719C174.897 115.947 174.685 117.039 173.885 118.143C174.124 119.101 174.657 120.065 174.793 120.857L176.685 120.816L176.779 122.4C176.23 123.128 176.851 122.738 175.813 123.139C175.045 123.926 175.457 122.912 175.388 124.43C175.259 127.35 176.055 129.759 174.409 134.01L166.801 133.538C161.639 136.063 160.979 138.712 158.174 136.906C156.819 136.032 155.354 135.081 154.13 134.24C151.304 132.301 151.067 132.739 151.448 130.591C153.394 130.222 154.598 131.584 155.913 132.445C156.675 132.943 157.272 133.267 157.998 133.713C160.717 135.386 158.953 135.293 163.265 132.655C162.652 132.089 163.31 132.617 162.554 132.227C162.463 132.18 161.944 131.96 161.855 131.918C161.144 131.584 161.701 131.88 160.877 131.38L157.676 129.448C156.326 128.501 156.984 129.331 155.708 128.069L155.229 127.604C155.181 127.563 154.935 127.388 154.852 127.332C152.958 129.492 151.895 126.073 150.163 122.514C150.045 124.267 150.246 126.302 149.809 127.855L147.862 127.739C147.373 126.115 147.286 118.365 147.728 116.426C147.312 114.954 146.261 108.309 146.219 108.23C142.694 110.5 140.387 117.239 140.37 121.869C140.332 132.219 146.371 133.091 144.113 135.71L146.075 137.198C148.069 136.548 147.457 137.285 150.785 139.099C169.551 149.32 190.544 123.823 172.381 107.151C164.798 100.192 151.698 101.592 146.825 107.676L146.827 107.678Z" fill="#EDAD1B"/>
<path fill-rule="evenodd" clip-rule="evenodd" d="M146.826 107.68L146.22 108.236C146.263 108.315 147.313 114.958 147.728 116.432C149.572 114.162 150.763 117.956 152.368 121.248C152.478 119.487 152.315 117.509 152.711 115.904L154.733 115.989C155.139 117.884 155.178 125.205 154.852 127.339C154.936 127.396 155.182 127.571 155.23 127.612L155.709 128.077C156.985 129.339 156.325 128.509 157.676 129.456L160.877 131.388C161.7 131.888 161.143 131.592 161.855 131.926C161.944 131.968 162.464 132.187 162.555 132.235C163.311 132.625 162.651 132.096 163.265 132.663C164.205 132.019 164.647 131.789 165.477 131.185C166.705 130.292 166.582 130.273 168.14 130.611C168.638 133.434 167.622 132.019 166.802 133.546L174.409 134.018C176.056 129.769 175.258 127.358 175.389 124.438C175.457 122.92 175.044 123.932 175.814 123.147L174.635 122.889C174.424 121.978 174.358 121.767 174.794 120.865C174.658 120.073 174.125 119.108 173.886 118.151L172.023 118.282C172.084 120.714 172.273 125.814 171.754 127.866L169.774 127.745C169.232 125.865 169.504 120.949 169.484 118.528C167.973 117.66 166.72 118.693 167.314 115.864L172.77 115.725C170.693 114.937 171.853 114.175 170.128 112.752L168.86 111.628C168.822 111.575 168.782 111.493 168.744 111.438C167.829 110.11 167.657 110.402 165.989 109.261C165.856 109.17 165.593 108.959 165.479 108.923L164.719 109.003C168.091 111.529 168.691 110.794 168.098 113.142C165.318 113.764 161.086 108.87 159.801 108.869C158.349 108.865 154.373 113.825 151.504 113.135C151.079 111.482 151.242 111.52 152.32 110.735L158.474 106.581C157.214 105.715 153.785 105.997 152.082 106.338C150.884 106.577 150.092 106.628 149.097 106.979C148.327 107.252 147.239 107.703 146.83 107.686L146.826 107.68Z" fill="#FEC641"/>
<path fill-rule="evenodd" clip-rule="evenodd" d="M144.116 135.712C146.372 133.093 140.336 132.221 140.373 121.872C140.39 117.242 142.697 110.504 146.222 108.232L146.829 107.676C151.701 101.593 164.801 100.19 172.384 107.151C190.548 123.824 169.554 149.32 150.788 139.099C147.46 137.285 148.072 136.548 146.078 137.198L145.712 138.701C150.462 142.266 155.124 144.294 161.608 143.737C164.75 143.468 167.31 142.66 169.848 141.385C171.061 140.775 172.209 140.03 173.036 139.389C174.228 138.466 175.172 137.922 176.006 136.861C182.47 128.634 184.083 118.5 177.812 109.357C171.114 99.5894 157.61 97.1389 148.178 103.236C144.772 105.438 142.458 107.546 140.385 111.613C136.035 120.145 137.29 128.495 142.953 135.873L144.115 135.71L144.116 135.712Z" fill="#31322E"/>
<path fill-rule="evenodd" clip-rule="evenodd" d="M122.248 90.263C121.908 90.7273 122.015 90.733 121.753 91.1423C121.099 92.1658 121.639 91.6086 120.864 92.1222C122.473 93.32 121.366 94.1444 120.724 95.9013C120.178 97.3966 119.86 98.8635 119.735 100.563C119.23 107.441 122.221 114.395 127.66 118.077C130.469 119.978 131.938 120.166 132.857 120.814C133.282 119.072 133.439 117.152 133.831 115.344C134.724 111.226 127.198 105.834 128.386 102.521L129.844 102.5C128.712 101.56 129.29 102.135 128.763 101.075C127.939 99.4207 128.244 99.9059 128.422 99.6386L128.25 98.293C127.418 99.0776 128.221 98.3821 127.509 98.8275C126.501 94.6675 125.71 93.1664 125.778 88.4814C124.035 89.4973 124.869 90.5946 122.248 90.2611V90.263Z" fill="#0295C9"/>
<path fill-rule="evenodd" clip-rule="evenodd" d="M170.568 87.5749L170.803 85.3253C172.304 85.331 174.059 85.2457 175.329 85.6323C175.716 86.9021 175.632 88.6552 175.64 90.1998L173.383 90.3552C173.009 92.819 174.235 93.1639 175.581 94.519C179.542 98.5028 179.087 98.4554 182.999 94.5209C184.227 93.2852 185.582 92.7925 185.18 90.3988L182.942 90.1581C182.965 86.3146 183.281 84.2431 181.164 81.3472C178.613 77.8581 174.836 78.0192 170.761 78.0211L170.6 75.779C168.193 75.3829 167.786 76.6224 166.44 77.9623C162.455 81.9385 162.508 81.4514 166.438 85.3859C167.668 86.6178 168.171 87.9483 170.564 87.573L170.568 87.5749Z" fill="#31322E"/>
<path fill-rule="evenodd" clip-rule="evenodd" d="M124.489 144.996C123.968 143.114 122.91 144.126 120.981 143.322C115.149 140.889 118.333 134.223 116.613 131.619L118.373 129.84L119.226 130.617L120.047 131.524C119.569 133.374 119.544 133.128 119.546 135.885C119.546 137.479 119.571 139.232 120.416 140.239C121.754 141.835 127.747 141.979 129.345 140.783L130.459 141.996L131.111 142.541L129.449 144.255C128.376 144.031 127.518 143.083 126.892 144.994L127.038 148.479C129.515 148.877 129.875 147.632 131.225 146.288C132.061 145.456 134.16 143.969 134.162 142.583C134.162 141.298 132.038 139.67 131.234 138.868C129.883 137.519 129.5 136.31 127.095 136.679L126.869 138.935C125.38 138.914 123.587 139.03 122.347 138.616C121.948 137.35 122.031 135.594 122.033 134.049L124.286 133.899C124.669 131.413 123.447 131.126 122.086 129.739C118.087 125.659 118.504 125.879 114.676 129.739C113.322 131.102 112.111 131.449 112.471 133.871L114.725 134.096C114.708 138.52 114.806 144.016 120.392 145.769C120.962 145.949 122.063 146.201 122.668 146.22C124.245 146.267 124.165 146.125 124.489 144.998V144.996Z" fill="#31322E"/>
<path fill-rule="evenodd" clip-rule="evenodd" d="M126.471 87.7549C128.432 87.5275 129.621 86.9722 131.631 86.7258C132.626 86.6045 133.582 86.614 134.537 86.6178C135.475 86.6216 136.769 86.3392 136.783 87.0821C137.997 86.2766 137.613 85.7346 139.091 85.3025C140.891 85.8767 140.999 87.6222 142.281 88.3291C143.954 88.7234 146.818 90.3855 147.737 91.6363C148.525 92.7071 148.908 92.6427 149.909 93.7211C150.595 94.4602 151.438 95.3794 151.526 96.3137L156.9 95.1501C157.012 91.9244 148.194 80.4128 134.489 83.4622C132.693 83.8621 127.549 85.9639 126.471 87.7568V87.7549Z" fill="#0295C9"/>
<path fill-rule="evenodd" clip-rule="evenodd" d="M120.866 92.1218C121.641 91.6082 121.102 92.1673 121.754 91.1419C122.016 90.7326 121.91 90.7269 122.249 90.2626C121.201 87.6263 124.789 85.7879 126.239 84.4442L126.616 81.5957C125.28 82.1396 124.673 82.8693 123.636 83.5781C121.662 84.9332 118.622 88.9151 117.426 91.3732C109.589 107.486 120.824 123.721 133.221 125.864L133.031 123.397C129.273 122.445 127.162 120.743 124.694 118.916C120.007 115.446 116.656 107.532 117.21 100.857C117.367 98.9484 117.651 97.2768 118.231 95.5313C119.124 92.8401 119.289 92.135 120.866 92.118V92.1218Z" fill="#47C9E7"/>
<path fill-rule="evenodd" clip-rule="evenodd" d="M126.613 81.5959L126.236 84.4444C127.646 83.8891 128.871 82.8827 130.506 82.2023C132.267 81.467 133.508 81.0443 135.421 80.7601C140.921 79.9394 146.608 80.9591 151.066 84.0028C154.97 86.6675 158.465 90.3347 159.704 95.033L163.756 95.2661L163.112 93.46C160.72 93.5377 161.637 91.7694 158.656 87.9922C158.01 87.1716 157.672 86.4609 157.11 85.8753C149.294 77.7523 136.323 75.4478 126.615 81.5978L126.613 81.5959Z" fill="#ABEAF4"/>
<path fill-rule="evenodd" clip-rule="evenodd" d="M147.731 116.431C147.29 118.372 147.379 126.121 147.866 127.744L149.812 127.859C150.25 126.307 150.049 124.27 150.167 122.518C151.901 126.078 152.962 129.497 154.855 127.336C155.18 125.202 155.14 117.883 154.736 115.986L152.714 115.9C152.32 117.506 152.483 119.484 152.371 121.245C150.766 117.953 149.573 114.159 147.731 116.429V116.431Z" fill="#31322E"/>
<path fill-rule="evenodd" clip-rule="evenodd" d="M126.47 87.755L125.779 88.4847C125.71 93.1697 126.501 94.6707 127.509 98.8307C128.221 98.3853 127.418 99.0809 128.25 98.2963C129.099 96.3044 136.348 88.75 136.782 87.0803C136.769 86.3374 135.476 86.6198 134.536 86.616C133.581 86.6122 132.626 86.6027 131.631 86.724C129.62 86.9723 128.432 87.5257 126.47 87.7531V87.755Z" fill="#01B4D5"/>
<path fill-rule="evenodd" clip-rule="evenodd" d="M157.578 127.762L159.566 127.849C159.909 126.42 159.845 124.705 159.847 123.137L163.232 122.982L163.338 120.869L159.856 120.533L159.849 118.259L164.46 118.136L164.568 115.983C162.976 115.676 161.454 115.693 159.779 115.706C157.44 115.727 157.3 115.867 157.281 118.196C157.264 120.626 157.082 125.842 157.578 127.762Z" fill="#31322E"/>
<path fill-rule="evenodd" clip-rule="evenodd" d="M166.801 133.543C167.621 132.015 168.639 133.433 168.139 130.607C166.581 130.27 166.704 130.289 165.476 131.181C164.644 131.786 164.202 132.013 163.264 132.66C158.952 135.298 160.719 135.393 157.997 133.717C157.271 133.27 156.674 132.946 155.912 132.449C154.597 131.589 153.394 130.228 151.447 130.596C151.064 132.743 151.303 132.305 154.129 134.244C155.353 135.086 156.818 136.037 158.173 136.911C160.978 138.717 161.638 136.067 166.801 133.543Z" fill="#31322E"/>
<path fill-rule="evenodd" clip-rule="evenodd" d="M158.471 106.575L152.318 110.729C151.239 111.514 151.076 111.476 151.501 113.129C154.37 113.819 158.348 108.859 159.798 108.863C161.083 108.866 165.315 113.758 168.095 113.136C168.689 110.788 168.088 111.523 164.716 108.997C163.81 108.366 162.728 107.82 161.777 107.089C160.505 106.113 159.961 105.548 158.471 106.573V106.575Z" fill="#31322E"/>
<path fill-rule="evenodd" clip-rule="evenodd" d="M173.885 118.146C174.685 117.041 174.897 115.947 172.767 115.722L167.311 115.86C166.717 118.688 167.968 117.655 169.481 118.525C169.502 120.945 169.229 125.861 169.771 127.741L171.751 127.862C172.272 125.81 172.083 120.71 172.02 118.278L173.883 118.148L173.885 118.146Z" fill="#31322E"/>
<path fill-rule="evenodd" clip-rule="evenodd" d="M131.357 98.484L137.792 101.535L137.782 90.2568L132.932 96.2211C132.28 97.0626 131.841 97.4492 131.357 98.484Z" fill="#47C9E7"/>
<path fill-rule="evenodd" clip-rule="evenodd" d="M140.353 101.561C142.049 100.744 145.276 98.8448 146.865 98.5264L140.398 90.2158L140.353 101.561Z" fill="#ABEAF4"/>
<path fill-rule="evenodd" clip-rule="evenodd" d="M124.49 144.996L126.891 144.992C127.517 143.082 128.375 144.029 129.448 144.253L131.11 142.54L130.458 141.994C128.441 142.68 122.009 143.393 119.852 141.107C118.074 139.223 118.332 136.358 118.408 133.128C118.488 129.724 118.853 130.82 119.227 130.617L118.374 129.84L116.613 131.619C118.336 134.225 115.15 140.891 120.982 143.322C122.911 144.128 123.969 143.116 124.49 144.996Z" fill="#47C9E7"/>
<path fill-rule="evenodd" clip-rule="evenodd" d="M180.759 92.9394C180.101 92.5642 180.369 92.8712 179.859 92.0639C179.144 90.9343 179.311 89.3973 179.328 88.0687C179.457 78.242 174.689 83.0843 169.712 81.4828L168.008 80.249L166.605 81.6572L168.313 83.469C169.918 82.385 175.659 82.3546 177.096 83.8689C178.892 85.7641 178.07 90.8869 177.545 92.8599C178.456 93.4152 178.579 93.6919 179.292 94.4064L180.761 92.9376L180.759 92.9394Z" fill="#47C9E7"/>
<path fill-rule="evenodd" clip-rule="evenodd" d="M151.525 96.3117C151.438 95.3755 150.597 94.4582 149.909 93.7191C148.908 92.6407 148.525 92.7051 147.737 91.6343C146.817 90.3835 143.954 88.7214 142.28 88.3271C143.04 89.8774 147.833 95.2447 149.173 97.2006L151.525 96.3136V96.3117Z" fill="#01B4D5"/>
<path fill-rule="evenodd" clip-rule="evenodd" d="M130.459 141.995L129.344 140.782C127.747 141.978 121.752 141.834 120.416 140.238C119.573 139.231 119.548 137.478 119.546 135.884C119.544 133.127 119.569 133.373 120.046 131.524L119.226 130.616C118.852 130.819 118.489 129.725 118.407 133.127C118.331 136.356 118.075 139.224 119.851 141.106C122.008 143.391 128.44 142.679 130.457 141.993L130.459 141.995Z" fill="#ABEAF4"/>
<path fill-rule="evenodd" clip-rule="evenodd" d="M180.758 92.9384C181.228 92.2523 180.555 92.3774 180.449 90.5239C180.388 89.4701 180.47 88.2212 180.457 87.1409C180.398 82.9506 178.025 80.5266 173.821 80.4943C172.737 80.4868 171.5 80.5701 170.437 80.5114C168.445 80.4015 168.733 79.7021 168.007 80.248L169.711 81.4817C174.688 83.0851 179.454 78.2409 179.327 88.0677C179.31 89.3962 179.145 90.9313 179.858 92.0628C180.367 92.8683 180.098 92.5631 180.758 92.9384Z" fill="#ABEAF4"/>
<path fill-rule="evenodd" clip-rule="evenodd" d="M129.842 102.502C131.284 103.208 137.025 106.233 138.01 106.231L138.857 105.123L128.42 99.6416C128.242 99.9069 127.937 99.4218 128.762 101.078C129.288 102.136 128.708 101.563 129.842 102.503V102.502Z" fill="#01B4D5"/>
<path fill-rule="evenodd" clip-rule="evenodd" d="M135.356 110.816L136.535 108.455L132.951 106.846C133.45 107.949 134.555 110.007 135.354 110.814L135.356 110.816Z" fill="#47C9E7"/>
<path fill-rule="evenodd" clip-rule="evenodd" d="M142.955 120.857C142.488 122.786 143.707 123.919 144.844 122.758C145.977 121.601 144.384 119.941 142.955 120.857Z" fill="#31322E"/>
<path fill-rule="evenodd" clip-rule="evenodd" d="M174.793 120.859C174.355 121.761 174.423 121.973 174.633 122.883L175.812 123.141C176.851 122.739 176.229 123.13 176.779 122.402L176.684 120.817L174.793 120.859Z" fill="#31322E"/>
<path fill-rule="evenodd" clip-rule="evenodd" d="M122.638 103.604C124.41 103.628 124.935 102.819 123.998 101.346C121.696 100.759 121.808 102.355 122.638 103.604Z" fill="#31322E"/>
<path fill-rule="evenodd" clip-rule="evenodd" d="M16.0897 97.5955L16.084 100.726C16.77 101.32 18.3791 102.034 19.2642 102.548C19.7778 102.843 20.2857 103.097 20.8505 103.435C21.4967 103.819 22.035 103.969 22.4026 104.519C21.8132 104.655 19.0292 106.334 18.0076 106.88C17.5698 107.113 17.513 107.197 17.0733 107.43L15.3164 108.34C15.6481 108.755 15.3941 108.019 15.5988 108.961C15.6234 109.071 15.6272 109.651 15.6234 109.791C15.614 110.343 15.6121 110.889 15.614 111.44C16.0214 111.023 18.9363 109.477 19.6015 109.134L21.7109 107.947C22.1487 107.682 23.4526 106.926 23.8847 106.825V115.229C21.8113 113.841 19.6678 111.461 18.5421 113.191C17.712 114.465 19.0955 115.145 19.81 115.676L21.9251 117.181C22.1733 117.463 22.0615 117.241 22.0937 117.535C21.8322 117.956 21.8417 119.315 21.9213 119.851C21.9724 120.198 21.8739 119.808 21.9933 120.177C22.1335 120.609 22.0009 120.35 22.2359 120.641C23.0792 120.067 23.879 119.624 24.7072 119.184C25.1659 119.491 25.4729 119.739 25.96 120.075C26.4831 120.435 26.8166 120.717 27.3454 120.998V117.702C26.4622 117.111 26.6745 116.965 26.6859 115.56L26.6745 104.365C26.5513 103.414 26.0623 103.26 25.38 102.859C24.8039 102.521 24.1955 102.216 23.5872 101.848C23.174 101.598 22.1582 101.003 21.7431 100.891C21.8625 100.442 21.9459 100.484 22.251 100.245L27.3416 96.4413L27.3454 93.1455L23.2498 96.1362C22.5258 96.6801 21.9269 97.1293 21.1783 97.6903C20.46 98.2285 19.7929 98.7838 19.1069 99.2443C18.6596 99.1401 16.3948 97.8703 16.0878 97.5974L16.0897 97.5955Z" fill="#417ED4" stroke="#FEFEFE" stroke-width="1.32325" stroke-miterlimit="22.9256"/>
<path fill-rule="evenodd" clip-rule="evenodd" d="M27.3484 120.995C27.517 121.141 27.6781 121.283 27.8866 121.446L31.171 123.764C31.5785 124.041 32.202 124.439 32.456 124.786L29.2701 126.544C27.7615 127.348 27.3256 127.274 27.3446 129.563C27.3711 132.855 27.3503 136.161 27.3465 139.453C27.3446 142.728 26.9352 141.837 32.0106 144.676L36.7695 147.331C37.1789 147.579 38.009 147.945 38.2611 148.188L38.2573 145.222C38.0318 144.776 36.1233 143.861 35.5831 143.575L35.5793 139.946C35.6646 139.182 35.6172 139.604 36.0247 139.072C36.9268 137.893 36.0816 136.208 35.0221 135.892C33.4301 135.416 32.185 136.612 32.1395 137.821C32.1016 138.782 32.6664 139.047 32.8597 139.544C33.0966 140.15 32.9469 141.378 32.9469 142.093C31.9272 141.553 31.0005 140.984 29.9808 140.446V130.723C30.9228 131.222 33.8907 132.91 34.4858 133.03L34.4839 130.064C33.7277 129.645 32.3082 128.739 31.6297 128.582V128.252C31.8059 128.205 35.621 126.201 36.055 125.781V122.815C34.861 123.114 35.5812 123.588 33.7031 122.225L27.3465 117.705V121.001L27.3484 120.995Z" fill="#5E69C8" stroke="#FEFEFE" stroke-width="1.32325" stroke-miterlimit="22.9256"/>
<path fill-rule="evenodd" clip-rule="evenodd" d="M53.6957 97.4318L57.0105 99.9031C57.1716 100.023 57.3952 100.153 57.5866 100.316C57.9903 100.661 57.8557 100.354 57.9998 100.892L54.4803 102.812C52.7121 103.756 53.0551 104.33 53.0551 106.826C53.0551 110.45 53.04 114.078 53.057 117.703L53.0892 120.637C53.1632 121.003 53.0892 120.79 53.22 120.997L55.3616 119.352C55.9814 119.68 56.7413 120.091 57.3705 120.474L63.6816 123.967L63.676 121.001C63.4182 120.633 61.142 119.454 60.7441 119.242C60.022 118.857 58.0263 117.866 57.6681 117.375C58.1362 117.25 60.9677 115.04 61.1951 114.627C61.4946 114.081 61.4548 113.577 61.0985 113.13C60.1186 111.889 59.0478 113.005 58.303 113.562C57.4407 114.206 56.7451 114.803 55.8544 115.398V106.83L60.8236 109.466V106.5C60.5128 106.131 57.7269 104.613 57.3364 104.524V104.194C58.0775 104.021 58.4755 103.663 59.0971 103.318C59.7036 102.981 60.2627 102.655 60.8199 102.382L60.8161 99.2512C60.149 99.0825 56.2732 95.9819 55.5473 95.438C54.9314 94.9756 54.3723 94.479 53.69 94.1436L53.6919 97.4394L53.6957 97.4318Z" fill="#AB30A7" stroke="#FEFEFE" stroke-width="1.32325" stroke-miterlimit="22.9256"/>
<path fill-rule="evenodd" clip-rule="evenodd" d="M46.7015 122.643L46.7034 127.587C47.2455 127.804 47.6624 128.126 48.1116 128.247L46.0268 129.625C44.7949 130.313 45.1114 130.157 43.9952 129.399L43.9971 133.847C45.9397 132.797 47.7989 131.753 49.7585 130.716V134.012C49.262 134.276 46.5727 135.849 46.2524 135.896C46.2505 135.896 42.9755 135.483 43.3375 138.275C43.5934 140.242 46.2467 140.791 47.2758 138.944C47.8273 137.952 47.1962 138.5 49.7604 137.143V140.439C49.1407 140.767 48.3807 141.178 47.7515 141.561C47.0067 142.014 46.4874 142.232 45.7501 142.745V145.711C46.3073 145.6 50.0675 143.424 50.8199 142.98C52.8705 141.777 52.3967 142.34 52.3967 136.649C52.3967 134.063 52.4099 131.478 52.4062 128.893C52.4043 127.178 51.8016 127.277 50.7175 126.627C50.0788 126.244 48.7597 125.427 48.1116 125.277C48.2765 124.663 48.3163 124.837 49.2411 124.1L53.0411 121.144C53.0638 121.125 53.1112 121.083 53.1301 121.066C53.1491 121.051 53.1889 121.015 53.2192 120.99C53.0865 120.784 53.1624 120.996 53.0884 120.63L53.0562 117.696C51.9418 118.435 50.9828 119.3 49.876 120.12C49.2847 120.558 48.8754 120.914 48.2992 121.345C47.7837 121.727 47.1886 122.167 46.7015 122.639V122.643Z" fill="#9242B1" stroke="#FEFEFE" stroke-width="1.32325" stroke-miterlimit="22.9256"/>
<path fill-rule="evenodd" clip-rule="evenodd" d="M69.2478 101.714C69.7462 102.027 73.2486 104.053 73.819 104.185C73.6295 104.898 73.5196 104.6 72.5094 105.18C71.9826 105.483 71.5543 105.834 70.853 105.997C70.4114 105.701 69.9812 105.485 69.5567 105.173L69.5586 109.95C70.527 109.389 71.5524 108.863 72.5094 108.311C73.476 107.754 74.4956 107.168 75.4679 106.655V110.115C71.2017 112.971 71.2719 111.175 69.9016 112.295C67.724 114.074 70.1669 117.149 72.3446 115.727C74.0408 114.622 71.0634 115.577 75.4679 113.246V116.542C74.8823 116.678 74.5203 117.01 73.929 117.31L69.5624 119.838C69.5605 120.683 69.3596 122.194 69.7007 122.779C70.9042 122.252 71.8632 121.576 72.9965 120.99C73.6068 120.674 77.6322 118.562 77.9734 118.058C78.5173 117.26 78.269 111.62 78.269 110.443C78.269 102.497 79.0631 104.1 74.2606 101.433L70.8833 99.5362C70.2655 99.1609 69.7841 99.0017 69.2383 98.5791L69.2459 101.71L69.2478 101.714Z" fill="#E10891" stroke="#FEFEFE" stroke-width="1.32325" stroke-miterlimit="22.9256"/>
<path fill-rule="evenodd" clip-rule="evenodd" d="M43.498 77.1794C43.8013 77.5622 45.1734 78.2275 45.7515 78.5345C46.3674 78.8624 47.5235 79.6394 48.1129 79.7986V80.1284C47.0914 80.3653 46.4356 81.1859 45.3118 81.4475C44.8986 81.1708 44.5688 80.9225 43.9984 80.7879L44.0003 85.4009C45.9429 84.3509 47.8021 83.3067 49.7618 82.27V90.8383C48.147 90.4611 45.814 86.9266 44.4229 88.6304C43.426 89.8509 44.8039 90.7511 45.4312 91.2154C46.0907 91.7044 47.3984 92.5667 47.785 93.1448L44.0022 95.2864L43.9984 98.2524C44.6409 98.1008 46.4015 96.9788 47.1255 96.6055C47.6467 96.3363 48.0617 96.0634 48.6076 95.781C50.9595 94.5662 49.576 94.4468 53.6962 97.428L53.6944 94.1322C53.448 93.7513 52.8415 93.3798 52.398 93.1429C52.398 91.1226 52.6444 80.6041 52.3355 79.5295C52.0209 78.4359 46.2348 75.7599 44.8891 74.9468C44.4078 74.6569 44.2675 74.5015 43.6819 74.3574L43.6743 76.6582C43.6667 76.7094 43.6554 76.7568 43.6459 76.8004L43.5568 77.0562C43.5492 77.0335 43.5246 77.1396 43.5018 77.1756L43.498 77.1794Z" fill="#9242B1" stroke="#FEFEFE" stroke-width="1.32325" stroke-miterlimit="22.9256"/>
<path fill-rule="evenodd" clip-rule="evenodd" d="M10.53 122.974L10.5319 120.008L9.88179 119.678C9.88179 118.854 9.88748 118.029 9.8799 117.205C9.87042 115.922 9.7188 115.971 10.2741 115.128C12.3683 111.951 6.45333 110.566 6.41922 113.909C6.40974 114.863 6.95367 115.044 7.16215 115.64C7.39336 116.303 7.24364 117.292 7.24364 118.029C6.41732 117.81 5.13426 116.746 4.27761 116.547V106.66L10.5337 110.121L10.5319 107.155L8.17799 105.726C7.65301 105.46 7.51655 105.322 7.02379 105.068C6.39647 104.742 6.09513 104.822 5.92456 104.189C8.06427 103.69 7.95056 102.07 9.72828 103.199L9.73586 99.0791C8.5684 99.6515 7.5374 100.315 6.41922 100.893C5.82791 101.198 5.44507 101.435 4.82723 101.772C0.756287 103.997 1.63946 102.532 1.63946 111.438C1.63946 113.144 1.64325 114.847 1.63188 116.553C1.61672 118.717 2.51316 118.456 5.52467 120.241C6.13683 120.603 6.6258 120.836 7.21142 121.193C7.75914 121.524 8.21968 121.737 8.79583 122.08C9.26964 122.36 10.0637 122.862 10.5281 122.974H10.53Z" fill="#0DA4EA" stroke="#FEFEFE" stroke-width="1.32325" stroke-miterlimit="22.9256"/>
<path fill-rule="evenodd" clip-rule="evenodd" d="M32.7588 80.6233V83.5894C32.8971 83.8945 32.5939 83.5022 32.9161 83.8168L34.0494 84.4687C34.9933 84.9691 37.7698 86.7032 38.5544 86.8852V96.7725L34.0172 94.3012L34.021 97.2672L38.7648 100.023C40.3776 100.94 40.7074 100.068 42.7845 99.0241C43.3872 98.7208 43.5369 98.6488 43.9975 98.2546L44.0013 95.2886C43.4062 95.444 41.8312 96.4333 41.1925 96.7725V86.8852L43.9994 85.4031L43.9975 80.7901C43.4137 80.2917 43.1276 80.2462 42.4699 79.8425C41.4465 79.2133 41.5147 77.6061 39.5664 77.8298C37.2808 78.0913 37.0211 81.317 39.1855 81.9841C40.3605 82.3461 40.0649 81.6297 41.1016 82.1888C42.4225 82.9014 42.3373 82.6133 42.5116 83.2634C40.4951 83.7334 40.751 85.2193 38.7913 84.0196L32.7626 80.6271L32.7588 80.6233Z" fill="#7459BE" stroke="#FEFEFE" stroke-width="1.32325" stroke-miterlimit="22.9256"/>
<path fill-rule="evenodd" clip-rule="evenodd" d="M27.3489 93.147L27.3451 96.4428C29.8866 94.7693 28.6566 94.3789 31.6871 96.06C32.3504 96.4276 33.3018 97.1289 34.022 97.2653L34.0182 94.2993C33.2184 93.78 32.7617 93.5677 31.9638 93.1451C32.9853 91.6194 36.6545 90.6396 35.3979 88.7254C34.2362 86.9553 32.1419 89.7849 30.152 90.8386C30.152 87.9446 29.9871 85.3159 29.9871 82.2703C30.7982 82.6986 32.1002 83.4795 32.7617 83.5894V80.6234C32.2708 80.358 32.1438 80.2462 31.6359 80.1287L34.655 78.2032C35.6955 77.627 36.5123 77.1172 37.5699 76.5865C37.2268 76.1336 37.3064 75.6692 37.3178 75.0211C37.3254 74.5264 37.3235 74.0318 37.3235 73.5371L27.8834 78.8456C27.167 79.4767 27.3527 80.665 27.3527 81.9405V93.1451L27.3489 93.147Z" fill="#5E69C8" stroke="#FEFEFE" stroke-width="1.32325" stroke-miterlimit="22.9256"/>
<path fill-rule="evenodd" clip-rule="evenodd" d="M34.4873 130.059L34.4892 133.025C34.6048 133.255 34.4229 133.086 34.7735 133.347L38.5545 135.334V142.75C38.5545 143.813 38.7421 144.795 38.2626 145.221L38.2664 148.187C38.8672 148.524 39.5703 149.051 40.4573 148.784L45.5099 145.924C45.7317 145.755 45.6388 145.845 45.7487 145.714V142.748L41.1907 145.219V135.332L43.9975 133.848L43.9956 129.4C43.4877 129.064 43.0101 128.812 42.4681 128.452C41.3651 127.722 41.7346 126.176 39.7124 126.261C39.0472 126.29 38.4218 126.727 38.092 127.124C37.1255 128.287 37.9726 129.985 39.0605 130.381C39.5722 130.569 41.2533 130.215 42.343 131.704C39.5665 133.173 40.5994 133.647 35.5164 130.62C35.1184 130.383 34.8228 130.275 34.4873 130.057V130.059Z" fill="#7459BE" stroke="#FEFEFE" stroke-width="1.32325" stroke-miterlimit="22.9256"/>
<path fill-rule="evenodd" clip-rule="evenodd" d="M60.8271 106.494V109.46L62.457 110.442C63.0351 110.775 63.6908 111.136 64.2632 111.439V121.161C64.0092 121.019 64.068 121.07 63.6814 120.996L63.687 123.962C65.6202 125.192 65.9537 125.183 69.3159 123.081L69.7025 122.784C69.3594 122.2 69.5603 120.689 69.5641 119.842C68.6203 120.047 67.8262 120.945 66.9013 121.161V111.439C67.7788 110.974 68.7283 110.467 69.5622 109.955L69.5603 105.177C66.9392 103.894 67.8054 103.68 67.0359 102.899C64.6441 100.469 61.9226 105.154 64.9151 106.346C65.9613 106.763 65.8135 106.125 66.7289 106.653L68.2185 107.648C66.1224 108.207 66.6398 109.671 64.4792 108.423L60.8309 106.496L60.8271 106.494Z" fill="#C61C9B" stroke="#FEFEFE" stroke-width="1.32325" stroke-miterlimit="22.9256"/>
<path fill-rule="evenodd" clip-rule="evenodd" d="M10.533 110.119L12.8452 111.438V121.161C12.0246 120.969 11.329 120.215 10.5292 120.007L10.5273 122.973L13.3399 124.629C14.6153 125.22 14.9224 124.597 16.4708 123.799L22.2379 120.64C22.0029 120.348 22.1356 120.609 21.9953 120.175C21.8759 119.806 21.9745 120.196 21.9233 119.849C21.8437 119.315 21.8343 117.956 22.0958 117.533L18.8872 119.29C18.2788 119.599 17.7974 119.885 17.2004 120.24C16.5655 120.617 16.0955 120.833 15.4834 121.159C15.4834 119.362 15.2389 112.636 15.616 111.436C15.616 110.885 15.616 110.339 15.6255 109.788C15.6274 109.645 15.6236 109.067 15.6009 108.958C15.3962 108.016 15.6501 108.751 15.3185 108.336C14.0032 109.155 14.2761 109.189 12.9419 108.376C12.4927 108.103 12.2141 108.014 11.763 107.741C11.2665 107.439 11.1471 107.292 10.5311 107.151L10.533 110.117V110.119Z" fill="#2890DE" stroke="#FEFEFE" stroke-width="1.32325" stroke-miterlimit="22.9256"/>
<path fill-rule="evenodd" clip-rule="evenodd" d="M9.73805 99.0778L9.73047 103.198C12.1867 104.936 11.4229 103.734 12.3819 105.476C12.9827 106.568 14.6751 106.97 15.7857 105.808C16.8565 104.688 16.3713 102.982 15.0958 102.429C13.9739 101.942 13.9492 102.565 13.2044 102.192C12.5638 101.871 12.3724 101.417 11.5271 101.221L13.7237 99.9383C14.5671 99.5687 15.1906 100.386 16.0833 100.727L16.0889 97.5958C14.5292 97.0083 14.6751 96.163 12.7496 97.3342C12.2151 97.6583 11.8304 97.8649 11.2921 98.1852C10.6667 98.5567 10.2858 98.676 9.73615 99.0778H9.73805Z" fill="#2890DE" stroke="#FEFEFE" stroke-width="1.32325" stroke-miterlimit="22.9256"/>
<path fill-rule="evenodd" clip-rule="evenodd" d="M36.0586 122.809V125.775C37.3777 125.132 39.5003 123.698 40.1257 123.857L45.421 126.819C45.9384 127.081 46.308 127.278 46.706 127.589L46.7041 122.644L45.313 123.633C43.8157 122.841 42.3962 121.935 40.8706 121.154C39.6709 120.54 39.398 120.889 38.3348 121.433C37.5824 121.819 36.6745 122.327 36.0605 122.809H36.0586Z" fill="#7459BE" stroke="#FEFEFE" stroke-width="1.32325" stroke-miterlimit="22.9256"/>
<path fill-rule="evenodd" clip-rule="evenodd" d="M60.8193 99.2436L60.8231 102.375L64.9187 100.053C66.1089 99.4142 67.3598 100.851 69.2474 101.717L69.2398 98.586C64.7652 96.4766 66.7779 96.1108 62.942 98.0914C62.381 98.3813 61.386 99.0863 60.8193 99.2455V99.2436Z" fill="#C61C9B" stroke="#FEFEFE" stroke-width="1.32325" stroke-miterlimit="22.9256"/>
<path fill-rule="evenodd" clip-rule="evenodd" d="M37.3191 73.5359C37.3172 74.0306 37.321 74.5252 37.3134 75.0199C37.302 75.6662 37.2243 76.1305 37.5655 76.5853C38.0544 76.1798 38.4316 76.1058 38.9755 75.7666C39.69 75.3231 39.7582 75.1431 40.5675 75.632L43.4975 77.1785C43.5221 77.1425 43.5468 77.0364 43.5525 77.0591L43.6415 76.8033C43.651 76.7597 43.6624 76.7123 43.67 76.6611L43.6775 74.3603C43.1241 73.9112 42.8872 73.8448 42.2485 73.4658C41.7027 73.1436 41.3445 72.937 40.7589 72.6471C39.4152 71.9818 38.3463 73.0147 37.3191 73.5359Z" fill="#7459BE" stroke="#FEFEFE" stroke-width="1.32325" stroke-miterlimit="22.9256"/>
<path fill-rule="evenodd" clip-rule="evenodd" d="M16.0897 97.5955L16.084 100.726C16.77 101.32 18.3791 102.034 19.2642 102.548C19.7778 102.843 20.2857 103.097 20.8505 103.435C21.4967 103.819 22.035 103.969 22.4026 104.519C21.8132 104.655 19.0292 106.334 18.0076 106.88C17.5698 107.113 17.513 107.197 17.0733 107.43L15.3164 108.34C15.6481 108.755 15.3941 108.019 15.5988 108.961C15.6234 109.071 15.6272 109.651 15.6234 109.791C15.614 110.343 15.6121 110.889 15.614 111.44C16.0214 111.025 18.9363 109.479 19.6015 109.134L21.7109 107.947C22.1487 107.682 23.4526 106.926 23.8847 106.825V115.229C21.8113 113.841 19.6678 111.461 18.5421 113.191C17.712 114.465 19.0955 115.145 19.81 115.676L21.9251 117.181C22.1733 117.463 22.0615 117.241 22.0937 117.535C21.8322 117.956 21.8417 119.315 21.9213 119.851C21.9724 120.198 21.8739 119.808 21.9933 120.177C22.1335 120.609 22.0009 120.35 22.2359 120.641C23.0792 120.067 23.879 119.624 24.7072 119.184C25.1659 119.491 25.4729 119.739 25.96 120.075C26.4831 120.435 26.8166 120.717 27.3454 120.998V117.702C26.4622 117.111 26.6745 116.965 26.6859 115.56L26.6745 104.365C26.5513 103.414 26.0623 103.26 25.38 102.859C24.8039 102.521 24.1955 102.216 23.5872 101.848C23.174 101.598 22.1582 101.003 21.7431 100.891C21.8625 100.442 21.9459 100.484 22.251 100.245L27.3416 96.4413L27.3454 93.1455L23.2498 96.1362C22.5258 96.6801 21.9269 97.1293 21.1783 97.6903C20.46 98.2285 19.7929 98.7838 19.1069 99.2443C18.6596 99.1401 16.3948 97.8703 16.0878 97.5974L16.0897 97.5955Z" fill="#417ED4"/>
<path fill-rule="evenodd" clip-rule="evenodd" d="M27.3484 120.995C27.517 121.141 27.6781 121.283 27.8866 121.446L31.171 123.764C31.5785 124.041 32.202 124.439 32.456 124.786L29.2701 126.544C27.7615 127.348 27.3256 127.274 27.3446 129.563C27.3711 132.855 27.3503 136.161 27.3465 139.453C27.3446 142.728 26.9352 141.837 32.0106 144.676L36.7695 147.331C37.1789 147.579 38.009 147.945 38.2611 148.188L38.2573 145.222C38.0318 144.776 36.1233 143.861 35.5831 143.575L35.5793 139.944C35.6646 139.18 35.6172 139.604 36.0247 139.072C36.9268 137.893 36.0816 136.208 35.0221 135.892C33.4301 135.416 32.185 136.612 32.1395 137.821C32.1016 138.782 32.6664 139.047 32.8597 139.544C33.0966 140.15 32.9469 141.378 32.9469 142.093C31.9272 141.553 31.0005 140.984 29.9808 140.446V130.723C30.9228 131.222 33.8907 132.91 34.4858 133.03L34.4839 130.064C33.7277 129.645 32.3082 128.739 31.6297 128.582V128.252C31.8059 128.205 35.621 126.201 36.055 125.781V122.815C34.861 123.114 35.5812 123.588 33.7031 122.225L27.3465 117.705V121.001L27.3484 120.995Z" fill="#5E69C8"/>
<path fill-rule="evenodd" clip-rule="evenodd" d="M53.6957 97.4318L57.0105 99.9031C57.1716 100.023 57.3952 100.153 57.5866 100.316C57.9903 100.661 57.8557 100.354 57.9998 100.892L54.4803 102.812C52.7121 103.756 53.0551 104.33 53.0551 106.826C53.0551 110.45 53.04 114.078 53.057 117.703L53.0892 120.637C53.1632 121.003 53.0892 120.79 53.22 120.997L55.3616 119.352C55.9814 119.68 56.7413 120.091 57.3705 120.474L63.6816 123.967L63.676 121.001C63.4182 120.633 61.142 119.454 60.7441 119.242C60.022 118.857 58.0263 117.866 57.6681 117.375C58.1362 117.25 60.9677 115.04 61.1951 114.627C61.4946 114.081 61.4548 113.577 61.0985 113.13C60.1186 111.889 59.0478 113.005 58.303 113.562C57.4407 114.206 56.7451 114.803 55.8544 115.398V106.83L60.8236 109.466V106.5C60.5128 106.131 57.7269 104.613 57.3364 104.524V104.194C58.0775 104.021 58.4755 103.663 59.0971 103.318C59.7036 102.981 60.2627 102.655 60.8199 102.382L60.8161 99.2512C60.149 99.0825 56.2732 95.9819 55.5473 95.438C54.9314 94.9756 54.3723 94.479 53.69 94.1436L53.6919 97.4394L53.6957 97.4318Z" fill="#AB30A7"/>
<path fill-rule="evenodd" clip-rule="evenodd" d="M46.7015 122.643L46.7034 127.587C47.2455 127.804 47.6624 128.126 48.1116 128.247L46.0268 129.625C44.7949 130.313 45.1114 130.157 43.9952 129.399L43.9971 133.847C45.9397 132.797 47.7989 131.753 49.7585 130.716V134.012C49.262 134.276 46.5727 135.849 46.2524 135.896C46.2505 135.896 42.9755 135.483 43.3375 138.275C43.5934 140.242 46.2467 140.791 47.2758 138.944C47.8273 137.952 47.1962 138.5 49.7604 137.143V140.439C49.1407 140.767 48.3807 141.178 47.7515 141.561C47.0067 142.014 46.4874 142.232 45.7501 142.745V145.711C46.3073 145.6 50.0675 143.424 50.8199 142.98C52.8705 141.777 52.3967 142.34 52.3967 136.649C52.3967 134.063 52.4099 131.478 52.4062 128.893C52.4043 127.178 51.8016 127.277 50.7175 126.627C50.0788 126.244 48.7597 125.427 48.1116 125.277C48.2765 124.663 48.3163 124.837 49.2411 124.1L53.0411 121.144C53.0638 121.125 53.1112 121.083 53.1301 121.066C53.1491 121.051 53.1889 121.015 53.2192 120.99C53.0865 120.784 53.1624 120.996 53.0884 120.63L53.0562 117.696C51.9418 118.435 50.9828 119.3 49.876 120.12C49.2847 120.558 48.8754 120.914 48.2992 121.345C47.7837 121.727 47.1886 122.167 46.7015 122.639V122.643Z" fill="#9242B1"/>
<path fill-rule="evenodd" clip-rule="evenodd" d="M69.2478 101.716C69.7462 102.028 73.2486 104.054 73.819 104.187C73.6295 104.9 73.5196 104.602 72.5094 105.182C71.9826 105.485 71.5543 105.836 70.853 105.999C70.4114 105.703 69.9812 105.487 69.5567 105.175L69.5586 109.952C70.527 109.391 71.5524 108.865 72.5094 108.313C73.476 107.756 74.4956 107.17 75.4679 106.657V110.117C71.2017 112.973 71.2719 111.177 69.9016 112.297C67.724 114.076 70.1669 117.15 72.3446 115.729C74.0408 114.624 71.0634 115.579 75.4679 113.248V116.544C74.8823 116.68 74.5203 117.012 73.929 117.312L69.5624 119.84C69.5605 120.685 69.3596 122.196 69.7007 122.781C70.9042 122.254 71.8632 121.578 72.9965 120.992C73.6068 120.676 77.6322 118.564 77.9734 118.06C78.5173 117.262 78.269 111.622 78.269 110.445C78.269 102.498 79.0631 104.102 74.2606 101.435L70.8833 99.5381C70.2655 99.1629 69.7841 99.0037 69.2383 98.5811L69.2459 101.712L69.2478 101.716Z" fill="#E10891"/>
<path fill-rule="evenodd" clip-rule="evenodd" d="M43.498 77.1804C43.8013 77.5632 45.1734 78.2284 45.7515 78.5355C46.3674 78.8633 47.5235 79.6404 48.1129 79.7996V80.1294C47.0914 80.3663 46.4356 81.1869 45.3118 81.4484C44.8986 81.1717 44.5688 80.9235 43.9984 80.7889L44.0003 85.4019C45.9429 84.3519 47.8021 83.3076 49.7618 82.271V90.8393C48.147 90.4621 45.814 86.9275 44.4229 88.6313C43.426 89.8519 44.8039 90.7521 45.4312 91.2164C46.0907 91.7054 47.3984 92.5677 47.785 93.1458L44.0022 95.2874L43.9984 98.2534C44.6409 98.1018 46.4015 96.9798 47.1255 96.6064C47.6467 96.3373 48.0617 96.0644 48.6076 95.782C50.9595 94.5672 49.576 94.4478 53.6962 97.429L53.6944 94.1332C53.448 93.7522 52.8415 93.3808 52.398 93.1439C52.398 91.1217 52.6444 80.6051 52.3355 79.5305C52.0209 78.4369 46.2348 75.7609 44.8891 74.9478C44.4078 74.6578 44.2675 74.5024 43.6819 74.3584L43.6743 76.6592C43.6667 76.7104 43.6554 76.7578 43.6459 76.8013L43.5568 77.0572C43.5492 77.0345 43.5246 77.1406 43.5018 77.1766L43.498 77.1804Z" fill="#9242B1"/>
<path fill-rule="evenodd" clip-rule="evenodd" d="M10.53 122.974L10.5319 120.008L9.88179 119.678C9.88179 118.854 9.88748 118.029 9.8799 117.205C9.87042 115.922 9.7188 115.971 10.2741 115.128C12.3683 111.951 6.45333 110.566 6.41922 113.909C6.40974 114.863 6.95367 115.044 7.16215 115.64C7.39336 116.303 7.24364 117.292 7.24364 118.029C6.41732 117.81 5.13426 116.746 4.27761 116.547V106.66L10.5337 110.121L10.5319 107.155L8.17799 105.726C7.65301 105.46 7.51655 105.322 7.02379 105.068C6.39647 104.742 6.09513 104.822 5.92456 104.189C8.06427 103.69 7.95056 102.07 9.72828 103.199L9.73586 99.0791C8.5684 99.6515 7.5374 100.315 6.41922 100.893C5.82791 101.198 5.44507 101.435 4.82723 101.772C0.756287 103.997 1.63946 102.532 1.63946 111.438C1.63946 113.144 1.64325 114.849 1.63188 116.553C1.61672 118.717 2.51316 118.456 5.52467 120.241C6.13683 120.603 6.6258 120.836 7.21142 121.191C7.75914 121.524 8.21968 121.737 8.79583 122.078C9.26964 122.358 10.0637 122.86 10.5281 122.972L10.53 122.974Z" fill="#0DA4EA"/>
<path fill-rule="evenodd" clip-rule="evenodd" d="M32.7588 80.623V83.589C32.8971 83.8942 32.5939 83.5019 32.9161 83.8165L34.0494 84.4684C34.9933 84.9688 37.7698 86.7029 38.5544 86.8848V96.7722L34.0172 94.3008L34.021 97.2669L38.7648 100.023C40.3776 100.94 40.7074 100.068 42.7845 99.0237C43.3872 98.7205 43.5369 98.6485 43.9975 98.2562L44.0013 95.2902C43.4062 95.4456 41.8312 96.4349 41.1925 96.7741V86.8867L43.9994 85.4047L43.9975 80.7917C43.4137 80.2932 43.1276 80.2478 42.4699 79.8422C41.4465 79.213 41.5147 77.6077 39.5664 77.8295C37.2808 78.091 37.0211 81.3167 39.1855 81.9838C40.3605 82.3458 40.0649 81.6294 41.1016 82.1885C42.4225 82.9011 42.3373 82.613 42.5116 83.2631C40.4951 83.7331 40.751 85.2189 38.7913 84.0174L32.7626 80.6268L32.7588 80.623Z" fill="#7459BE"/>
<path fill-rule="evenodd" clip-rule="evenodd" d="M27.3489 93.147L27.3451 96.4428C29.8866 94.7693 28.6566 94.3789 31.6871 96.06C32.3504 96.4276 33.3018 97.1289 34.022 97.2653L34.0182 94.2993C33.2184 93.78 32.7617 93.5677 31.9638 93.1451C32.9853 91.6194 36.6545 90.6396 35.3979 88.7254C34.2362 86.9572 32.1419 89.7868 30.152 90.8386C30.152 87.9446 29.9871 85.3159 29.9871 82.2703C30.7982 82.6986 32.1002 83.4795 32.7617 83.5894V80.6234C32.2708 80.358 32.1438 80.2462 31.6359 80.1287L34.655 78.2032C35.6955 77.627 36.5123 77.1172 37.5699 76.5865C37.2268 76.1336 37.3064 75.6692 37.3178 75.0211C37.3254 74.5264 37.3235 74.0318 37.3235 73.5371L27.8834 78.8456C27.167 79.4767 27.3527 80.665 27.3527 81.9405V93.1451L27.3489 93.147Z" fill="#5E69C8"/>
<path fill-rule="evenodd" clip-rule="evenodd" d="M34.4873 130.059L34.4892 133.025C34.6048 133.255 34.4229 133.086 34.7735 133.347L38.5545 135.334V142.75C38.5545 143.813 38.7421 144.795 38.2626 145.221L38.2664 148.187C38.8672 148.524 39.5703 149.051 40.4573 148.784L45.5099 145.924C45.7317 145.755 45.6388 145.845 45.7487 145.714V142.748L41.1907 145.219V135.332L43.9975 133.848L43.9956 129.4C43.4877 129.064 43.0101 128.812 42.4681 128.452C41.3651 127.722 41.7346 126.176 39.7124 126.261C39.0472 126.29 38.4218 126.727 38.092 127.124C37.1255 128.287 37.9726 129.985 39.0605 130.381C39.5722 130.569 41.2533 130.215 42.343 131.704C39.5665 133.173 40.5994 133.647 35.5164 130.62C35.1184 130.383 34.8228 130.275 34.4873 130.057V130.059Z" fill="#7459BE"/>
<path fill-rule="evenodd" clip-rule="evenodd" d="M60.8271 106.494V109.46L62.457 110.442C63.0351 110.775 63.6908 111.136 64.2632 111.437V121.159C64.0092 121.017 64.068 121.068 63.6814 120.994L63.687 123.961C65.6202 125.191 65.9537 125.181 69.3159 123.079L69.7025 122.782C69.3594 122.198 69.5603 120.687 69.5641 119.84C68.6203 120.045 67.8262 120.943 66.9013 121.159V111.437C67.7788 110.973 68.7283 110.465 69.5622 109.955L69.5603 105.177C66.9392 103.894 67.8054 103.68 67.0359 102.899C64.6441 100.469 61.9226 105.154 64.9151 106.346C65.9613 106.763 65.8135 106.125 66.7289 106.653L68.2185 107.648C66.1224 108.207 66.6398 109.671 64.4792 108.423L60.8309 106.496L60.8271 106.494Z" fill="#C61C9B"/>
<path fill-rule="evenodd" clip-rule="evenodd" d="M10.533 110.119L12.8452 111.438V121.161C12.0246 120.969 11.329 120.215 10.5292 120.007L10.5273 122.973L13.3399 124.629C14.6153 125.22 14.9224 124.597 16.4708 123.799L22.2379 120.64C22.0029 120.348 22.1356 120.609 21.9953 120.175C21.8759 119.806 21.9745 120.196 21.9233 119.849C21.8437 119.315 21.8343 117.954 22.0958 117.533L18.8872 119.29C18.2788 119.599 17.7974 119.885 17.2004 120.24C16.5655 120.617 16.0955 120.833 15.4834 121.159C15.4834 119.362 15.2389 112.636 15.616 111.436C15.616 110.885 15.616 110.339 15.6255 109.788C15.6274 109.645 15.6236 109.067 15.6009 108.958C15.3962 108.016 15.6501 108.751 15.3185 108.336C14.0032 109.155 14.2761 109.189 12.9419 108.376C12.4927 108.103 12.2141 108.014 11.763 107.741C11.2665 107.439 11.1471 107.292 10.5311 107.151L10.533 110.117V110.119Z" fill="#2890DE"/>
<path fill-rule="evenodd" clip-rule="evenodd" d="M9.73805 99.0798L9.73047 103.2C12.1867 104.938 11.4229 103.736 12.3819 105.478C12.9827 106.57 14.6751 106.972 15.7857 105.81C16.8565 104.69 16.3713 102.984 15.0958 102.431C13.9739 101.943 13.9492 102.567 13.2044 102.194C12.5638 101.873 12.3724 101.418 11.5271 101.223L13.7237 99.9402C14.5671 99.5707 15.1906 100.387 16.0833 100.729L16.0889 97.5977C14.5292 97.0102 14.6751 96.1649 12.7496 97.3362C12.2151 97.6603 11.8304 97.8668 11.2921 98.1871C10.6667 98.5586 10.2858 98.678 9.73615 99.0798H9.73805Z" fill="#2890DE"/>
<path fill-rule="evenodd" clip-rule="evenodd" d="M36.0586 122.809V125.775C37.3777 125.132 39.5003 123.698 40.1257 123.857L45.421 126.819C45.9384 127.081 46.308 127.278 46.706 127.589L46.7041 122.644L45.313 123.633C43.8157 122.841 42.3962 121.935 40.8706 121.154C39.6709 120.54 39.398 120.889 38.3348 121.433C37.5824 121.819 36.6745 122.327 36.0605 122.809H36.0586Z" fill="#7459BE"/>
<path fill-rule="evenodd" clip-rule="evenodd" d="M60.8193 99.2436L60.8231 102.375L64.9187 100.053C66.1089 99.4142 67.3598 100.851 69.2474 101.717L69.2398 98.586C64.7652 96.4766 66.7779 96.1108 62.942 98.0914C62.381 98.3813 61.386 99.0863 60.8193 99.2455V99.2436Z" fill="#C61C9B"/>
<path fill-rule="evenodd" clip-rule="evenodd" d="M37.3191 73.5359C37.3172 74.0306 37.321 74.5252 37.3134 75.0199C37.302 75.6662 37.2243 76.1305 37.5655 76.5853C38.0544 76.1798 38.4316 76.1058 38.9755 75.7666C39.69 75.3231 39.7582 75.1431 40.5675 75.632L43.4975 77.1785C43.5221 77.1425 43.5468 77.0364 43.5525 77.0591L43.6415 76.8033C43.651 76.7597 43.6624 76.7123 43.67 76.6611L43.6775 74.3603C43.1241 73.9112 42.8872 73.8448 42.2485 73.4658C41.7027 73.1436 41.3445 72.937 40.7589 72.6471C39.4152 71.9818 38.3463 73.0147 37.3191 73.5359Z" fill="#7459BE"/>
</svg>
