<?xml version="1.0" encoding="UTF-8"?>
<!DOCTYPE svg PUBLIC "-//W3C//DTD SVG 1.1//EN" "http://www.w3.org/Graphics/SVG/1.1/DTD/svg11.dtd">
<!-- Creator: CorelDRAW 2021 (64-Bit) -->
<svg xmlns="http://www.w3.org/2000/svg" xml:space="preserve" width="10.499mm" height="10.2248mm" version="1.1" style="shape-rendering:geometricPrecision; text-rendering:geometricPrecision; image-rendering:optimizeQuality; fill-rule:evenodd; clip-rule:evenodd"
viewBox="0 0 249.58 243.07"
 xmlns:xlink="http://www.w3.org/1999/xlink"
 xmlns:xodm="http://www.corel.com/coreldraw/odm/2003">
 <defs>
  <style type="text/css">
   <![CDATA[
    .fil0 {fill:#326DE6}
    .fil1 {fill:#FEFEFE}
   ]]>
  </style>
 </defs>
 <g id="Capa_x0020_1">
  <metadata id="CorelCorpID_0Corel-Layer"/>
  <g id="_1422412586832">
   <path class="fil0" d="M119.92 0.28c-5,0.66 -16.52,7.02 -21.6,9.43l-61.98 30.16c-8.91,4.31 -12.88,4.92 -15.27,15.56l-17.22 75.52c-7.14,31.81 -5.69,23.83 16.08,51.69l34.58 43.06c15.83,19.59 12.21,17.28 44.21,17.28 20.67,0 41.34,0 62.02,0 24.21,0 19.88,0.81 38.65,-22.84 7.86,-9.91 44.7,-54.85 47.68,-59.63 1.97,-3.16 3,-8.43 2.29,-12.58 -1.38,-8.03 -3.87,-17.32 -5.8,-25.41 -3.94,-16.56 -7.75,-33.22 -11.48,-49.99 -5.24,-23.57 -2.88,-25.18 -26.57,-35.49l-62.16 -30.03c-9.88,-4.97 -14.15,-7.96 -23.43,-6.73z"/>
   <path class="fil1" d="M118.2 58.72c-12.73,0.3 -26.6,6.18 -36.16,13.47 -3.68,2.8 -5.99,5.52 -8.92,7.76 -2.46,-1.88 -3.65,-0.15 -6.72,-3.03 -2.16,-2.03 -3.09,-3.35 -5.1,-5.13 -2.05,-1.81 -3.04,-3.59 -5.12,-5.11 -2.43,-1.78 -6.44,-1.11 -7.84,0.87 -6.24,8.82 13.11,12.01 15.86,18.61 1.14,2.74 0.56,1.38 1.9,3.37 -8.9,13.7 -12.55,28.75 -10.79,48.17 -4.45,4.32 -7.77,4.6 -14.3,5.08 -5.23,0.39 -12.58,0.68 -11.17,7.91 1.21,6.2 9.07,2.91 12.97,1.35 12.36,-4.94 10.06,-1.55 15.19,-2.06 3.05,8.76 7.19,16.38 12.12,22.4 4.3,5.24 13.25,14.46 18.95,16.09 -3.21,7.42 3.57,0.08 -5.21,14.28 -1.23,1.99 -3.11,4.06 -3.92,6.43 -0.84,2.48 -0.22,5.58 2.05,6.81 8.62,4.68 9.95,-10.5 13.22,-16.36 1.07,-1.93 1.26,-1.56 2.71,-2.76 1.57,-1.3 0.91,-1.05 2.16,-2.69 16.91,5.91 31.76,6.33 49.32,0.25 0.87,0.92 0.36,0.63 0.96,1.24 1.79,1.84 2.3,0.63 3.81,3.76 1.07,2.23 1.96,4.91 2.82,7.46 1.44,4.27 3.59,12.48 10.17,9.08 6.17,-3.19 0.41,-10.03 -1.49,-13.03 -8.31,-13.1 -2.84,-9.31 -5.22,-13.7 1.51,-1.74 9.68,-5.37 18.5,-16.43 5.17,-6.48 9.46,-13.55 12.24,-22.84 7.34,-0.38 3.67,-2.63 14.43,1.72 2.25,0.91 4.9,2.22 7.45,2.38 7.24,0.45 8.12,-6.7 2.86,-9.31 -5.69,-2.81 -14.9,0.1 -19.78,-4.57 -2.66,-2.55 -1.02,-0.27 -2.8,-1.96 1.66,-18.33 -2.77,-35.58 -10.95,-47.8 0.35,-1.13 0.3,-0.48 0.76,-1.31 2.74,-4.95 -0.16,-3.5 9.25,-9.12 3.43,-2.05 11.24,-5.55 7.77,-11.77 -1.19,-2.14 -4.84,-3.04 -7.63,-1.45 -1.12,0.63 -3.87,3.73 -5.22,4.97 -2.1,1.93 -5.55,6.36 -8.42,7.24 -2.3,0.71 -1.71,0.13 -4.15,1.25 -5.57,-4 -5.56,-7.16 -18.93,-13.97 -3.35,-1.71 -7.32,-3.54 -11.41,-4.72 -4.83,-1.4 -9,-1.76 -13.89,-2.83l-0.59 -1.6c-1.84,-4.18 -2.64,-3.05 -1.05,-13.51 0.74,-4.88 1.93,-12.6 -4.81,-12.37 -8.77,0.3 -3.79,12.23 -3.87,20.39 -0.05,4.59 -1.9,2.99 -2.01,7.09z"/>
   <path class="fil0" d="M154.27 176.18c7.82,-4.71 19.21,-16.84 22.18,-28.13 -12.1,-0.73 -30.71,-8.27 -33.27,-1.75 -1.17,2.98 7.6,22.8 10.07,28.1 0.4,0.86 -0.02,0.02 0.36,0.73 0.5,0.93 0.24,0.48 0.65,1.05z"/>
   <path class="fil0" d="M85.05 88.83c0.08,0.12 0.21,0.15 0.26,0.34l2.5 1.99c21.14,14.23 27.09,25.48 28.19,1.99 0.3,-6.36 1.11,-13.76 1.05,-19.95 -10.13,3.04 -19.29,4.09 -28.8,12.72 -1.49,1.35 -1.99,1.56 -3.2,2.91z"/>
   <path class="fil0" d="M162.97 88.68c-2.01,-1.44 -4.04,-3.34 -6.26,-5.01 -7.96,-5.97 -15.05,-8.37 -25.7,-10.3 0.01,6.52 0.78,13.36 1.03,19.77 0.16,4.12 -0.86,15.44 6.56,12.98 1.73,-0.58 14.65,-10.15 18.17,-12.6l5.91 -4.51c0.07,-0.07 0.2,-0.22 0.29,-0.33z"/>
   <path class="fil0" d="M179.68 134.79c0.29,-11.54 -1.91,-27.9 -8.16,-34.72l-17.18 15.24c-3.16,2.86 -10.49,9.17 -0.84,12.07 3.03,0.91 5.85,1.66 8.83,2.49 4.79,1.35 12.95,4.28 17.36,4.92z"/>
   <path class="fil0" d="M68.23 134.47c2.19,0.16 13.68,-3.64 16.61,-4.47 2.9,-0.82 5.52,-1.63 8.34,-2.44 8.77,-2.53 6.86,-7.12 1.07,-11.66l-18.33 -16.12c-2.03,6.63 -10.04,17.22 -7.69,34.69z"/>
   <path class="fil0" d="M71.68 148.66c2.25,9.54 14.57,23.94 22.26,27.64 1.91,-7.7 12.2,-25.71 10.46,-30 -2.08,-5.09 -15.97,-0.94 -24.19,0.52 -1.81,0.32 -7.11,0.92 -8.52,1.84z"/>
   <path class="fil0" d="M106.12 182.69c21.09,3.83 14.34,3.82 35.36,0l-11.78 -21.82c-6.58,-11.81 -10.54,-3.41 -15.61,6.99 -2.3,4.7 -6.42,10.37 -7.96,14.83z"/>
   <path class="fil0" d="M128.38 120.09c-9.67,0 -8,-1.1 -12.01,4.19 -1.92,2.53 -2.39,2.09 -1.45,5.96 0.68,2.84 0.42,4.65 2.8,5.97 6.14,3.4 5.82,3.2 12.01,0.32 2.95,-1.37 2.33,-2.1 3.07,-5.6 1.5,-7.05 -0.63,-4.02 -4.41,-10.85z"/>
  </g>
 </g>
</svg>
