<svg width="230" height="187" viewBox="0 0 230 187" fill="none" xmlns="http://www.w3.org/2000/svg">
<g clip-path="url(#clip0_1000_37)">
<path fill-rule="evenodd" clip-rule="evenodd" d="M42.1234 0.0987557C40.3672 0.331197 36.3208 2.57109 34.5364 3.41985L12.7659 14.0417C9.63624 15.5596 8.24177 15.7745 7.40229 19.5217L1.35374 46.1187C-1.15419 57.3216 -0.644873 54.5112 7.00186 64.323L19.1481 79.4881C24.7084 86.3874 23.4369 85.5738 34.6769 85.5738C41.9373 85.5738 49.1976 85.5738 56.4615 85.5738C64.9653 85.5738 63.4444 85.8591 70.0373 77.5299C72.7982 74.0398 85.7383 58.2127 86.785 56.5292C87.477 55.4163 87.8387 53.5603 87.5894 52.0987C87.1046 49.2707 86.23 45.9989 85.5521 43.1497C84.1682 37.3176 82.8299 31.4502 81.5197 25.5441C79.6792 17.2431 80.5081 16.6761 72.187 13.045L50.3532 2.46895C46.8829 0.7186 45.383 -0.334431 42.1234 0.0987557Z" fill="#326DE6"/>
<path fill-rule="evenodd" clip-rule="evenodd" d="M41.5194 20.6803C37.0479 20.7859 32.1761 22.8568 28.8181 25.4242C27.5255 26.4103 26.7141 27.3682 25.685 28.1571C24.8209 27.495 24.4029 28.1043 23.3246 27.09C22.5659 26.3751 22.2392 25.9102 21.5332 25.2833C20.8131 24.6459 20.4654 24.019 19.7348 23.4837C18.8813 22.8568 17.4727 23.0927 16.981 23.7901C14.7892 26.8963 21.5859 28.0198 22.5518 30.3442C22.9523 31.3092 22.7485 30.8302 23.2192 31.5311C20.0931 36.356 18.811 41.6564 19.4292 48.4958C17.8661 50.0172 16.7 50.1158 14.4063 50.2849C12.5693 50.4222 9.98758 50.5244 10.4828 53.0706C10.9079 55.2542 13.6687 54.0955 15.0386 53.5461C19.38 51.8063 18.5722 53.0002 20.3741 52.8206C21.4454 55.9057 22.8996 58.5894 24.6312 60.7095C26.1416 62.555 29.2853 65.8021 31.2874 66.3762C30.1599 68.9894 32.5414 66.4043 29.4574 71.4053C29.0254 72.1062 28.365 72.8352 28.0805 73.6699C27.7855 74.5433 28.0032 75.6351 28.8006 76.0683C31.8284 77.7165 32.2955 72.3703 33.4441 70.3065C33.82 69.6268 33.8867 69.7571 34.396 69.3345C34.9475 68.8767 34.7156 68.9647 35.1547 68.3871C41.0944 70.4685 46.3104 70.6165 52.4784 68.4752C52.784 68.7992 52.6049 68.697 52.8156 68.9119C53.4443 69.5599 53.6235 69.1338 54.1539 70.2361C54.5297 71.0215 54.8423 71.9653 55.1444 72.8634C55.6502 74.3672 56.4054 77.2586 58.7166 76.0612C60.8838 74.9378 58.8606 72.5288 58.1933 71.4723C55.2744 66.8586 57.1957 68.1934 56.3597 66.6473C56.8901 66.0345 59.7598 64.7561 62.8579 60.861C64.6738 58.5788 66.1807 56.0889 67.1572 52.8171C69.7354 52.6832 68.4463 51.8908 72.2257 53.4228C73.016 53.7433 73.9469 54.2047 74.8426 54.261C77.3856 54.4195 77.6947 51.9014 75.8471 50.9822C73.8485 49.9926 70.6135 51.0174 68.8994 49.3727C67.9651 48.4746 68.5411 49.2776 67.9159 48.6824C68.499 42.2269 66.9429 36.1517 64.0697 31.848C64.1926 31.4501 64.1751 31.679 64.3366 31.3867C65.2991 29.6434 64.2804 30.154 67.5857 28.1748C68.7905 27.4528 71.5338 26.2201 70.3149 24.0295C69.8969 23.2759 68.6149 22.9589 67.6349 23.5189C67.2415 23.7408 66.2755 24.8325 65.8014 25.2692C65.0637 25.9489 63.8519 27.5091 62.8438 27.819C62.0359 28.0691 62.2432 27.8648 61.3861 28.2593C59.4297 26.8505 59.4332 25.7376 54.7369 23.3393C53.5603 22.737 52.1658 22.0925 50.7292 21.677C49.0326 21.1839 47.5679 21.0571 45.8503 20.6803L45.6431 20.1168C44.9968 18.6447 44.7158 19.0426 45.2742 15.3588C45.5342 13.6401 45.9522 10.9213 43.5847 11.0023C40.5043 11.1079 42.2535 15.3095 42.2254 18.1833C42.2078 19.7998 41.558 19.2363 41.5194 20.6803Z" fill="#FEFEFE"/>
<path fill-rule="evenodd" clip-rule="evenodd" d="M54.1888 62.0481C56.9356 60.3893 60.9363 56.1173 61.9795 52.1412C57.7294 51.8841 51.1926 49.2286 50.2934 51.5248C49.8824 52.5743 52.9629 59.5546 53.8305 61.4212C53.971 61.7241 53.8235 61.4283 53.9569 61.6783C54.1326 62.0058 54.0412 61.8473 54.1853 62.0481H54.1888Z" fill="#326DE6"/>
<path fill-rule="evenodd" clip-rule="evenodd" d="M29.875 31.2844C29.9031 31.3267 29.9488 31.3373 29.9663 31.4042L30.8445 32.105C38.2699 37.1166 40.3598 41.0787 40.7462 32.8059C40.8516 30.566 41.1361 27.9598 41.115 25.7798C37.5569 26.8504 34.3394 27.2202 30.999 30.2596C30.4756 30.735 30.3 30.809 29.875 31.2844Z" fill="#326DE6"/>
<path fill-rule="evenodd" clip-rule="evenodd" d="M57.2445 31.2318C56.5385 30.7246 55.8255 30.0555 55.0457 29.4673C52.2497 27.3648 49.7594 26.5196 46.0186 25.8398C46.0221 28.1361 46.2925 30.545 46.3803 32.8025C46.4365 34.2535 46.0783 38.2402 48.6846 37.3739C49.2922 37.1696 53.8304 33.7992 55.0668 32.9364L57.1427 31.348C57.1673 31.3233 57.2129 31.2705 57.2445 31.2318Z" fill="#326DE6"/>
<path fill-rule="evenodd" clip-rule="evenodd" d="M63.1135 47.471C63.2153 43.4068 62.4426 37.6451 60.2473 35.2432L54.2128 40.6104C53.1028 41.6177 50.5282 43.84 53.9177 44.8613C54.982 45.1818 55.9726 45.4459 57.0193 45.7382C58.7018 46.2137 61.568 47.2456 63.117 47.471H63.1135Z" fill="#326DE6"/>
<path fill-rule="evenodd" clip-rule="evenodd" d="M23.9666 47.3584C24.7358 47.4147 28.7717 46.0764 29.8009 45.7841C30.8195 45.4953 31.7398 45.2101 32.7303 44.9248C35.8108 44.0338 35.1399 42.4172 33.1061 40.8183L26.6677 35.1411C25.9547 37.4761 23.1411 41.2057 23.9666 47.3584Z" fill="#326DE6"/>
<path fill-rule="evenodd" clip-rule="evenodd" d="M25.1787 52.3557C25.969 55.7155 30.2964 60.787 32.9976 62.0901C33.6684 59.3783 37.2828 53.0354 36.6716 51.5246C35.941 49.7319 31.0622 51.1935 28.1749 51.7077C27.5391 51.8204 25.6775 52.0317 25.1822 52.3557H25.1787Z" fill="#326DE6"/>
<path fill-rule="evenodd" clip-rule="evenodd" d="M37.2764 64.3408C44.6842 65.6896 42.3133 65.6861 49.6966 64.3408L45.5589 56.6561C43.2476 52.4968 41.8567 55.4552 40.0758 59.1179C39.268 60.7731 37.8208 62.77 37.2799 64.3408H37.2764Z" fill="#326DE6"/>
<path fill-rule="evenodd" clip-rule="evenodd" d="M45.0955 42.2937C41.6989 42.2937 42.2855 41.9063 40.877 43.7693C40.2026 44.6604 40.0375 44.5054 40.3677 45.8683C40.6065 46.8686 40.5152 47.506 41.3512 47.9709C43.5079 49.1683 43.3955 49.0979 45.5697 48.0836C46.6059 47.6011 46.3881 47.344 46.6481 46.1114C47.1749 43.6285 46.4268 44.6956 45.099 42.2902L45.0955 42.2937Z" fill="#326DE6"/>
</g>
<g clip-path="url(#clip1_1000_37)">
<path fill-rule="evenodd" clip-rule="evenodd" d="M49.5068 167.185V170.914L49.639 171.22C49.7514 171.606 49.9122 172.883 50.2824 174.109C52.3711 180.996 58.5467 185.802 65.6412 186.553C67.8731 186.788 94.2878 186.637 97.2401 186.637C102.504 186.637 107.765 186.637 113.029 186.637C118.413 186.637 122.945 187.039 127.711 185.412C133.157 183.554 137.727 178.924 139.783 173.739C140.181 172.733 140.461 171.848 140.732 170.787C140.895 170.146 141.19 167.618 141.301 167.361V164.813C141.096 164.355 141.082 163.12 140.972 162.497C140.842 161.757 140.64 161.013 140.452 160.34C139.813 158.05 138.311 155.163 136.843 153.424C134.338 150.452 131.556 148.155 127.594 146.768C124.144 145.56 122.236 145.615 118.393 145.661C116.115 141.158 112.055 137.202 107.723 134.699C94.8055 127.235 78.3297 131.442 70.3451 143.739C69.6158 144.864 69.021 145.932 68.4261 147.209C68.1639 147.77 67.113 150.883 66.8882 151.073C66.3749 151.35 63.5878 151.084 60.0582 152.658C50.2185 157.044 49.7602 166.722 49.509 167.187L49.5068 167.185Z" fill="#FC8E06"/>
<path fill-rule="evenodd" clip-rule="evenodd" d="M91.8008 133.845C86.7201 134.468 83.4328 135.428 79.2599 138.338C70.3918 144.523 69.9468 152.568 68.8606 153.51C68.1049 154.164 65.5932 153.51 61.7507 154.972C53.1581 158.248 49.3597 168.834 54.6827 177.061C56.6172 180.054 60.16 182.975 65.1129 183.748C67.217 184.076 78.892 183.9 81.939 183.9C93.321 183.9 104.703 183.9 116.087 183.9C122.668 183.9 125.345 184.089 130.335 181.06C138.045 176.379 140.973 165.782 136.216 157.345C132.918 151.493 126.716 148.041 119.632 148.338C117.543 148.426 117.169 148.915 116.38 147.565C115.823 146.612 115.367 145.764 114.77 144.895C112.551 141.661 109.731 138.812 105.875 136.788C102.092 134.804 97.0048 133.208 91.7986 133.845H91.8008Z" fill="#FAFAFA"/>
<path fill-rule="evenodd" clip-rule="evenodd" d="M87.8696 152.708C87.733 153.402 89.1431 157.464 89.4494 158.457L91.2009 164.283C91.4565 164.888 91.6835 164.815 92.4634 164.818C94.2084 164.822 93.7743 164.875 94.6292 161.387C94.9773 159.974 95.6096 156.434 96.0988 155.353C96.3676 156.31 98.1632 164.311 98.3791 164.582C98.6766 164.956 99.5336 164.862 100.06 164.837C100.86 164.8 100.893 164.624 101.087 163.928L103.803 155.148C104.645 152.495 104.925 152.567 103.118 152.57C102.398 152.57 102.222 152.53 102.034 153.144C101.276 155.645 100.422 159.694 99.6614 162.391L97.3304 152.682C94.345 152.246 94.8958 152.539 93.8735 156.98C93.6774 157.834 93.4769 158.712 93.2764 159.556L92.5383 162.231C92.2651 160.566 90.963 155.87 90.4144 153.706C90.269 153.135 90.2425 152.717 89.6565 152.596C89.174 152.495 88.2552 152.515 87.874 152.711L87.8696 152.708Z" fill="#182A39"/>
<path fill-rule="evenodd" clip-rule="evenodd" d="M112.434 170.943C111.607 170.542 109.854 171.575 108.245 172.075C88.9338 178.074 76.393 168.413 75.0137 168.554C74.8573 169.248 75.5007 169.622 76.3798 170.3C77.0121 170.787 77.5805 171.256 78.2613 171.72C85.9705 176.96 95.2153 178.361 104.286 175.701C105.983 175.203 107.441 174.618 108.957 173.876C109.591 173.565 110.449 173.072 111.059 172.68C111.843 172.178 112.707 171.936 112.434 170.943Z" fill="#FC8E06"/>
<path fill-rule="evenodd" clip-rule="evenodd" d="M77.4643 154.873L77.9864 154.952C78.4095 154.89 79.9231 153.928 82.2189 154.21C84.2414 154.459 84.3296 155.905 84.2326 157.964C82.0823 157.664 78.7686 156.795 77.1051 159.551C75.9925 161.396 76.5918 164.84 79.8592 165.113C82.8049 165.359 83.781 163.688 84.3891 163.303C85.2505 164.32 84.9927 165.549 86.6342 164.419C87.9473 163.517 86.5372 163.646 86.5108 160.707C86.4689 155.954 87.3216 152.134 81.4455 152.259C80.5091 152.279 79.5067 152.484 78.6849 152.794C77.5854 153.208 77.1492 153.365 77.4643 154.871V154.873Z" fill="#182A39"/>
<path fill-rule="evenodd" clip-rule="evenodd" d="M105.487 162.585C105.048 164.267 105.875 164.582 107.454 164.939C108.704 165.221 110.147 165.291 111.405 164.963C114.37 164.19 115.104 161.333 113.947 159.547C112.711 157.638 109.025 157.803 108.074 156.487C106.871 154.822 109.204 153.609 111.876 154.278C112.229 154.366 113.37 154.855 113.573 154.745C113.985 154.523 113.809 153.378 113.458 153.056C113.079 152.709 112.429 152.559 111.874 152.427C110.524 152.108 109.124 152.13 107.877 152.614C106.853 153.012 105.936 153.805 105.659 154.932C105.286 156.44 105.897 157.55 106.655 158.272C108.488 160.029 112.275 159.338 112.172 161.678C112.114 162.999 110.537 163.345 109.235 163.308C106.926 163.239 106.278 162.308 105.489 162.585H105.487Z" fill="#182A39"/>
<path fill-rule="evenodd" clip-rule="evenodd" d="M108.484 169.523C109.676 169.611 113.741 168.68 114.181 169.961C114.631 171.26 112.895 174.157 112.886 175.285C114.686 175.28 116.644 169.994 116.078 168.426C115.587 167.068 108.576 167.643 108.481 169.523H108.484Z" fill="#FC8E06"/>
<path fill-rule="evenodd" clip-rule="evenodd" d="M84.243 159.53C82.8153 159.219 79.5082 158.649 79.0698 160.76C78.5388 163.305 81.0681 163.937 82.9409 162.801C83.972 162.174 84.4281 161.187 84.243 159.532V159.53Z" fill="#FAFAFA"/>
</g>
<g clip-path="url(#clip2_1000_37)">
<g clip-path="url(#clip3_1000_37)">
<path fill-rule="evenodd" clip-rule="evenodd" d="M197.856 33.5424C197.943 33.6814 198.455 34.0872 198.624 34.265L199.381 34.9932C199.523 35.1377 199.583 35.2434 199.719 35.3823C199.872 35.538 199.942 35.6102 200.079 35.7825L201.217 37.2389C201.909 38.3228 202.427 39.0343 202.972 40.3406C203.048 40.5184 203.119 40.6629 203.195 40.8408C203.402 41.3244 203.843 42.5473 203.969 43.0531C204.023 43.281 204.072 43.4367 204.132 43.6535C204.192 43.8591 204.208 44.037 204.257 44.2538C204.481 45.1487 204.666 46.6495 204.661 47.6167C204.661 47.9169 204.704 48.028 204.704 48.3004V50.5739C204.862 50.585 204.873 50.6183 205.08 50.6183C206.448 50.635 207.706 50.9852 208.91 51.6022C209.924 52.1191 210.866 52.864 211.634 53.7144C211.727 53.8201 211.743 53.8645 211.841 53.9701C212.593 54.7761 213.356 56.3436 213.667 57.4276C214.092 58.9173 214.168 60.696 213.819 62.1857C213.716 62.6415 213.563 63.114 213.416 63.5309C212.768 65.3652 211.024 67.4107 209.303 68.3001C208.812 68.5558 208.714 68.6225 208.131 68.8615C207.69 69.045 207.27 69.1617 206.775 69.2784C205.124 69.6786 202.084 69.5285 199.997 69.5285C195.322 69.5285 190.653 69.5285 185.979 69.5285V84.8035H205.462C206.709 84.8035 207.968 84.6478 209.041 84.4699L209.858 84.3143C210.953 84.092 212.599 83.5973 213.629 83.1859C213.874 83.0859 214.081 83.008 214.32 82.9024C215.247 82.4967 216.712 81.7907 217.551 81.2238C217.666 81.1459 217.731 81.1237 217.845 81.0514L220.412 79.1671C220.597 79.017 220.76 78.8503 220.935 78.7113C221.278 78.4445 222.76 76.9437 222.918 76.7436L223.828 75.6541C224.138 75.2928 224.378 74.9259 224.667 74.5368C224.95 74.1477 225.184 73.7753 225.451 73.364C225.958 72.5913 226.443 71.6297 226.851 70.8015C227.069 70.3512 227.266 69.8954 227.451 69.4396L227.979 67.961C228.284 67.1384 228.513 66.1156 228.72 65.2429C228.84 64.7371 228.987 63.6254 229.058 63.0973C229.134 62.547 229.156 61.6243 229.205 61.2741C229.211 61.2296 229.216 61.1796 229.221 61.124V59.2174C229.189 58.5282 229.14 57.8445 229.096 57.4276C229.031 56.8495 228.954 56.238 228.846 55.71C228.579 54.3592 228.491 53.8201 228.072 52.5138C227.701 51.3521 227.554 51.0852 227.124 50.0069C226.873 49.3732 226.323 48.306 225.98 47.7001C225.615 47.0442 225.25 46.4883 224.83 45.8713C224.563 45.4767 223.691 44.2649 223.343 43.9147C223.234 43.8035 223.212 43.748 223.114 43.6368L221.681 42.136C221.213 41.6579 220.134 40.7408 219.567 40.3072L218.739 39.6958C218.603 39.5957 218.554 39.5957 218.499 39.429L217.802 37.1388C217.753 36.9943 217.726 36.9276 217.677 36.7942C217.622 36.6497 217.6 36.5496 217.546 36.4162C217.23 35.6658 217.034 35.0766 216.68 34.2984C215.775 32.3251 214.735 30.4074 213.481 28.6398C213.029 28.0006 211.651 26.1773 211.111 25.6048C211.019 25.5048 210.948 25.4492 210.861 25.3436L208.365 22.8589L197.856 33.5424Z" fill="#4185F3" stroke="#FEFEFE" stroke-width="0.756914" stroke-miterlimit="22.9256"/>
<path fill-rule="evenodd" clip-rule="evenodd" d="M153.452 39.763C152.499 40.5301 151.818 40.9581 150.919 41.8642C150.815 41.9698 150.766 41.9864 150.663 42.0754L148.663 44.2821C147.835 45.2493 147.034 46.5056 146.38 47.6173C145.547 49.0291 144.566 51.297 144.147 52.8423C143.809 54.0874 143.678 54.5488 143.427 55.8828C143.329 56.3942 143.291 56.9779 143.21 57.5504C143.171 57.8172 143.139 58.1563 143.144 58.4287C143.15 58.7622 143.106 58.94 143.101 59.2402V59.4403C143.117 62.0362 143.21 63.6426 143.814 66.1106C144.316 68.1617 144.539 68.5174 145.253 70.3073C145.296 70.424 145.345 70.5018 145.4 70.6297C145.46 70.7631 145.476 70.8409 145.541 70.9576C145.58 71.0299 145.58 71.0243 145.618 71.0966L145.857 71.5802C146.141 72.225 146.811 73.2922 147.219 73.9204L147.59 74.4818C148.157 75.3211 148.663 75.8603 149.23 76.5829C149.372 76.7663 149.519 76.8664 149.677 77.0721C150.025 77.5334 152.03 79.4067 152.613 79.7513C152.619 79.7402 162.932 69.1567 163.45 68.6953L162.082 67.8893C161.401 67.428 161.254 67.239 160.699 66.7276C160.377 66.4274 160.11 66.0606 159.843 65.7159L159.543 65.2935C158.634 63.9038 158.214 62.5865 158.002 60.9078C157.953 60.5131 157.991 59.8461 157.991 59.4181C157.985 58.0396 158.65 56.0941 159.396 54.9323C159.456 54.8434 159.467 54.8045 159.522 54.7211C159.576 54.6377 159.62 54.5821 159.68 54.4988C159.909 54.1597 160.568 53.3593 160.867 53.0924C162.088 52.0308 162.186 51.9363 163.722 51.197C164.387 50.8746 165.978 50.4966 166.692 50.4966C166.969 50.4966 167.073 50.4466 167.367 50.4521L168.081 50.5022C168.925 50.5689 169.225 50.6856 169.917 50.8579C171.415 51.2303 172.914 52.2753 174.003 53.3815C174.494 53.8818 174.929 54.4543 175.289 55.0713C175.425 55.3047 175.725 55.8217 175.779 56.0718C175.948 56.0274 176.03 55.8773 176.15 55.7606C177.397 54.4876 186.529 45.2271 186.67 45.0047C186.534 44.7435 185.308 43.2927 185.02 42.9981L183.717 41.7085C183.641 41.6363 183.603 41.5862 183.527 41.514C183.434 41.4306 183.407 41.4306 183.32 41.3416C183.227 41.2527 183.222 41.2472 183.118 41.1638C182.971 41.047 182.884 40.9526 182.726 40.8303C182.579 40.7191 182.453 40.6079 182.312 40.4856C181.843 40.091 180.269 38.9904 179.68 38.668C178.629 38.0843 177.877 37.6341 176.733 37.1727C176.106 36.917 175.224 36.5613 174.581 36.3667L172.854 35.8998C172.777 35.8831 172.614 35.8498 172.538 35.8331L172.254 35.7386C172.015 35.772 171.23 35.5885 170.925 35.5441C169.519 35.3384 168.228 35.255 166.79 35.2884C162.605 35.3773 158.803 36.5668 155.261 38.6068L153.458 39.763H153.452Z" fill="#FABC05" stroke="#FEFEFE" stroke-width="0.756914" stroke-miterlimit="22.9256"/>
<path fill-rule="evenodd" clip-rule="evenodd" d="M153.453 39.7628L155.256 38.6067C158.797 36.5667 162.6 35.3771 166.785 35.2882C168.223 35.2548 169.514 35.3382 170.92 35.5439C171.225 35.5884 172.01 35.7718 172.249 35.7384C172.669 35.0936 173.372 34.5767 173.922 34.0542C174.123 33.8652 174.32 33.6985 174.538 33.5261L175.84 32.5756C175.932 32.52 175.916 32.52 175.987 32.47L176.537 32.1309C177.627 31.4973 178.362 31.0804 179.572 30.6357C179.844 30.5356 180.127 30.4189 180.4 30.3244C180.525 30.2799 180.689 30.241 180.825 30.2021C180.977 30.1576 181.092 30.1132 181.244 30.0743C182.171 29.8297 183.113 29.6351 184.11 29.524C186.709 29.2183 188.714 29.4406 191.138 30.0687C191.809 30.241 193.056 30.6857 193.623 30.9636L196.527 32.5867L197.671 33.4372C197.78 33.5317 197.704 33.515 197.856 33.5484L208.366 22.8648L207.674 22.2034C207.178 21.8087 206.263 21.0083 205.751 20.647C204.748 19.9521 203.92 19.3018 202.803 18.6792C202.645 18.5903 202.531 18.5291 202.373 18.4347L200.569 17.4841C199.752 17.1395 199.109 16.7949 198.129 16.4113C196.352 15.7165 194.614 15.2329 192.762 14.8549C192.571 14.816 192.386 14.766 192.206 14.7327L189.776 14.3825C189.166 14.3213 187.75 14.2046 187.172 14.2046C185.156 14.2101 183.244 14.2101 181.282 14.5492C180.89 14.6159 180.487 14.666 180.089 14.7438C179.697 14.8271 179.294 14.8827 178.929 14.9772L176.711 15.5442C176.548 15.5887 176.379 15.6554 176.199 15.7054C175.404 15.9277 174.412 16.3224 173.639 16.6114L170.315 18.1512L168.103 19.4519C166.926 20.1856 164.349 22.0977 163.385 23.0927C163.254 23.2317 163.162 23.2762 163.025 23.4151L161.968 24.4824C161.854 24.588 161.903 24.5379 161.805 24.6602C161.745 24.7325 161.701 24.7658 161.641 24.8326L160.966 25.5607C160.465 26.0666 159.157 27.8064 158.803 28.2844C158.062 29.3016 156.716 31.5084 156.171 32.6368C156.008 32.9703 155.872 33.2482 155.708 33.5817C155.545 33.9152 155.436 34.2154 155.272 34.5545C154.962 35.2104 154.717 35.8941 154.461 36.5555C154.33 36.8891 154.199 37.2504 154.085 37.5894C154.003 37.8451 153.453 39.5238 153.447 39.7628H153.453Z" fill="#E94334" stroke="#FEFEFE" stroke-width="0.756914" stroke-miterlimit="22.9256"/>
<path fill-rule="evenodd" clip-rule="evenodd" d="M152.619 79.751C152.701 79.8955 153.856 80.6681 154.003 80.7738C155.114 81.5353 155.904 81.9021 157.081 82.5247C157.512 82.7526 158.667 83.2029 159.195 83.4141C159.805 83.6587 161.783 84.2256 162.486 84.3424C162.846 84.4035 163.107 84.4702 163.483 84.5258C163.799 84.5703 164.224 84.637 164.556 84.6759C165.265 84.7648 166.044 84.8093 166.817 84.8093C173.203 84.8093 179.588 84.8093 185.979 84.8093V69.5344C180.138 69.5344 174.298 69.5344 168.463 69.5344C167.231 69.5344 166.218 69.5455 165.134 69.2398C164.905 69.1731 164.763 69.1508 164.54 69.0786L163.461 68.6895C162.944 69.1508 152.63 79.7343 152.625 79.7454L152.619 79.751Z" fill="#34A753" stroke="#FEFEFE" stroke-width="0.756914" stroke-miterlimit="22.9256"/>
</g>
</g>
<defs>
<clipPath id="clip0_1000_37">
<rect width="87.6682" height="85.6054" fill="white"/>
</clipPath>
<clipPath id="clip1_1000_37">
<rect width="91.7937" height="55.6951" fill="white" transform="translate(49.5068 130.986)"/>
</clipPath>
<clipPath id="clip2_1000_37">
<rect width="87.6682" height="72.1973" fill="white" transform="translate(142.332 13.4082)"/>
</clipPath>
<clipPath id="clip3_1000_37">
<rect width="87.6682" height="72.1973" fill="white" transform="translate(142.332 13.4082)"/>
</clipPath>
</defs>
</svg>
