<svg width="119" height="55" viewBox="0 0 119 55" fill="none" xmlns="http://www.w3.org/2000/svg">
<path d="M91.9195 53.8793C106.838 53.8793 118.839 41.8698 118.839 26.9396C118.839 12.0095 106.838 0 91.9195 0C77.0013 0 65 12.0095 65 26.9396C65 41.869 77.0006 53.8793 91.9195 53.8793Z" fill="#2775CA"/>
<path d="M99.3223 31.2039C99.3223 27.2762 96.967 25.9293 92.2559 25.3657C88.8906 24.9155 88.2177 24.0188 88.2177 22.448C88.2177 20.8772 89.3405 19.8671 91.583 19.8671C93.6025 19.8671 94.7245 20.5405 95.2841 22.224C95.3975 22.5615 95.7339 22.7847 96.0703 22.7847H97.866C98.3158 22.7847 98.6515 22.448 98.6515 21.9986V21.8851C98.2017 19.4147 96.183 17.5072 93.6047 17.2839V14.5903C93.6047 14.1401 93.2675 13.8034 92.7087 13.6929H91.0257C90.5758 13.6929 90.2401 14.0303 90.1297 14.5895V17.1705C86.7644 17.6206 84.633 19.8641 84.633 22.6713C84.633 26.3758 86.8756 27.8361 91.586 28.3961C94.7274 28.9567 95.7368 29.6302 95.7368 31.4272C95.7368 33.2242 94.1679 34.4583 92.0358 34.4583C89.1204 34.4583 88.111 33.2242 87.7745 31.5406C87.6612 31.0905 87.3246 30.8672 86.9889 30.8672H85.0828C84.633 30.8672 84.2966 31.2047 84.2966 31.6541V31.7668C84.7464 34.574 86.5391 36.5942 90.2409 37.1549V39.8486C90.2409 40.2987 90.5774 40.6355 91.1369 40.7452L92.8191 40.746C93.269 40.746 93.6054 40.4085 93.7158 39.8486V37.1549C97.0775 36.592 99.323 34.2343 99.323 31.2039H99.3223Z" fill="white"/>
<path d="M86.199 42.9905C77.4504 39.846 72.9631 30.0807 76.2172 21.439C77.9002 16.7243 81.6012 13.134 86.199 11.4497C86.6488 11.2265 86.8719 10.889 86.8719 10.3261V8.75604C86.8719 8.30586 86.6481 7.96916 86.199 7.85938C86.0863 7.85938 85.8625 7.85937 85.7491 7.9721C75.0952 11.3399 69.2613 22.676 72.6258 33.3417C74.6453 39.6271 79.4691 44.4545 85.7491 46.4748C86.199 46.698 86.6451 46.4748 86.7585 46.0246C86.8719 45.9119 86.8719 45.8014 86.8719 45.5744V44.0043C86.8719 43.6647 86.5354 43.2175 86.199 42.9913V42.9905ZM98.0869 7.96842C97.637 7.74517 97.1909 7.96842 97.0775 8.41859C96.9649 8.53206 96.9648 8.64257 96.9648 8.86876V10.4388C96.9648 10.889 97.3013 11.3355 97.6378 11.5624C106.387 14.7063 110.874 24.4723 107.62 33.114C105.937 37.8286 102.236 41.419 97.6378 43.1033C97.188 43.3265 96.9648 43.6632 96.9648 44.2261V45.7969C96.9648 46.2471 97.188 46.5831 97.6378 46.6936C97.7512 46.6936 97.9749 46.6936 98.0876 46.5801C108.742 43.2123 114.576 31.8769 111.211 21.2106C109.191 14.8153 104.257 9.98793 98.0876 7.96694L98.0869 7.96842Z" fill="white"/>
<path d="M26.9195 0.158203C41.7862 0.158203 53.839 12.22 53.839 27.0978C53.839 41.9749 41.7855 54.0375 26.9195 54.0375C12.0536 54.0375 0 41.9786 0 27.0978C0 12.2164 12.0514 0.158203 26.9195 0.158203Z" fill="#53AE94"/>
<path d="M30.2421 23.5091V19.501H39.3993V13.3945H14.4639V19.501H23.6226V23.5054C16.1793 23.8472 10.5825 25.3223 10.5825 27.0891C10.5825 28.8566 16.1816 30.3316 23.6226 30.6757V43.5126H30.245V30.675C37.6743 30.3316 43.2601 28.8573 43.2601 27.092C43.2601 25.326 37.6743 23.8517 30.245 23.5083L30.2428 23.5076L30.2421 23.5091ZM30.2443 29.5882V29.5845C30.0573 29.5963 29.0972 29.6545 26.96 29.6545C25.2519 29.6545 24.0489 29.6059 23.6256 29.5838V29.589C17.0496 29.2972 12.1404 28.1515 12.1404 26.7796C12.1404 25.4085 17.0496 24.2643 23.6256 23.9718V28.447C24.0555 28.4764 25.288 28.5486 26.9879 28.5486C29.0302 28.5486 30.0565 28.4632 30.245 28.447V23.9718C36.8085 24.265 41.7052 25.4122 41.7052 26.7781C41.7052 28.1441 36.8063 29.292 30.245 29.5845L30.2443 29.5875V29.5882Z" fill="white"/>
</svg>
