<?xml version="1.0" encoding="UTF-8"?>
<!DOCTYPE svg PUBLIC "-//W3C//DTD SVG 1.1//EN" "http://www.w3.org/Graphics/SVG/1.1/DTD/svg11.dtd">
<!-- Creator: CorelDRAW 2021 (64-Bit) -->
<svg xmlns="http://www.w3.org/2000/svg" xml:space="preserve" width="9.2902mm" height="13.339mm" version="1.1" style="shape-rendering:geometricPrecision; text-rendering:geometricPrecision; image-rendering:optimizeQuality; fill-rule:evenodd; clip-rule:evenodd"
viewBox="0 0 113.42 162.85"
 xmlns:xlink="http://www.w3.org/1999/xlink"
 xmlns:xodm="http://www.corel.com/coreldraw/odm/2003">
 <defs>
  <style type="text/css">
   <![CDATA[
    .fil3 {fill:black}
    .fil0 {fill:#F78223}
    .fil2 {fill:#F7F7F7}
    .fil1 {fill:#F99D20}
   ]]>
  </style>
 </defs>
 <g id="Capa_x0020_1">
  <metadata id="CorelCorpID_0Corel-Layer"/>
  <path class="fil0" d="M10.36 150.29c6.52,1.56 43.87,12.61 46.47,12.56 1.8,-0.03 43.72,-11.67 46.08,-12.76 1.49,-3.59 4.65,-48.89 5.42,-57.18 1.75,-18.79 4.32,-39.53 5.09,-58.34l-113.42 0 10.36 115.72z"/>
  <path class="fil1" d="M56.75 153.15c5.81,-0.96 13.16,-3.51 18.85,-5.06 5.39,-1.46 14.49,-3.52 18.85,-5.37l8.82 -98.65 -46.54 -0.16 0.02 109.24z"/>
  <path class="fil2" d="M59.29 101.05l18.03 -1.07 -1.5 18.83 -16.31 4.18 -0.2 14.72 26.52 -7.18 4 -43.53 -18.25 -0.19 0.57 -14.48c4.61,-1.07 15.56,0.72 18.66,-1.01 1.23,-1.81 1.53,-10.24 1.48,-13.1l-32.8 -0.1 -0.19 42.93z"/>
  <path class="fil2" d="M43.78 119.98c-2.61,-0.42 -6.43,-1.21 -8.22,-2.53l-0.89 -7.72 -8.83 -1.49 1.7 22.06c3.23,1.47 22.17,6.66 26.15,7.28l0.03 -79.39 -11.87 -0.04 1.91 61.82z"/>
  <path class="fil3" d="M66.99 16.61l-6.12 0.01 -0.03 7.95 19.37 0c0.19,-14.01 -2.89,-8.36 -6.15,-15.95l6.19 -0.17 -0 -8.21 -20 -0.24c-0,13.01 3.57,8.25 6.73,16.61z"/>
  <path class="fil3" d="M44.85 16.34c-4.43,0.38 -3.41,-0.19 -3.46,-2.62l-8.15 -0.25 0.02 11.11 19.73 0 0.02 -24.57 -8.13 0.01 -0.03 16.31z"/>
 </g>
</svg>
