<svg width="167" height="192" viewBox="0 0 167 192" fill="none" xmlns="http://www.w3.org/2000/svg">
<g clip-path="url(#clip0_1013_189)">
<path fill-rule="evenodd" clip-rule="evenodd" d="M110.088 79.1127C110.924 79.4542 133.531 86.0733 135.393 86.2063C136.472 86.2838 153.623 81.1993 157.409 80.1133C158.298 79.8592 159.752 79.5534 160.545 78.9995L166.021 16.9913L105 16.9873L110.09 79.1127H110.088Z" fill="#007CC8" stroke="#FEFEFE" stroke-width="0.756287" stroke-miterlimit="22.9256"/>
<path fill-rule="evenodd" clip-rule="evenodd" d="M154.063 30.271C154.484 30.6701 154.516 30.6006 154.512 32.1293C154.508 33.4416 154.293 36.7671 154.619 37.6485C151.537 38.7266 148.522 40.0925 145.583 41.244C142.884 42.3022 139.527 43.6483 137.097 44.8653L153.103 44.8732L151.036 68.1236C149.659 69.2294 138.786 72.1161 136.067 73.0214L135.63 73.0373L135.67 80.1925C137.758 80.0714 143.593 78.09 146.026 77.3753C149.261 76.4263 152.92 75.2271 156.207 74.4668L160.792 23.0046L135.715 22.959L135.916 30.1936L154.063 30.269V30.271Z" fill="#008DD7"/>
<path fill-rule="evenodd" clip-rule="evenodd" d="M144.978 52.743L143.853 62.7035L136.754 64.2501C136.704 64.3096 136.619 64.3156 136.601 64.4248C136.462 65.213 136.194 63.1919 136.198 68.4054C136.198 69.8746 136.299 72.0366 136.07 73.0253C138.787 72.118 149.66 69.2333 151.039 68.1275L153.106 44.8771L137.1 44.8692C139.53 43.6502 142.887 42.3041 145.586 41.2479C148.525 40.0964 151.54 38.7305 154.623 37.6524V30.7573H136.198L136.199 52.7907L144.982 52.745L144.978 52.743Z" fill="#F7F7F7"/>
<path fill-rule="evenodd" clip-rule="evenodd" d="M144.979 52.7431L136.196 52.7887L136.194 30.7554H154.619V37.6505C154.294 36.771 154.51 33.4435 154.512 32.1312C154.516 30.6005 154.484 30.67 154.063 30.2729L116.022 30.2432L116.899 37.6882L134.867 37.7001C133.376 38.9072 128.326 40.7655 126.186 41.6847C123.237 42.9514 120.188 44.3054 117.28 45.5303C118.032 53.7 117.809 52.6915 121.396 52.6696C127.826 52.6299 139.627 52.4512 144.975 52.7451L144.979 52.7431Z" fill="#F7F7F7"/>
<path fill-rule="evenodd" clip-rule="evenodd" d="M135.63 73.0395L136.067 73.0236C136.295 72.0349 136.196 69.8728 136.194 68.4037C136.19 63.1922 136.458 65.2132 136.597 64.4231C136.617 64.3139 136.701 64.3079 136.75 64.2484C134.556 64.4628 128.966 63.1544 126.788 62.4854L126.082 56.8013L118.711 56.7676L119.641 68.7194L135.628 73.0375L135.63 73.0395Z" fill="#F7F7F7"/>
<path fill-rule="evenodd" clip-rule="evenodd" d="M134.042 7.85256L131.128 7.85653L131.114 11.6188L140.362 11.6168C140.411 5.21205 139.288 7.84065 137.42 4.0943L140.37 4.02481V0.0144179L130.886 -0.00146484C130.886 2.4961 130.554 2.78993 131.802 4.46357C132.462 5.34904 133.686 6.78841 134.04 7.84859L134.042 7.85256Z" fill="#FEFEFE"/>
<path fill-rule="evenodd" clip-rule="evenodd" d="M144.151 2.03146C144.151 4.48535 146.244 5.23581 147.333 7.8386L144.42 7.86044L144.404 11.6207L153.623 11.6187C153.711 4.90426 151.984 7.61227 150.704 4.05056L153.637 4.04063V0.00839744L144.151 0.00244141V2.03345V2.03146Z" fill="#FEFEFE"/>
<path fill-rule="evenodd" clip-rule="evenodd" d="M117.396 10.3977L117.406 11.6207L126.933 11.6048L126.929 7.93591L121.494 7.83466L121.46 3.95331L126.834 3.8461L126.955 0.0957848L117.388 0.000488281L117.396 10.3977Z" fill="#FEFEFE"/>
<path fill-rule="evenodd" clip-rule="evenodd" d="M6.31617 184.562C9.8398 185.402 30.0098 191.366 31.4208 191.34C32.3946 191.322 55.0389 185.043 56.3128 184.455C57.1197 182.519 58.8249 158.074 59.2402 153.597C60.1842 143.458 61.5734 132.268 61.9888 122.115H0.72168L6.31816 184.56L6.31617 184.562Z" fill="#F78223" stroke="#FEFEFE" stroke-width="0.756287" stroke-miterlimit="22.9256"/>
<path fill-rule="evenodd" clip-rule="evenodd" d="M31.3733 186.109C34.5113 185.589 38.4801 184.213 41.5526 183.381C44.4622 182.593 49.3829 181.483 51.732 180.481L56.4978 127.246L31.3613 127.16L31.3733 186.109Z" fill="#F99D20"/>
<path fill-rule="evenodd" clip-rule="evenodd" d="M32.7461 157.994L42.4823 157.416L41.6754 167.579L32.8653 169.837L32.756 177.78L47.0831 173.907L49.2434 150.416L39.384 150.315L39.692 142.5C42.1822 141.923 48.0986 142.892 49.7681 141.955C50.4338 140.98 50.5928 136.429 50.567 134.883L32.8494 134.829L32.7461 157.996V157.994Z" fill="#F7F7F7"/>
<path fill-rule="evenodd" clip-rule="evenodd" d="M24.3672 168.209C22.9562 167.981 20.8933 167.556 19.9274 166.845L19.4484 162.682L14.6787 161.876L15.5989 173.78C17.3418 174.576 27.5729 177.375 29.7272 177.709L29.7451 134.871L23.3358 134.849L24.3692 168.209H24.3672Z" fill="#F7F7F7"/>
<path fill-rule="evenodd" clip-rule="evenodd" d="M36.2268 112.975L33.3311 112.981L33.3172 116.743H42.491C42.5784 110.114 41.1237 112.79 39.5815 109.201L42.5129 109.117L42.5109 105.234L33.043 105.119C33.043 111.273 34.7322 109.018 36.2287 112.973L36.2268 112.975Z" fill="#FEFEFE"/>
<path fill-rule="evenodd" clip-rule="evenodd" d="M25.7393 112.849C23.6426 113.028 24.1236 112.76 24.0997 111.607L20.2422 111.488L20.2521 116.745H29.5908L29.6008 105.126L25.7492 105.134L25.7373 112.849H25.7393Z" fill="#FEFEFE"/>
<path fill-rule="evenodd" clip-rule="evenodd" d="M6.37384 79.3709C7.76898 79.9903 30.3457 86.2402 31.2837 86.2402C32.4384 86.2402 54.2778 80.1551 56.2115 79.3987C56.8475 77.858 61.4542 23.4894 61.9888 17.0211L0.719727 17.0132C0.809159 19.207 5.69415 77.5245 6.37384 79.3709Z" fill="#F35825" stroke="#FEFEFE" stroke-width="0.756287" stroke-miterlimit="22.9256"/>
<path fill-rule="evenodd" clip-rule="evenodd" d="M31.3569 29.7508L50.4775 29.733L50.4795 31.357L49.7541 37.3507L31.2317 37.4043L31.3628 45.0678L21.1914 44.9903C21.4816 45.1651 21.2868 45.1194 21.8373 45.2226L34.9143 45.2345C39.533 45.2385 44.567 45.042 49.134 45.2723L49.0844 46.9697L47.0771 68.6457C45.9304 69.285 41.3236 70.4028 39.5787 70.8594C37.0229 71.5265 34.2684 72.2372 31.7603 73.0631L31.3151 73.0889L31.3748 80.9052L51.3977 75.4713C51.825 74.5462 56.1018 27.0766 56.3423 22.1807L31.3628 22.147L31.3569 29.7528V29.7508Z" fill="#F78223"/>
<path fill-rule="evenodd" clip-rule="evenodd" d="M14.0806 52.7212C17.167 53.4578 27.7459 52.7391 31.8419 52.9297V45.8361H49.15L49.0844 46.9677L49.1341 45.2702C44.5671 45.0399 39.5351 45.2365 34.9144 45.2325L21.8374 45.2206C21.2889 45.1174 21.4816 45.163 21.1915 44.9883L20.4701 37.4222L31.2298 37.4023L49.7522 37.3487L31.8399 37.4678V30.2174L50.5571 30.2194L50.4796 31.355L50.4776 29.731L31.357 29.7488L12.123 29.7468L14.0806 52.7193V52.7212Z" fill="#F7F7F7"/>
<path fill-rule="evenodd" clip-rule="evenodd" d="M31.8418 52.9301L40.7115 52.9956L39.8668 62.8191L31.8418 65.0704C31.4841 66.0433 31.5616 67.6077 31.5616 68.9836C31.5616 69.7241 31.3469 72.5671 31.7603 73.0615C34.2684 72.2356 37.0229 71.5268 39.5787 70.8577C41.3236 70.4011 45.9304 69.2833 47.0771 68.6441L49.0843 46.9681L49.1499 45.8364H31.8418V52.9301Z" fill="#F7F7F7"/>
<path fill-rule="evenodd" clip-rule="evenodd" d="M31.3153 73.0869L31.7604 73.0611C31.349 72.5667 31.5617 69.7237 31.5617 68.9832C31.5597 67.6073 31.4842 66.0429 31.8419 65.0701L31.3212 65.1197L22.684 62.8465L22.1872 57.0254C21.7738 56.8368 22.0501 56.9162 21.4638 56.8071L14.5576 56.7515L15.5235 68.606C16.5569 69.2432 29.2444 72.66 31.3153 73.0889V73.0869Z" fill="#F7F7F7"/>
<path fill-rule="evenodd" clip-rule="evenodd" d="M49.7541 37.3511L50.4795 31.3573L50.559 30.2217L31.8418 30.2197V37.4702L49.7541 37.3511Z" fill="#F7F7F7"/>
<path fill-rule="evenodd" clip-rule="evenodd" d="M31.969 11.6029L35.5662 11.6486L35.7132 6.14324L36.4744 6.91554C37.2137 7.9102 37.5516 9.08751 38.6327 9.84789C39.1792 8.77184 40.31 6.87186 41.1885 6.08169L41.2302 11.6446L45.05 11.6387L45.0619 0.0363205C39.0838 -0.0371372 41.9 -0.348836 38.5452 3.8998C37.8258 3.36177 36.4148 0.931711 36.1147 0.0323498L31.9551 0.0720567L31.971 11.6029H31.969Z" fill="#FEFEFE"/>
<path fill-rule="evenodd" clip-rule="evenodd" d="M6.37988 10.4217L6.51105 11.6625L10.144 11.6387L10.2851 7.68784L13.8087 7.72954L13.8664 11.6446H17.6861L17.698 0.0244141L13.8465 0.0879451L13.8485 3.8323L10.2453 3.83826V0.157432L6.38783 0.0244141L6.37988 10.4217Z" fill="#FEFEFE"/>
<path fill-rule="evenodd" clip-rule="evenodd" d="M31.3216 65.1197L31.8423 65.07L39.8674 62.8187L40.712 52.9952L31.8423 52.9297C27.7463 52.7391 17.1675 53.4558 14.0811 52.7212C14.8084 53.5034 15.7664 53.156 17.8849 53.152L31.3634 53.2175L31.3216 65.1197Z" fill="#F78223"/>
<path fill-rule="evenodd" clip-rule="evenodd" d="M21.1921 44.9883L31.3655 45.0678L31.2324 37.4023L20.4727 37.4222L21.1921 44.9883Z" fill="#F35825"/>
<path fill-rule="evenodd" clip-rule="evenodd" d="M19.459 3.84025L22.7799 3.85811L22.9051 11.6208L26.7527 11.5791L26.7845 3.84223L30.1829 3.84025V0.0244141H19.459V3.84025Z" fill="#FEFEFE"/>
<path fill-rule="evenodd" clip-rule="evenodd" d="M47.0636 10.4217L47.0735 11.6446L56.3705 11.6347L56.3785 7.88638L50.9767 7.80498L50.9151 0.0244141H47.0576L47.0636 10.4217Z" fill="#FEFEFE"/>
<path fill-rule="evenodd" clip-rule="evenodd" d="M119.809 130.166C119.102 129.826 117.919 129.516 117.069 129.228C115.362 128.655 109.074 126.491 108.07 126.491C107.295 126.491 106.651 127.414 106.196 127.869L102.873 131.188C100.623 133.435 101.154 132.959 103.209 139.117C103.551 140.14 103.823 140.954 104.165 141.978C104.483 142.927 104.886 143.938 105.101 144.857C104.276 145.05 100.347 147.232 99.2559 147.778C98.2324 148.288 97.3162 148.746 96.3325 149.237C95.5097 149.648 93.9277 150.116 93.9277 151.214V159.126C93.9277 160.224 95.5097 160.692 96.3325 161.103L102.132 164.071C102.809 164.411 104.431 165.328 105.101 165.483C104.54 166.65 101.424 176.676 101.424 176.926C101.424 178.068 102.006 178.284 102.803 179.08L106.126 182.4C108.376 184.647 107.899 184.117 114.064 182.064L119.809 180.174C119.957 180.806 123.645 187.838 124.194 188.934C124.605 189.756 125.074 191.336 126.173 191.336H134.093C135.192 191.336 135.661 189.756 136.072 188.934C136.563 187.953 137.02 187.034 137.533 186.013C138.211 184.655 140.202 181.268 140.456 180.174C140.91 180.393 141.341 180.438 141.85 180.619C142.283 180.774 142.694 180.899 143.233 181.074C144.246 181.401 145.109 181.701 146.095 182.029C152.259 184.082 151.88 184.655 154.068 182.469L157.391 179.15C159.641 176.903 159.11 177.379 157.055 171.221L155.163 165.481C155.833 165.326 157.455 164.407 158.132 164.069L163.931 161.101C164.754 160.69 166.336 160.222 166.336 159.124V151.212C166.336 150.114 164.754 149.646 163.931 149.235C162.61 148.574 155.871 145.02 155.163 144.855L157.019 139.223C159.527 131.702 160.197 133.991 154.138 127.936C151.888 125.689 152.365 126.219 146.2 128.272L140.454 130.162C140.315 129.562 138.799 126.717 138.334 125.78L136.07 121.402C135.659 120.58 135.19 119 134.091 119H126.171C125.072 119 124.603 120.58 124.192 121.402L121.221 127.196C120.881 127.873 119.962 129.493 119.807 130.162L119.809 130.166Z" fill="#2A3D4F" stroke="#FEFEFE" stroke-width="0.756287" stroke-miterlimit="22.9256"/>
<path fill-rule="evenodd" clip-rule="evenodd" d="M108.636 129.624L104.562 133.705C104.699 134.829 107.005 141.238 107.643 143.166C108.724 146.429 108.002 146.582 105.16 148.032C103.731 148.76 97.2704 151.933 96.8312 152.348L96.8213 157.998C97.3479 158.488 101.349 160.367 102.259 160.835C107.617 163.593 108.883 163.307 107.653 167.049C107.027 168.953 104.677 175.658 104.552 176.646L108.644 180.712C109.596 180.615 116.262 178.264 118.126 177.653C122.005 176.382 121.723 177.667 124.41 182.928C124.903 183.893 126.815 187.923 127.302 188.439L132.958 188.449C133.439 187.931 135.341 183.929 135.804 183.021C136.402 181.848 138.083 178.034 138.835 177.57C140.005 176.845 140.846 177.23 142.028 177.617C143.102 177.969 144.135 178.298 145.22 178.667C146.734 179.184 150.202 180.506 151.625 180.724L155.7 176.64C155.58 175.648 153.259 169.046 152.641 167.156C151.367 163.263 152.679 163.577 157.826 160.938C159.585 160.037 161.835 159.054 163.423 158.054L163.438 152.29C161.864 151.307 159.635 150.329 157.919 149.453C152.856 146.864 151.325 147.055 152.583 143.269C152.935 142.209 153.299 141.154 153.651 140.096C154.136 138.637 155.543 134.988 155.708 133.697L151.623 129.625C150.437 129.8 144.127 132.04 142.136 132.691C138.829 133.773 138.739 133.076 137.284 130.219C136.557 128.792 133.379 122.345 132.96 121.903L127.322 121.893C126.296 122.961 122.53 132.077 121.425 132.77C119.887 133.733 117.48 132.459 115.042 131.674C113.545 131.194 109.9 129.759 108.636 129.622V129.624Z" fill="#4A6880"/>
<path fill-rule="evenodd" clip-rule="evenodd" d="M128.23 136.642C117.81 137.797 110.46 147.011 111.579 157.152C112.637 166.73 121.184 174.84 132.117 173.708C141.71 172.716 149.832 164.055 148.69 153.172C147.694 143.694 139.029 135.443 128.232 136.64L128.23 136.642Z" fill="#2A3D4F"/>
<path fill-rule="evenodd" clip-rule="evenodd" d="M127.811 139.612C118.927 141.002 113.212 149.138 114.561 157.611C115.805 165.428 123.139 172.16 132.559 170.738C140.337 169.565 147.196 162.112 145.713 152.731C144.491 145.002 137.146 138.151 127.813 139.612H127.811Z" fill="#E6E3F2"/>
<path fill-rule="evenodd" clip-rule="evenodd" d="M130.516 149.493V161.059H132.024L132.026 156.465C133.856 156.298 134.789 156.705 136.273 155.657C137.213 154.994 137.911 153.819 137.68 152.149C137.239 148.931 133.533 149.207 130.514 149.495L130.516 149.493Z" fill="#2A3D4F"/>
<path fill-rule="evenodd" clip-rule="evenodd" d="M119.042 161.026L120.507 161.065C120.811 160.508 121.58 158.103 121.733 157.387C127.713 157.387 125.257 156.743 127.208 161.06H128.709C128.657 160.255 127.174 156.299 126.811 155.246C126.155 153.35 125.328 151.234 124.827 149.374C122.729 149.374 123.031 149.261 122.772 149.94L119.044 161.028L119.042 161.026Z" fill="#2A3D4F"/>
<path fill-rule="evenodd" clip-rule="evenodd" d="M132.028 150.934L132.036 155.108C136.355 156.293 137.448 151.731 134.866 150.722C134.264 150.488 132.028 150.146 132.028 150.934Z" fill="#E6E3F2"/>
<path fill-rule="evenodd" clip-rule="evenodd" d="M139.765 161.055L140.317 161.065L140.741 161.063L141.239 161.045L141.273 149.405L139.761 149.368L139.765 161.055Z" fill="#2A3D4F"/>
<path fill-rule="evenodd" clip-rule="evenodd" d="M122.117 156.207L125.575 156.201L123.83 150.799L122.117 156.207Z" fill="#E6E3F2"/>
</g>
<defs>
<clipPath id="clip0_1013_189">
<rect width="167" height="192" fill="white"/>
</clipPath>
</defs>
</svg>
