<?xml version="1.0" encoding="UTF-8"?>
<!DOCTYPE svg PUBLIC "-//W3C//DTD SVG 1.1//EN" "http://www.w3.org/Graphics/SVG/1.1/DTD/svg11.dtd">
<!-- Creator: CorelDRAW 2021 (64-Bit) -->
<svg xmlns="http://www.w3.org/2000/svg" xml:space="preserve" width="11.4132mm" height="10.4576mm" version="1.1" style="shape-rendering:geometricPrecision; text-rendering:geometricPrecision; image-rendering:optimizeQuality; fill-rule:evenodd; clip-rule:evenodd"
viewBox="0 0 166.69 152.74"
 xmlns:xlink="http://www.w3.org/1999/xlink"
 xmlns:xodm="http://www.corel.com/coreldraw/odm/2003">
 <defs>
  <style type="text/css">
   <![CDATA[
    .fil5 {fill:#0BB3FC}
    .fil0 {fill:#913CCB}
    .fil6 {fill:#C392E5}
    .fil2 {fill:#D1B8EF}
    .fil3 {fill:#FC3D5E}
    .fil4 {fill:#FCB022}
    .fil1 {fill:white}
   ]]>
  </style>
 </defs>
 <g id="Capa_x0020_1">
  <metadata id="CorelCorpID_0Corel-Layer"/>
  <g id="_1422412615488">
   <path class="fil0" d="M148.28 136.01c0.19,-4.34 -2.84,-4.13 -6.65,-4.13l-124.39 0c-3.51,0 -6.31,-0.01 -8.16,-2.11 -1.97,-2.25 -1.88,-4.8 -1.88,-8.36 0,-3.27 -0.17,-7.03 0.02,-10.24l152.46 0c0.44,7.17 -1.67,14.12 3.99,13.74 2.46,-0.35 3.02,-2.04 3.01,-4.74l-0 -101.3c0,-5.5 0.15,-9.17 -2.7,-13.08 -1.84,-2.51 -5.23,-5.16 -9.87,-5.59 -4.52,-0.42 -10.88,-0.06 -15.59,-0.06 -31.15,0 -62.3,0 -93.45,0 -10.33,0 -20.86,-0.2 -31.16,0 -4.92,0.1 -8.42,2.54 -10.45,4.97 -3.15,3.78 -3.25,6.7 -3.25,12.52l0 93.46c0,9.44 -2.02,20.14 5.99,25.27 4.62,2.96 7.03,2.49 13.08,2.49l31.15 0c5.08,0 10.53,-0.19 15.56,0.02l0.09 6.88c-3.04,0.15 -12.9,-0.2 -14.56,0.09 -3.07,0.54 -3.88,4.97 -0.88,6.5 0.93,0.48 2.14,0.38 3.28,0.38l59 0c1.64,0 4.07,0.21 4.96,-2.22 0.79,-2.18 -0.64,-4.23 -2.38,-4.62 -1.4,-0.32 -12.02,0 -14.72,-0.13l0.02 -6.88c8.16,-0.33 16.96,-0.02 25.13,-0.02 5.04,0 14.05,0.19 18.78,0 2.05,-0.08 3.08,-1.11 3.55,-2.85z"/>
   <path class="fil1" d="M7.42 12.96c-0.46,21.95 -0.11,45.91 -0.11,68.22 0,7.31 -0.37,15.59 0.02,22.78l152.26 0c0.38,-7.12 0.02,-15.33 0.02,-22.58 0,-7.63 0,-15.27 0,-22.9 0,-15.07 0.31,-30.57 -0.11,-45.54 0.01,-2.56 -2.42,-4.8 -4.58,-5.5 -2.21,-0.72 -26.99,-0.35 -30.41,-0.35 -34.11,0 -68.21,0 -102.32,0 -2.36,0 -8.11,-0.27 -10.04,0.3 -2.26,0.67 -4.77,2.97 -4.74,5.57z"/>
   <path class="fil2" d="M148.28 136.01l0.31 -0.66c2.43,0.07 4.41,0.01 6.74,-0.19 -0.84,-1.82 -0.15,-3.54 1.1,-4.32 0.74,-0.47 1.53,-0.66 2.5,-0.53 1.29,0.17 1.34,0.63 2.17,0.99 0.48,-0.47 1.24,-2.03 1.56,-2.92 0.22,-0.62 0.34,-1.17 0.43,-1.84 0.14,-1.06 -0.09,-1.04 0.6,-1.64 -5.66,0.38 -3.55,-6.57 -3.99,-13.74l-152.46 0c-0.2,3.21 -0.02,6.97 -0.02,10.24 0,3.56 -0.09,6.11 1.88,8.36 1.84,2.1 4.65,2.11 8.16,2.11l124.39 0c3.81,-0 6.84,-0.22 6.65,4.13z"/>
   <path class="fil3" d="M23.85 90.38c-2.02,0.41 -3.71,2.76 -2.36,5.12 1.28,2.22 3.53,1.76 6.47,1.76 9.33,0 113.42,0.26 115.22,-0.09 1.93,-0.38 3.56,-2.83 2.23,-5.11 -1.27,-2.18 -3.56,-1.75 -6.47,-1.74 -9.12,0 -113.59,-0.23 -115.1,0.08z"/>
   <path class="fil3" d="M23.79 14.17c-2.93,0.81 -3.24,3.43 -2.26,5.16 1.18,2.08 3.78,1.66 6.64,1.66l98.81 0c2.85,0 14.53,0.36 16.4,-0.15 1.96,-0.54 3.39,-3.09 1.95,-5.23 -1.4,-2.07 -3.78,-1.58 -6.58,-1.58l-98.81 0c-2.82,0 -14.39,-0.34 -16.14,0.15z"/>
   <path class="fil4" d="M111.21 38.33c-3.53,0.5 -2.92,4.43 -2.92,7.78 0,3.65 0,7.29 0,10.94 0,3.42 -0.15,6.58 1.31,9.34 4.33,8.19 15.58,8.9 20.91,1.41 1.77,-2.49 2.19,-5.12 2.19,-8.68 -0,-3.64 0,-7.29 0,-10.93 0,-3.11 0.7,-7.75 -1.42,-9.25 -1.53,-1.09 -5.54,-1.46 -5.54,4.09 0,3.58 0,7.15 0,10.73 0,2.99 0.58,7.75 -0.93,10 -1.41,2.1 -4.78,3.29 -7.55,1.16 -2.59,-2 -2.01,-4.94 -2.01,-8.89 0,-2.1 0.4,-14.52 -0.4,-15.92 -0.68,-1.18 -1.9,-2.01 -3.64,-1.76z"/>
   <path class="fil5" d="M23.8 38.36c-3.48,0.77 -2.75,4.67 -2.75,8.16 0,3.64 0,7.29 0,10.93 0,3.63 -0.12,6.5 1.53,9.31 5.06,8.64 16.55,7.69 20.94,0.68 1.68,-2.68 1.94,-5.13 1.94,-8.75 -0,-3.65 0,-7.29 0,-10.94 0,-3.28 0.71,-7.68 -1.7,-8.99 -1.22,-0.67 -3,-0.54 -4.04,0.32 -1.27,1.04 -1.24,2.57 -1.24,4.35 0.01,3.58 0,7.15 0,10.73 0,3.21 0.65,7.5 -1.09,9.84 -1.56,2.1 -5.11,2.92 -7.6,0.71 -2.43,-2.16 -1.78,-5.23 -1.78,-9.11 0,-3.58 0,-7.15 0,-10.73 0,-1.58 0.31,-3.64 -0.51,-4.9 -0.7,-1.08 -2,-1.98 -3.71,-1.61z"/>
   <path class="fil5" d="M62.17 63.49c1.04,2.29 2.37,4.8 3.58,7.14 0.64,1.25 1.32,2.21 3.07,2.34 1.8,0.13 3.01,-0.94 3.49,-2.11 1.31,-3.18 -6.19,-13.22 -6.14,-15.25 0.01,-0.51 3.04,-6.29 3.51,-7.19 1.23,-2.36 3.45,-5.84 2.69,-7.93 -0.73,-2.02 -4.5,-3.77 -6.52,-0.01 -0.9,1.68 -3.14,5.76 -3.62,7.32 -2.19,-2.11 -3,-9.34 -6.86,-9.51 -1.61,-0.07 -2.92,0.86 -3.44,2.08 -1.33,3.14 6.13,13.21 6.14,15.23 0,1.98 -7.37,12.16 -6.16,15.23 0.43,1.1 1.64,2.16 3.28,2.14 1.83,-0.02 2.68,-1.07 3.27,-2.35 0.53,-1.13 3.11,-6.48 3.7,-7.14z"/>
   <path class="fil3" d="M99.49 28.05c-2.38,0.75 -2.79,3.69 -3.73,6.23 -0.9,2.45 -1.74,4.83 -2.62,7.28l-10.59 29.44c-0.89,2.52 -1.72,4.88 -2.61,7.29 -1.1,2.99 0.97,5.68 3.97,4.99 2.48,-0.57 2.93,-3.55 3.82,-6.08l13.2 -36.72c0.88,-2.47 1.73,-4.81 2.62,-7.28 1.16,-3.22 -0.88,-6.15 -4.07,-5.15z"/>
   <path class="fil4" d="M141.62 38.37c-3.29,0.77 -2.72,4.48 -2.72,7.74l0 20.63c-0,1.62 -0.23,3.36 0.57,4.63 0.59,0.94 1.9,1.91 3.75,1.53 3.38,-0.71 2.65,-4.66 2.65,-7.8l0 -20.63c0,-1.6 0.26,-3.42 -0.6,-4.66 -0.63,-0.91 -1.93,-1.82 -3.65,-1.42z"/>
   <polygon class="fil1" points="73.19,145.77 93.73,145.77 93.72,138.93 73.16,138.93 "/>
   <path class="fil0" d="M78.91 118.22c-2.74,0.99 -3.3,4.52 -0.77,6.23 1.1,0.75 8.45,0.82 9.96,0.34 2.38,-0.76 3.37,-4.39 0.68,-6.22 -1.12,-0.76 -8.45,-0.86 -9.87,-0.35z"/>
   <path class="fil2" d="M159.51 12.94c0.42,14.97 0.11,30.47 0.11,45.54 0,7.63 0,15.27 0,22.9 0,7.25 0.36,15.45 -0.02,22.58l-152.26 0c-0.39,-7.19 -0.02,-15.47 -0.02,-22.78 0,-22.31 -0.34,-46.27 0.11,-68.22 -0.58,0.79 -0.29,67.94 -0.29,79.77 0,2.17 -0.27,9.91 0.12,11.44l152.34 0.01c0.53,-1.67 0.21,-42.84 0.21,-45.71 0,-4.86 0.4,-44.55 -0.29,-45.54z"/>
   <path class="fil0" d="M155.33 135.16c0.6,1.72 3.05,2.64 5.03,1.48 0.68,-0.4 1.29,-1.15 1.48,-2.26 0.27,-1.66 -0.48,-2.1 -0.74,-3.07 -0.83,-0.36 -0.89,-0.83 -2.17,-0.99 -0.97,-0.13 -1.76,0.06 -2.5,0.53 -1.25,0.78 -1.94,2.49 -1.1,4.32z"/>
   <path class="fil6" d="M73.19 145.77l-0.03 -6.84 20.56 0.01 0.01 6.84c0.48,-0.81 0.26,-5.99 0.13,-6.91 -1.02,-0.27 -19.78,-0.27 -20.8,0l0.13 6.91z"/>
  </g>
 </g>
</svg>
