<svg width="168" height="169" viewBox="0 0 168 169" fill="none" xmlns="http://www.w3.org/2000/svg">
<g clip-path="url(#clip0_1010_114)">
<path fill-rule="evenodd" clip-rule="evenodd" d="M63.3406 66.9587C63.4203 65.1277 62.1407 65.218 60.535 65.2198H8.04688C6.56702 65.2198 5.38312 65.2145 4.60509 64.3291C3.77211 63.38 3.8111 62.3069 3.8111 60.8035C3.8111 59.4258 3.73844 57.8392 3.82174 56.4863H68.1541C68.3402 59.5072 67.4523 62.4397 69.8395 62.2785C70.8763 62.1316 71.1138 61.4197 71.1103 60.2811V17.5733C71.1103 15.2554 71.1759 13.7059 69.9725 12.0591C69.198 11.0002 67.7677 9.88282 65.8076 9.70043C63.9024 9.52335 61.2191 9.67564 59.2306 9.67564C46.0873 9.67564 32.9422 9.67564 19.7989 9.67564C15.4409 9.67564 10.9977 9.59064 6.65031 9.67741C4.57142 9.71814 3.09687 10.747 2.24085 11.774C0.911637 13.3695 0.867329 14.5984 0.867329 17.051V56.4526C0.867329 60.4334 0.0148577 64.9436 3.39461 67.1039C5.34591 68.3505 6.36143 68.1558 8.9153 68.1558H22.0586C24.2031 68.1558 26.5017 68.0761 28.6249 68.1646L28.6657 71.0652C27.3826 71.1289 23.2212 70.9819 22.5229 71.1059C21.2274 71.3325 20.8853 73.1989 22.1525 73.8471C22.546 74.0472 23.0564 74.0064 23.5385 74.0064H48.4338C49.125 74.0082 50.1512 74.0967 50.5251 73.0697C50.8583 72.1524 50.254 71.2865 49.5185 71.12C48.9265 70.9872 44.4479 71.1218 43.3066 71.0652L43.3137 68.1646C46.7572 68.0247 50.4702 68.1558 53.9155 68.1558C56.0423 68.1558 59.8456 68.2372 61.8412 68.1575C62.7078 68.1221 63.1421 67.69 63.337 66.9569L63.3406 66.9587Z" fill="#913CCB" stroke="#FEFEFE" stroke-width="0.944515" stroke-miterlimit="22.9256"/>
<path fill-rule="evenodd" clip-rule="evenodd" d="M3.90191 15.0799C3.70873 24.334 3.85406 34.4345 3.85406 43.8427C3.85406 46.9256 3.69987 50.4158 3.86292 53.4474H68.112C68.2733 50.4442 68.1208 46.9841 68.1208 43.9295C68.1208 40.712 68.1208 37.4927 68.1208 34.2752C68.1208 27.9216 68.2538 21.3874 68.0765 15.0746C68.0819 13.9961 67.0539 13.0505 66.1412 12.7548C65.2107 12.452 54.7542 12.6061 53.308 12.6061C38.9171 12.6061 24.5243 12.6061 10.1333 12.6061C9.13726 12.6061 6.71099 12.4928 5.89751 12.7336C4.94402 13.0169 3.88419 13.9873 3.90014 15.0816L3.90191 15.0799Z" fill="white"/>
<path fill-rule="evenodd" clip-rule="evenodd" d="M63.3407 66.9589L63.4701 66.6827C64.4944 66.711 65.3327 66.6862 66.3128 66.6012C65.9583 65.8327 66.2508 65.1102 66.7754 64.7809C67.0891 64.5843 67.4205 64.5046 67.8299 64.5577C68.3722 64.6286 68.397 64.8234 68.7462 64.9756C68.9482 64.7755 69.2708 64.1204 69.4019 63.745C69.4923 63.4829 69.5437 63.2544 69.5827 62.9711C69.6429 62.5249 69.5419 62.532 69.8361 62.2805C67.4488 62.4417 68.3368 59.5092 68.1507 56.4883H3.81831C3.73502 57.8412 3.80768 59.4278 3.80768 60.8055C3.80768 62.3071 3.76692 63.3819 4.60167 64.3311C5.37793 65.2165 6.56182 65.2218 8.04345 65.2218H60.5316C62.1391 65.2218 63.4169 65.1315 63.3371 66.9607L63.3407 66.9589Z" fill="#D1B8EF"/>
<path fill-rule="evenodd" clip-rule="evenodd" d="M10.8333 47.7192C9.98085 47.891 9.26839 48.8826 9.83907 49.876C10.3778 50.8128 11.3278 50.6162 12.5719 50.6162C16.51 50.6162 60.4291 50.726 61.1894 50.5773C62.0029 50.4179 62.6923 49.3838 62.1323 48.4205C61.5953 47.4996 60.6294 47.6838 59.4029 47.6856C55.5535 47.6856 11.4731 47.5882 10.8333 47.7175V47.7192Z" fill="#FC3D5E"/>
<path fill-rule="evenodd" clip-rule="evenodd" d="M10.8102 15.59C9.57312 15.9318 9.44197 17.035 9.85668 17.7645C10.3565 18.6411 11.4535 18.464 12.6587 18.464H54.3536C55.5552 18.464 60.4857 18.6145 61.2726 18.3985C62.0985 18.1718 62.7046 17.0969 62.0932 16.1921C61.5048 15.3208 60.4981 15.5262 59.316 15.5262H17.6211C16.4319 15.5262 11.5492 15.3828 10.8102 15.5882V15.59Z" fill="#FC3D5E"/>
<path fill-rule="evenodd" clip-rule="evenodd" d="M47.6967 25.7758C46.2062 25.9866 46.4667 27.6423 46.4667 29.0536C46.4667 30.5906 46.4667 32.1276 46.4667 33.6629C46.4667 35.1043 46.4029 36.436 47.0179 37.5994C48.8451 41.0542 53.5913 41.3517 55.8421 38.1926C56.59 37.1425 56.7672 36.034 56.7672 34.5341C56.7655 32.9971 56.7672 31.4601 56.7672 29.9248C56.7672 28.6126 57.0615 26.6577 56.1682 26.0273C55.5213 25.5704 53.8306 25.4111 53.8323 27.7503C53.8323 29.2572 53.8323 30.7659 53.8323 32.2728C53.8323 33.5319 54.0751 35.5417 53.4424 36.4891C52.8487 37.3762 51.4238 37.8756 50.2576 36.976C49.1641 36.1314 49.4069 34.8936 49.4069 33.2291C49.4069 32.3454 49.5771 27.1075 49.2368 26.5196C48.9497 26.0238 48.4375 25.6714 47.6984 25.7758H47.6967Z" fill="#FCB022"/>
<path fill-rule="evenodd" clip-rule="evenodd" d="M10.8114 25.7879C9.34218 26.1102 9.65233 27.757 9.65233 29.2285C9.65233 30.7656 9.65233 32.3026 9.65233 33.8379C9.65233 35.3696 9.60448 36.5755 10.2974 37.7602C12.4331 41.4027 17.2803 41.0007 19.1323 38.047C19.8395 36.919 19.9529 35.8849 19.9511 34.3585C19.9511 32.8214 19.9511 31.2844 19.9511 29.7491C19.9511 28.3679 20.2506 26.5139 19.2333 25.9579C18.7176 25.6763 17.9661 25.7312 17.5284 26.0907C16.9932 26.5299 17.0038 27.1744 17.0073 27.9235C17.0109 29.4304 17.0073 30.9391 17.0073 32.446C17.0073 33.7972 17.282 35.6069 16.5483 36.595C15.889 37.4822 14.3914 37.8257 13.3422 36.8943C12.3161 35.9841 12.5908 34.6896 12.5908 33.0552C12.5908 31.5483 12.5908 30.0396 12.5908 28.5326C12.5908 27.8668 12.7202 26.9973 12.3763 26.4661C12.0804 26.0092 11.531 25.6285 10.8096 25.7879H10.8114Z" fill="#0BB3FC"/>
<path fill-rule="evenodd" clip-rule="evenodd" d="M27.0032 36.3824C27.4427 37.3493 28.001 38.4064 28.5114 39.3928C28.7826 39.9204 29.0697 40.326 29.807 40.3773C30.5655 40.4322 31.0759 39.9789 31.2797 39.4866C31.8345 38.1461 28.6692 33.9139 28.6886 33.0587C28.694 32.8426 29.97 30.406 30.1703 30.0271C30.6896 29.0337 31.6253 27.5657 31.3081 26.6838C31.0015 25.8321 29.4082 25.0937 28.5557 26.6785C28.1747 27.3868 27.2318 29.1063 27.028 29.7668C26.1029 28.8761 25.7626 25.8303 24.1356 25.7595C23.4568 25.7294 22.9039 26.1225 22.6859 26.6378C22.1259 27.9606 25.2734 32.2087 25.2752 33.0569C25.277 33.8927 22.1648 38.1833 22.677 39.4778C22.8596 39.9417 23.37 40.3879 24.0612 40.3808C24.8339 40.3738 25.1901 39.9311 25.4418 39.391C25.6633 38.9146 26.7515 36.6604 27.005 36.3824H27.0032Z" fill="#0BB3FC"/>
<path fill-rule="evenodd" clip-rule="evenodd" d="M42.752 21.4407C41.7453 21.7559 41.5734 22.9972 41.18 24.0668C40.7989 25.1009 40.4462 26.1014 40.0723 27.1355L35.6061 39.5469C35.2322 40.6076 34.8777 41.6028 34.5055 42.621C34.043 43.8836 34.9149 45.0151 36.1821 44.7265C37.2278 44.4874 37.4174 43.2284 37.7949 42.1642L43.3652 26.6822C43.7374 25.6428 44.0936 24.6564 44.4711 23.6134C44.962 22.257 44.0989 21.0192 42.7538 21.4407H42.752Z" fill="#FC3D5E"/>
<path fill-rule="evenodd" clip-rule="evenodd" d="M60.5279 25.7935C59.1402 26.1176 59.3813 27.6829 59.3813 29.0553V37.7534C59.3813 38.4387 59.2856 39.1682 59.6223 39.703C59.874 40.1014 60.4251 40.5105 61.2049 40.3458C62.6316 40.0465 62.3215 38.382 62.3215 37.0557V28.3576C62.3215 27.6847 62.4296 26.9179 62.0698 26.392C61.8058 26.006 61.2546 25.6235 60.5279 25.7917V25.7935Z" fill="#FCB022"/>
<path fill-rule="evenodd" clip-rule="evenodd" d="M31.654 71.0724H40.3205L40.317 68.1896L31.6416 68.186L31.654 71.0724Z" fill="white"/>
<path fill-rule="evenodd" clip-rule="evenodd" d="M34.068 59.4578C32.9107 59.8757 32.6749 61.3632 33.7419 62.0856C34.208 62.4008 37.3077 62.4327 37.9422 62.2308C38.9471 61.9121 39.3653 60.3804 38.2311 59.6083C37.7579 59.286 34.6635 59.2435 34.068 59.4596V59.4578Z" fill="#913CCB"/>
<path fill-rule="evenodd" clip-rule="evenodd" d="M68.0758 15.0731C68.253 21.3859 68.1201 27.9201 68.1201 34.2737C68.1201 37.4912 68.1201 40.7105 68.1201 43.928C68.1201 46.9826 68.2725 50.4427 68.1112 53.4459H3.86215C3.6991 50.4143 3.85329 46.9241 3.85329 43.8412C3.85329 34.433 3.70796 24.3325 3.90114 15.0784C3.65479 15.4131 3.77708 43.7226 3.77708 48.7108C3.77708 49.6246 3.66188 52.8899 3.82848 53.5362L68.1077 53.5415C68.331 52.8368 68.1963 35.4796 68.1963 34.2719C68.1963 32.2231 68.3646 15.4892 68.0758 15.0713V15.0731Z" fill="#D1B8EF"/>
<path fill-rule="evenodd" clip-rule="evenodd" d="M66.3131 66.5993C66.5666 67.3235 67.5981 67.7131 68.4363 67.2208C68.7235 67.0526 68.9822 66.7374 69.0602 66.2681C69.1754 65.5705 68.8564 65.3845 68.7465 64.9755C68.3974 64.8232 68.3725 64.6284 67.8302 64.5576C67.4208 64.5044 67.0894 64.5841 66.7757 64.7807C66.2493 65.1101 65.9587 65.8325 66.3131 66.6011V66.5993Z" fill="#913CCB" stroke="#FEFEFE" stroke-width="0.755394" stroke-miterlimit="22.9256"/>
<path fill-rule="evenodd" clip-rule="evenodd" d="M31.6536 71.0722L31.6412 68.1875L40.3165 68.1893L40.3183 71.0722C40.5203 70.7286 40.4282 68.547 40.3732 68.1592C39.9444 68.0459 32.0275 68.0459 31.5986 68.1592L31.6536 71.0722Z" fill="#C392E5"/>
<path fill-rule="evenodd" clip-rule="evenodd" d="M99.9158 20.256L99.875 58.9264L108.194 63.8173C111.12 65.5279 113.782 67.0401 116.623 68.6763L133.554 78.3926C134.747 77.9357 136.684 76.6608 137.793 76.0251C139.255 75.1857 140.627 74.3623 142.061 73.546L167.206 58.9264L167.233 20.1445C166.035 19.2715 164.482 18.51 163.176 17.7397L150.472 10.4052C148.523 9.28779 134.181 0.765014 133.557 0.768556C133.038 0.772097 118.383 9.40289 116.673 10.437L99.9175 20.256H99.9158Z" fill="#012D74" stroke="#FEFEFE" stroke-width="0.944515" stroke-miterlimit="22.9256"/>
<path fill-rule="evenodd" clip-rule="evenodd" d="M120.474 17.5663C119.889 18.4322 117.55 29.1011 117.289 30.918L149.881 30.9339L146.838 17.8195C146.436 17.1059 142.741 17.4335 141.779 17.4335C138.218 17.4335 134.665 17.5362 131.232 17.5308C127.788 17.5255 123.857 17.3609 120.472 17.5663H120.474Z" fill="#FEFEFF"/>
<path fill-rule="evenodd" clip-rule="evenodd" d="M108.442 42.2758L120.407 63.2826L124.705 63.272C125.593 63.272 125.563 62.8151 126.718 61.7952C127.406 61.186 127.978 60.7398 128.595 60.0934C130.385 58.22 131.22 58.8645 131.034 55.1335L125.609 50.0053C124.657 48.9375 125.123 43.0019 125.114 41.6437L125.098 40.5458C123.484 39.694 118.342 36.0232 117.096 35.7363C116.949 35.7611 108.96 41.5976 108.44 42.2741L108.442 42.2758Z" fill="#FEFEFF"/>
<path fill-rule="evenodd" clip-rule="evenodd" d="M142.303 40.6465L142.279 49.6527L136.932 54.7154C136.31 55.3387 136.148 56.4083 136.405 57.6106C136.531 58.1968 139.367 60.6723 139.847 61.0672C142.275 63.0611 140.554 63.2293 145.364 63.2205C147.707 63.2169 147.007 62.8433 149.494 58.6271L155.801 47.6394C156.546 46.3573 158.607 43.1593 158.874 41.9994C156.985 40.9458 151.496 36.1523 150.004 35.5732C147.626 37.2431 144.556 38.8545 142.3 40.643L142.303 40.6465Z" fill="#FEFEFF"/>
<path fill-rule="evenodd" clip-rule="evenodd" d="M127.154 49.0136L140.175 48.987C140.313 46.8037 139.145 41.6046 139.599 40.1012C140.127 38.3482 141.97 34.5817 142.13 33.0889L125.339 33.0659C125.447 34.6862 127.288 38.2065 127.793 40.041C128.228 41.6206 127.163 46.8922 127.155 49.0118L127.154 49.0136Z" fill="#FEFEFF"/>
<path fill-rule="evenodd" clip-rule="evenodd" d="M86.6252 167.591C85.7656 166.314 84.5303 165.393 83.389 164.297C80.4168 161.444 61.4072 142.92 60.8029 141.619C59.7891 140.597 59.5056 140.795 59.4843 138.902C59.4684 137.486 59.518 136.069 59.479 134.647C58.9969 128.966 59.4241 121.278 59.4241 115.379C59.4241 112.762 58.5999 107.928 60.9482 107.143C62.1427 106.745 94.448 106.966 99.4122 106.966C102.742 106.966 105.626 106.212 107.003 108.613C107.827 108.994 107.843 109.135 108.479 109.787L112.561 113.87C114.746 116.05 127.471 129.342 128.636 130.029V123.728C128.611 123.44 128.581 123.162 128.54 122.896C128.212 120.736 127.765 118.811 127.182 117.076C125.904 113.265 124.6 110.444 122.544 107.359L117.802 101.457C115.391 99.0738 112.522 96.7947 109.553 95.0983C104.862 92.4174 101.759 91.3726 96.2611 90.3155C90.2973 89.1698 82.8378 89.9471 76.9644 91.9587C75.3109 92.5254 73.3135 93.3577 71.9169 94.0925C69.3489 95.4401 65.5331 98.0396 63.3125 100.094C43.1527 118.729 47.5692 152.918 74.8235 164.688C77.9285 166.029 82.5967 167.298 86.6234 167.587L86.6252 167.591Z" fill="#FB9151"/>
<path fill-rule="evenodd" clip-rule="evenodd" d="M110.262 125.958L110.407 126.342C110.779 127.808 110.258 125.042 110.501 126.767C110.521 126.909 110.529 127.33 110.531 127.489L110.579 132.641C111.93 132.389 113.75 132.552 115.261 132.547C119.868 132.527 118.966 132.019 118.966 142.846C118.966 153.766 120.628 152.629 109.732 152.057C108.578 152.773 100.906 152.339 98.9157 152.339C97.0991 152.339 95.2825 152.337 93.4676 152.339C91.2009 152.341 90.0507 152.812 89.1025 151.259H74.8923C71.6578 151.268 71.3938 151.553 71.3743 149.97C73.2724 149.268 75.4718 150.331 76.4412 148.592C77.2849 147.078 76.521 144.84 77.8484 143.82C78.8321 143.065 82.2632 143.352 83.8087 143.35C86.7063 143.349 86.9279 143.042 89.0511 144.229L89.0245 141.695L60.8008 141.615C61.4051 142.918 80.4147 161.441 83.3868 164.293C84.5282 165.39 85.7635 166.31 86.6231 167.587C96.5993 167.587 101.79 166.983 110.476 161.818C112.996 160.32 114.145 159.186 116.286 157.478C118.432 155.765 121.489 151.73 123.038 149.378C126.865 143.573 128.632 137.176 128.632 130.025C127.467 129.338 114.742 116.047 112.557 113.867L108.475 109.783C107.839 109.13 107.823 108.99 106.999 108.609L107.086 124.805C108.66 124.805 110.086 124.502 110.258 125.954L110.262 125.958Z" fill="#D37B45"/>
<path fill-rule="evenodd" clip-rule="evenodd" d="M99.2416 151.429C98.9173 149.748 100.759 149.895 100.06 151.425L99.2416 151.429ZM108.174 149.504L91.2238 149.571C90.5911 148.567 90.9916 127.821 91.02 127.534C92.9659 127.346 107.176 127.281 108.461 127.621C108.761 132.306 108.436 141.419 108.5 147.057C108.52 148.829 108.695 148.893 108.174 149.506V149.504ZM99.2558 126.556C99.6794 126.239 98.7702 126.167 101.214 126.167C100.83 126.5 101.133 126.447 100.422 126.572C100.399 126.576 99.3143 126.556 99.2558 126.556ZM89.2689 125.363L89.058 126.677L89.0261 127.971L89.0368 129.22L88.996 130.689L63.7355 130.65C63.117 130.218 63.4024 130.85 63.3013 129.501L63.3297 110.924L103.13 110.92L103.121 115.158L103.114 124.784C100.654 124.835 98.1623 124.798 95.697 124.798C92.4165 124.798 91.5091 124.451 89.2707 125.361L89.2689 125.363ZM59.4785 134.647H88.7621H89.0297L89.0261 141.697L89.0527 144.231L89.1041 151.259C90.0505 152.813 91.2007 152.342 93.4693 152.339C95.2859 152.337 97.1025 152.339 98.9173 152.339C100.908 152.339 108.58 152.773 109.734 152.057C108.95 148.599 109.457 140.296 109.418 135.667C109.4 133.558 109.363 134.141 109.989 132.687C110.639 131.175 109.983 127.874 110.262 125.956C110.09 124.504 108.663 124.807 107.089 124.807L107.002 108.611C105.625 106.21 102.744 106.964 99.4117 106.964C94.4476 106.964 62.1423 106.741 60.9477 107.141C58.5995 107.926 59.4236 112.758 59.4236 115.377C59.4236 121.276 58.9964 128.965 59.4785 134.645V134.647Z" fill="#2B2B2B"/>
<path fill-rule="evenodd" clip-rule="evenodd" d="M64.9906 118.843L65.003 117.872L81.9957 117.878L82.0205 129.179L81.0865 129.246L64.9924 129.234V118.845L64.9906 118.843ZM101.464 122.96L101.438 124.1C100.527 124.709 89.1983 124.382 87.7716 124.382C86.0082 124.382 83.9718 124.745 83.6635 123.794C83.2027 122.372 85.5297 122.648 85.7884 122.652C87.9152 122.682 100.507 122.298 101.464 122.962V122.96ZM83.9435 120.886C84.103 120.109 84.7995 120.35 85.7743 120.367L101.337 120.385L101.39 121.642H87.7716C85.1096 121.644 83.6847 122.135 83.9435 120.886ZM101.39 119.117H101.642L84.7977 119.14L83.9169 119.002L83.9151 117.903L86.2864 117.858H88.2679H101.39V119.117ZM63.7376 130.652L88.998 130.691L89.0388 129.221L83.9346 129.197L83.9133 128.088L89.0299 127.973L89.0618 126.679L83.9594 126.67L83.9063 125.57L89.271 125.365C91.5094 124.454 92.4168 124.801 95.6973 124.801C98.1626 124.801 100.654 124.839 103.114 124.787L103.121 115.161L63.6064 115.121L63.7358 130.654L63.7376 130.652Z" fill="#F9FBFB"/>
<path fill-rule="evenodd" clip-rule="evenodd" d="M83.5612 139.384C80.7379 139.384 80.885 137.027 83.5612 137.027H83.8093C85.6312 137.027 85.9839 137.815 85.3973 139.226L83.8093 139.384H83.5612ZM60.8014 141.617L89.0252 141.696L89.0287 134.647H88.7611H59.4775C59.5165 136.069 59.4669 137.484 59.4829 138.902C59.5024 140.793 59.7877 140.595 60.8014 141.619V141.617Z" fill="#D8DEDF"/>
<path fill-rule="evenodd" clip-rule="evenodd" d="M64.9912 129.232L81.0854 129.245L82.0194 129.179L81.9963 117.878L65.0036 117.873L64.9912 118.843V129.232Z" fill="#4A4A4A"/>
<path fill-rule="evenodd" clip-rule="evenodd" d="M63.736 130.652L63.6066 115.119L103.122 115.159L103.13 110.922L63.3301 110.925L63.3018 129.503C63.4028 130.852 63.1174 130.22 63.736 130.652Z" fill="#A7A7A7"/>
<path fill-rule="evenodd" clip-rule="evenodd" d="M106.117 148.672C104.46 148.652 100.35 149.014 100.027 148.289C100.814 147.91 106.188 148.126 107.515 148.126C107.43 148.966 107.304 148.688 106.115 148.672H106.117ZM91.8266 143.689H99.148L99.07 148.682H91.7611L91.8249 143.689H91.8266ZM99.9987 147.299C100.915 146.6 106.062 147.025 107.611 147.025V147.558C106.048 147.558 100.94 147.988 99.9987 147.299ZM107.495 146.462L100.027 146.31C100.498 145.968 99.35 146.083 100.638 145.906L103.869 145.918C106.831 145.918 107.46 145.513 107.495 146.462ZM99.9987 145.072C100.915 144.372 106.062 144.797 107.611 144.797V145.345C106.062 145.345 100.917 145.771 99.9987 145.07V145.072ZM103.373 144.247C101.285 144.247 100.311 144.581 100.027 143.836C100.918 143.448 103.012 143.692 104.116 143.692C107.387 143.692 107.442 143.321 107.515 144.247C106.134 144.247 104.754 144.247 103.373 144.247ZM100.08 142.541C100.353 142.189 99.7771 141.969 101.629 141.985L107.612 142.003L107.552 142.541H100.08ZM91.7504 137.574L99.1604 137.571L99.171 141.608L99.1001 142.54H91.7593L91.7487 137.573L91.7504 137.574ZM100.008 141.114C100.075 141.084 100.153 141.042 100.208 141.026C101.409 140.684 106.149 140.882 107.598 140.882C107.352 141.548 108.229 141.484 105.854 141.443H101.888C100.468 141.461 100.699 141.553 100.008 141.114ZM100.039 140.335C100.442 139.85 99.8055 140.052 100.626 139.79L107.611 139.775L107.584 140.335H100.041H100.039ZM100.016 138.886C100.084 138.858 100.165 138.824 100.218 138.81L107.575 138.674C107.345 139.368 107.653 139.111 106.865 139.257L103.866 139.234C102.327 139.234 100.841 139.46 100.015 138.885L100.016 138.886ZM100.039 138.107C100.429 137.67 99.8197 137.833 100.626 137.585L103.621 137.571C104.95 137.571 106.28 137.571 107.611 137.571L107.584 138.106H100.041L100.039 138.107ZM99.9969 136.165C100.851 135.448 106.086 135.862 107.609 135.862V136.423C106.046 136.423 100.938 136.854 99.9969 136.163V136.165ZM91.7487 131.451L99.1586 131.447V136.427L92.7216 136.43L91.7487 136.409V131.451ZM106.113 135.329C104.66 135.311 100.768 135.499 100.023 135.175C100.454 134.838 99.3731 134.943 100.635 134.753C100.734 134.739 101.468 134.755 101.624 134.757L107.511 134.764C107.444 135.625 107.325 135.345 106.111 135.331L106.113 135.329ZM99.9951 133.937C100.911 133.238 106.058 133.663 107.607 133.663V134.196C106.044 134.196 100.936 134.626 99.9951 133.937ZM103.866 133.091C102.813 133.091 100.874 133.317 100.023 132.947C100.495 132.606 99.3465 132.721 100.635 132.544L107.492 132.556C107.456 133.494 106.801 133.089 103.866 133.089V133.091ZM99.9951 131.709C100.911 131.01 106.058 131.435 107.607 131.435V131.982C106.058 131.982 100.913 132.409 99.9951 131.708V131.709ZM91.2188 149.57L108.169 149.502V130.415H91.2347L91.2188 149.57Z" fill="#F9FBFB"/>
<path fill-rule="evenodd" clip-rule="evenodd" d="M89.1032 151.259L89.0518 144.231C86.9286 143.044 86.7071 143.35 83.8094 143.352C82.264 143.352 78.8328 143.065 77.8492 143.821C76.5217 144.841 77.2874 147.08 76.442 148.594C75.4725 150.333 73.2731 149.27 71.375 149.971C71.3945 151.554 71.6586 151.269 74.893 151.261H89.1032V151.259Z" fill="#D8DEDF"/>
<path fill-rule="evenodd" clip-rule="evenodd" d="M113.892 150.361C114.8 149.831 115.09 150.706 114.63 151.39C113.804 151.508 113.098 150.827 113.892 150.361ZM110.263 149.328C109.857 148.429 110.071 136.276 110.071 135.415C111.477 135.214 117.139 135.171 118.426 135.461L118.351 149.399C117.52 149.628 110.573 149.677 110.445 149.398C110.413 149.325 110.319 149.36 110.263 149.33V149.328ZM109.734 152.059C120.631 152.631 118.968 153.766 118.968 142.847C118.968 132.021 119.868 132.529 115.264 132.549C113.752 132.554 111.932 132.391 110.582 132.642L110.534 127.491C110.532 127.332 110.523 126.91 110.504 126.769C110.261 125.044 110.784 127.81 110.41 126.344L110.264 125.959C109.986 127.877 110.642 131.176 109.991 132.69C109.366 134.144 109.403 133.561 109.421 135.67C109.46 140.299 108.955 148.602 109.736 152.061L109.734 152.059Z" fill="#4A4A4A"/>
<path fill-rule="evenodd" clip-rule="evenodd" d="M91.222 149.57L91.238 130.415H108.172V149.502C108.691 148.89 108.518 148.826 108.498 147.053C108.433 141.415 108.759 132.301 108.459 127.617C107.174 127.279 92.9642 127.343 91.0182 127.53C90.9898 127.819 90.5893 148.566 91.222 149.568V149.57Z" fill="#A7A7A7"/>
<path fill-rule="evenodd" clip-rule="evenodd" d="M116.272 147.2C117.514 147.243 117.23 147.351 117.457 147.547C117.069 148.339 116.339 147.983 114.023 147.985C110.382 147.986 111.196 148.318 111.038 147.223L116.27 147.2H116.272ZM114.519 145.713C117.966 145.707 117.206 145.465 117.425 146.31C116.614 146.692 115.054 146.476 114.024 146.478C110.444 146.481 111.215 146.802 111.04 145.713C112.199 145.713 113.36 145.715 114.519 145.713ZM111.052 138.601L116.502 138.592L117.463 138.64V144.567L116.502 144.59H111.038L111.052 138.6V138.601ZM110.263 149.325L118.154 149.288L118.095 137.704L110.341 137.698L110.262 149.325H110.263Z" fill="#F9FBFB"/>
<path fill-rule="evenodd" clip-rule="evenodd" d="M111.037 144.592H116.499L117.462 144.569V138.642L116.501 138.594L111.051 138.603L111.037 144.592Z" fill="#4A4A4A"/>
<path fill-rule="evenodd" clip-rule="evenodd" d="M91.751 136.409L92.7257 136.43L99.1627 136.427V131.447L91.751 131.451V136.409Z" fill="#4A4A4A"/>
<path fill-rule="evenodd" clip-rule="evenodd" d="M91.7616 142.541H99.1024L99.1733 141.608L99.1627 137.571L91.751 137.574L91.7616 142.541Z" fill="#4A4A4A"/>
<path fill-rule="evenodd" clip-rule="evenodd" d="M91.7627 148.682H99.0716L99.1478 143.688H91.8265L91.7627 148.682Z" fill="#4A4A4A"/>
<path fill-rule="evenodd" clip-rule="evenodd" d="M110.263 149.327L110.342 137.7L118.096 137.705L118.155 149.29L110.264 149.327H110.263ZM110.263 149.327C110.321 149.357 110.413 149.322 110.445 149.394C110.571 149.674 117.52 149.625 118.351 149.396L118.426 135.458C117.139 135.17 111.477 135.212 110.071 135.412C110.071 136.273 109.857 148.426 110.263 149.325V149.327Z" fill="#A7A7A7"/>
<path fill-rule="evenodd" clip-rule="evenodd" d="M101.388 121.642L101.335 120.385L85.7726 120.367C84.7978 120.35 84.1013 120.109 83.9418 120.886C83.6848 122.135 85.108 121.644 87.7699 121.642H101.388Z" fill="#A7A7A7"/>
<path fill-rule="evenodd" clip-rule="evenodd" d="M83.9168 119.002L84.7959 119.14L101.64 119.117H101.388V117.858H88.266H86.2846L83.915 117.903L83.9168 119.002Z" fill="#A7A7A7"/>
<path fill-rule="evenodd" clip-rule="evenodd" d="M101.438 124.1L101.463 122.96H84.0572L83.9668 124.1H101.438Z" fill="#A7A7A7"/>
<path fill-rule="evenodd" clip-rule="evenodd" d="M101.438 124.1H83.9666L84.0552 122.96H101.463C100.506 122.296 87.9135 122.678 85.7868 122.65C85.528 122.647 83.201 122.37 83.6618 123.792C83.9702 124.743 86.0065 124.38 87.7699 124.38C89.1966 124.38 100.525 124.708 101.436 124.099L101.438 124.1Z" fill="#D8DEDF"/>
<path fill-rule="evenodd" clip-rule="evenodd" d="M83.5607 139.384H83.8088L85.3968 139.226C85.9834 137.815 85.6307 137.027 83.8088 137.027H83.5607C80.8845 137.027 80.7374 139.384 83.5607 139.384Z" fill="#2B2B2B"/>
<path fill-rule="evenodd" clip-rule="evenodd" d="M89.0599 126.677L89.269 125.363L83.9043 125.57L83.9575 126.67L89.0599 126.677Z" fill="#A7A7A7"/>
<path fill-rule="evenodd" clip-rule="evenodd" d="M89.0374 129.22L89.0268 127.971L83.9102 128.086L83.9314 129.195L89.0374 129.22Z" fill="#A7A7A7"/>
<path fill-rule="evenodd" clip-rule="evenodd" d="M99.999 136.165C100.94 136.854 106.048 136.425 107.611 136.425V135.864C106.089 135.864 100.853 135.449 99.999 136.167V136.165Z" fill="#A7A7A7"/>
<path fill-rule="evenodd" clip-rule="evenodd" d="M99.999 145.072C100.915 145.771 106.062 145.346 107.611 145.346V144.799C106.062 144.799 100.917 144.372 99.999 145.073V145.072Z" fill="#A7A7A7"/>
<path fill-rule="evenodd" clip-rule="evenodd" d="M99.999 131.709C100.915 132.409 106.062 131.984 107.611 131.984V131.437C106.062 131.437 100.917 131.01 99.999 131.711V131.709Z" fill="#A7A7A7"/>
<path fill-rule="evenodd" clip-rule="evenodd" d="M117.424 146.309C117.206 145.465 117.964 145.707 114.517 145.713C113.358 145.714 112.197 145.713 111.038 145.713C111.212 146.8 110.441 146.479 114.023 146.478C115.052 146.478 116.61 146.694 117.424 146.309Z" fill="#A7A7A7"/>
<path fill-rule="evenodd" clip-rule="evenodd" d="M117.457 147.547C117.231 147.351 117.512 147.244 116.272 147.2L111.04 147.223C111.198 148.318 110.384 147.988 114.025 147.985C116.341 147.983 117.071 148.339 117.459 147.547H117.457Z" fill="#A7A7A7"/>
<path fill-rule="evenodd" clip-rule="evenodd" d="M99.999 133.937C100.94 134.626 106.048 134.195 107.611 134.195V133.662C106.062 133.662 100.917 133.236 99.999 133.937Z" fill="#A7A7A7"/>
<path fill-rule="evenodd" clip-rule="evenodd" d="M99.999 147.299C100.94 147.988 106.048 147.558 107.611 147.558V147.025C106.062 147.025 100.917 146.598 99.999 147.299Z" fill="#A7A7A7"/>
<path fill-rule="evenodd" clip-rule="evenodd" d="M100.027 143.836C100.313 144.581 101.286 144.248 103.373 144.246C104.754 144.246 106.135 144.246 107.515 144.246C107.443 143.32 107.388 143.692 104.116 143.692C103.012 143.692 100.919 143.448 100.027 143.836Z" fill="#A7A7A7"/>
<path fill-rule="evenodd" clip-rule="evenodd" d="M100.027 148.289C100.35 149.015 104.46 148.652 106.117 148.672C107.304 148.686 107.432 148.966 107.517 148.126C106.188 148.126 100.816 147.91 100.029 148.289H100.027Z" fill="#A7A7A7"/>
<path fill-rule="evenodd" clip-rule="evenodd" d="M100.008 141.114C100.697 141.552 100.469 141.461 101.888 141.443H105.855C108.229 141.484 107.352 141.548 107.599 140.882C106.151 140.882 101.41 140.682 100.208 141.026C100.153 141.042 100.075 141.084 100.008 141.114Z" fill="#A7A7A7"/>
<path fill-rule="evenodd" clip-rule="evenodd" d="M100.027 135.175C100.77 135.499 104.663 135.313 106.117 135.329C107.331 135.343 107.448 135.623 107.517 134.762L101.629 134.755C101.473 134.753 100.739 134.737 100.64 134.751C99.3784 134.941 100.459 134.836 100.029 135.173L100.027 135.175Z" fill="#A7A7A7"/>
<path fill-rule="evenodd" clip-rule="evenodd" d="M100.028 132.947C100.878 133.317 102.817 133.09 103.87 133.09C106.805 133.09 107.461 133.494 107.496 132.557L100.639 132.545C99.3507 132.722 100.499 132.607 100.028 132.949V132.947Z" fill="#A7A7A7"/>
<path fill-rule="evenodd" clip-rule="evenodd" d="M100.042 140.335H107.585L107.611 139.775L100.627 139.79C99.8079 140.052 100.442 139.85 100.04 140.335H100.042Z" fill="#A7A7A7"/>
<path fill-rule="evenodd" clip-rule="evenodd" d="M100.08 142.541H107.552L107.612 142.003L101.629 141.985C99.777 141.969 100.353 142.189 100.08 142.541Z" fill="#A7A7A7"/>
<path fill-rule="evenodd" clip-rule="evenodd" d="M100.042 138.107H107.585L107.611 137.572C106.28 137.572 104.951 137.572 103.622 137.572L100.627 137.586C99.8203 137.833 100.43 137.671 100.04 138.109L100.042 138.107Z" fill="#A7A7A7"/>
<path fill-rule="evenodd" clip-rule="evenodd" d="M100.019 138.886C100.843 139.462 102.331 139.235 103.87 139.235L106.868 139.258C107.657 139.113 107.349 139.369 107.579 138.675L100.222 138.812C100.167 138.826 100.086 138.859 100.02 138.888L100.019 138.886Z" fill="#A7A7A7"/>
<path fill-rule="evenodd" clip-rule="evenodd" d="M100.028 146.309L107.496 146.462C107.461 145.513 106.83 145.918 103.87 145.918L100.639 145.906C99.3507 146.083 100.499 145.968 100.028 146.309Z" fill="#A7A7A7"/>
<path fill-rule="evenodd" clip-rule="evenodd" d="M114.629 151.388C115.09 150.705 114.798 149.83 113.892 150.359C113.098 150.825 113.804 151.507 114.629 151.388Z" fill="#F9FBFB"/>
<path fill-rule="evenodd" clip-rule="evenodd" d="M100.061 151.425C100.759 149.895 98.9175 149.748 99.2418 151.429L100.061 151.425Z" fill="#F9FBFB"/>
<path fill-rule="evenodd" clip-rule="evenodd" d="M99.2559 126.556C99.3143 126.556 100.399 126.577 100.422 126.572C101.133 126.446 100.83 126.499 101.214 126.167C98.7703 126.167 99.6794 126.239 99.2559 126.556Z" fill="#A7A7A7"/>
<path d="M89.71 168.23C111.567 168.23 129.285 150.526 129.285 128.688C129.285 106.85 111.567 89.1465 89.71 89.1465C67.8532 89.1465 50.1348 106.85 50.1348 128.688C50.1348 150.526 67.8532 168.23 89.71 168.23Z" stroke="#FEFEFE" stroke-width="0.944515" stroke-miterlimit="22.9256"/>
</g>
<defs>
<clipPath id="clip0_1010_114">
<rect width="168" height="169" fill="white"/>
</clipPath>
</defs>
</svg>
